<?xml version="1.0" encoding="UTF-8" standalone="no"?><svg xmlns="http://www.w3.org/2000/svg" xmlns:xlink="http://www.w3.org/1999/xlink" contentScriptType="application/ecmascript" contentStyleType="text/css" height="1052px" preserveAspectRatio="none" style="width:825px;height:1052px;" version="1.1" viewBox="0 0 825 1052" width="825px" zoomAndPan="magnify"><defs><filter height="300%" id="f1ihpybvd6xhom" width="300%" x="-1" y="-1"><feGaussianBlur result="blurOut" stdDeviation="2.0"/><feColorMatrix in="blurOut" result="blurOut2" type="matrix" values="0 0 0 0 0 0 0 0 0 0 0 0 0 0 0 0 0 0 .4 0"/><feOffset dx="4.0" dy="4.0" in="blurOut2" result="blurOut3"/><feBlend in="SourceGraphic" in2="blurOut3" mode="normal"/></filter></defs><g><!--MD5=[dfd19b98945e23da1dad425745dc38f0]
cluster modbusx.core--><polygon fill="#FFFFFF" filter="url(#f1ihpybvd6xhom)" points="22,279.5,141,279.5,148,301.7969,300,301.7969,300,1040,22,1040,22,279.5" style="stroke: #000000; stroke-width: 1.5;"/><line style="stroke: #000000; stroke-width: 1.5;" x1="22" x2="148" y1="301.7969" y2="301.7969"/><text fill="#000000" font-family="sans-serif" font-size="14" font-weight="bold" lengthAdjust="spacingAndGlyphs" textLength="113" x="26" y="294.4951">modbusx.core</text><!--MD5=[7ef9e58f00d373e599000d0897adedd9]
cluster modbusx.slave_server--><polygon fill="#FFFFFF" filter="url(#f1ihpybvd6xhom)" points="376,526.5,559,526.5,566,548.7969,750,548.7969,750,702.5,376,702.5,376,526.5" style="stroke: #000000; stroke-width: 1.5;"/><line style="stroke: #000000; stroke-width: 1.5;" x1="376" x2="566" y1="548.7969" y2="548.7969"/><text fill="#000000" font-family="sans-serif" font-size="14" font-weight="bold" lengthAdjust="spacingAndGlyphs" textLength="177" x="380" y="541.4951">modbusx.slave_server</text><!--MD5=[492e4d9c7faa369b58f08476c9ca47ae]
cluster modbusx.ui--><polygon fill="#FFFFFF" filter="url(#f1ihpybvd6xhom)" points="448,24.5,545,24.5,552,46.7969,803,46.7969,803,477.5,448,477.5,448,24.5" style="stroke: #000000; stroke-width: 1.5;"/><line style="stroke: #000000; stroke-width: 1.5;" x1="448" x2="552" y1="46.7969" y2="46.7969"/><text fill="#000000" font-family="sans-serif" font-size="14" font-weight="bold" lengthAdjust="spacingAndGlyphs" textLength="91" x="452" y="39.4951">modbusx.ui</text><!--MD5=[72dcf0a49a0394e6b0aa3af6fdf99c13]
cluster modbusx.register_map--><polygon fill="#FFFFFF" filter="url(#f1ihpybvd6xhom)" points="324,902.5,510,902.5,517,924.7969,556,924.7969,556,1027.5,324,1027.5,324,902.5" style="stroke: #000000; stroke-width: 1.5;"/><line style="stroke: #000000; stroke-width: 1.5;" x1="324" x2="517" y1="924.7969" y2="924.7969"/><text fill="#000000" font-family="sans-serif" font-size="14" font-weight="bold" lengthAdjust="spacingAndGlyphs" textLength="180" x="328" y="917.4951">modbusx.register_map</text><!--MD5=[3c9cfa890ac85711c732c335559c21ef]
class ModbusDevice--><rect fill="#FEFECE" filter="url(#f1ihpybvd6xhom)" height="124.8281" id="ModbusDevice" style="stroke: #A80036; stroke-width: 1.5;" width="184" x="83" y="314.5"/><ellipse cx="125.9" cy="330.5" fill="#ADD1B2" rx="11" ry="11" style="stroke: #A80036; stroke-width: 1.0;"/><path d="M128.8688,336.1406 Q128.2906,336.4375 127.65,336.5781 Q127.0094,336.7344 126.3063,336.7344 Q123.8063,336.7344 122.4781,335.0938 Q121.1656,333.4375 121.1656,330.3125 Q121.1656,327.1875 122.4781,325.5313 Q123.8063,323.875 126.3063,323.875 Q127.0094,323.875 127.65,324.0313 Q128.3063,324.1875 128.8688,324.4844 L128.8688,327.2031 Q128.2438,326.625 127.65,326.3594 Q127.0563,326.0781 126.4313,326.0781 Q125.0875,326.0781 124.4,327.1563 Q123.7125,328.2188 123.7125,330.3125 Q123.7125,332.4063 124.4,333.4844 Q125.0875,334.5469 126.4313,334.5469 Q127.0563,334.5469 127.65,334.2813 Q128.2438,334 128.8688,333.4219 L128.8688,336.1406 Z "/><text fill="#000000" font-family="sans-serif" font-size="12" lengthAdjust="spacingAndGlyphs" textLength="90" x="146.1" y="334.6543">ModbusDevice</text><line style="stroke: #A80036; stroke-width: 1.5;" x1="84" x2="266" y1="346.5" y2="346.5"/><rect fill="none" height="6" style="stroke: #C82930; stroke-width: 1.0;" width="6" x="91" y="354.5"/><text fill="#000000" font-family="sans-serif" font-size="11" lengthAdjust="spacingAndGlyphs" textLength="71" x="103" y="360.7104">address: str</text><rect fill="none" height="6" style="stroke: #C82930; stroke-width: 1.0;" width="6" x="91" y="367.3047"/><text fill="#000000" font-family="sans-serif" font-size="11" lengthAdjust="spacingAndGlyphs" textLength="45" x="103" y="373.5151">port: int</text><rect fill="none" height="6" style="stroke: #C82930; stroke-width: 1.0;" width="6" x="91" y="380.1094"/><text fill="#000000" font-family="sans-serif" font-size="11" lengthAdjust="spacingAndGlyphs" textLength="76" x="103" y="386.3198">is_open: bool</text><rect fill="none" height="6" style="stroke: #C82930; stroke-width: 1.0;" width="6" x="91" y="392.9141"/><text fill="#000000" font-family="sans-serif" font-size="11" lengthAdjust="spacingAndGlyphs" textLength="158" x="103" y="399.1245">slaves: List&lt;ModbusSlave&gt;</text><line style="stroke: #A80036; stroke-width: 1.5;" x1="84" x2="266" y1="405.7188" y2="405.7188"/><ellipse cx="94" cy="416.7188" fill="#84BE84" rx="3" ry="3" style="stroke: #038048; stroke-width: 1.0;"/><text fill="#000000" font-family="sans-serif" font-size="11" lengthAdjust="spacingAndGlyphs" textLength="65" x="103" y="419.9292">add_slave()</text><ellipse cx="94" cy="429.5234" fill="#84BE84" rx="3" ry="3" style="stroke: #038048; stroke-width: 1.0;"/><text fill="#000000" font-family="sans-serif" font-size="11" lengthAdjust="spacingAndGlyphs" textLength="87" x="103" y="432.7339">remove_slave()</text><!--MD5=[b38525164174babd31b7bc3193e46513]
class ModbusSlave--><rect fill="#FEFECE" filter="url(#f1ihpybvd6xhom)" height="99.2188" id="ModbusSlave" style="stroke: #A80036; stroke-width: 1.5;" width="245" x="38.5" y="574.5"/><ellipse cx="115.75" cy="590.5" fill="#ADD1B2" rx="11" ry="11" style="stroke: #A80036; stroke-width: 1.0;"/><path d="M118.7188,596.1406 Q118.1406,596.4375 117.5,596.5781 Q116.8594,596.7344 116.1563,596.7344 Q113.6563,596.7344 112.3281,595.0938 Q111.0156,593.4375 111.0156,590.3125 Q111.0156,587.1875 112.3281,585.5313 Q113.6563,583.875 116.1563,583.875 Q116.8594,583.875 117.5,584.0313 Q118.1563,584.1875 118.7188,584.4844 L118.7188,587.2031 Q118.0938,586.625 117.5,586.3594 Q116.9063,586.0781 116.2813,586.0781 Q114.9375,586.0781 114.25,587.1563 Q113.5625,588.2188 113.5625,590.3125 Q113.5625,592.4063 114.25,593.4844 Q114.9375,594.5469 116.2813,594.5469 Q116.9063,594.5469 117.5,594.2813 Q118.0938,594 118.7188,593.4219 L118.7188,596.1406 Z "/><text fill="#000000" font-family="sans-serif" font-size="12" lengthAdjust="spacingAndGlyphs" textLength="82" x="136.25" y="594.6543">ModbusSlave</text><line style="stroke: #A80036; stroke-width: 1.5;" x1="39.5" x2="282.5" y1="606.5" y2="606.5"/><rect fill="none" height="6" style="stroke: #C82930; stroke-width: 1.0;" width="6" x="46.5" y="614.5"/><text fill="#000000" font-family="sans-serif" font-size="11" lengthAdjust="spacingAndGlyphs" textLength="68" x="58.5" y="620.7104">slave_id: int</text><rect fill="none" height="6" style="stroke: #C82930; stroke-width: 1.0;" width="6" x="46.5" y="627.3047"/><text fill="#000000" font-family="sans-serif" font-size="11" lengthAdjust="spacingAndGlyphs" textLength="219" x="58.5" y="633.5151">register_groups: List&lt;RegisterGroup&gt;</text><line style="stroke: #A80036; stroke-width: 1.5;" x1="39.5" x2="282.5" y1="640.1094" y2="640.1094"/><ellipse cx="49.5" cy="651.1094" fill="#84BE84" rx="3" ry="3" style="stroke: #038048; stroke-width: 1.0;"/><text fill="#000000" font-family="sans-serif" font-size="11" lengthAdjust="spacingAndGlyphs" textLength="119" x="58.5" y="654.3198">add_register_group()</text><ellipse cx="49.5" cy="663.9141" fill="#84BE84" rx="3" ry="3" style="stroke: #038048; stroke-width: 1.0;"/><text fill="#000000" font-family="sans-serif" font-size="11" lengthAdjust="spacingAndGlyphs" textLength="141" x="58.5" y="667.1245">remove_register_group()</text><!--MD5=[de9e6c8dfc9954a95f0a070d50361f38]
class RegisterGroup--><rect fill="#FEFECE" filter="url(#f1ihpybvd6xhom)" height="73.6094" id="RegisterGroup" style="stroke: #A80036; stroke-width: 1.5;" width="194" x="83" y="765.5"/><ellipse cx="130.75" cy="781.5" fill="#ADD1B2" rx="11" ry="11" style="stroke: #A80036; stroke-width: 1.0;"/><path d="M133.7188,787.1406 Q133.1406,787.4375 132.5,787.5781 Q131.8594,787.7344 131.1563,787.7344 Q128.6563,787.7344 127.3281,786.0938 Q126.0156,784.4375 126.0156,781.3125 Q126.0156,778.1875 127.3281,776.5313 Q128.6563,774.875 131.1563,774.875 Q131.8594,774.875 132.5,775.0313 Q133.1563,775.1875 133.7188,775.4844 L133.7188,778.2031 Q133.0938,777.625 132.5,777.3594 Q131.9063,777.0781 131.2813,777.0781 Q129.9375,777.0781 129.25,778.1563 Q128.5625,779.2188 128.5625,781.3125 Q128.5625,783.4063 129.25,784.4844 Q129.9375,785.5469 131.2813,785.5469 Q131.9063,785.5469 132.5,785.2813 Q133.0938,785 133.7188,784.4219 L133.7188,787.1406 Z "/><text fill="#000000" font-family="sans-serif" font-size="12" lengthAdjust="spacingAndGlyphs" textLength="90" x="151.25" y="785.6543">RegisterGroup</text><line style="stroke: #A80036; stroke-width: 1.5;" x1="84" x2="276" y1="797.5" y2="797.5"/><rect fill="none" height="6" style="stroke: #C82930; stroke-width: 1.0;" width="6" x="91" y="805.5"/><text fill="#000000" font-family="sans-serif" font-size="11" lengthAdjust="spacingAndGlyphs" textLength="83" x="103" y="811.7104">register_id: int</text><rect fill="none" height="6" style="stroke: #C82930; stroke-width: 1.0;" width="6" x="91" y="818.3047"/><text fill="#000000" font-family="sans-serif" font-size="11" lengthAdjust="spacingAndGlyphs" textLength="168" x="103" y="824.5151">registers: Dict&lt;int, Register&gt;</text><line style="stroke: #A80036; stroke-width: 1.5;" x1="84" x2="276" y1="831.1094" y2="831.1094"/><!--MD5=[8a8146ff89b20cc2efd6e16e3c0a6394]
class Register--><rect fill="#FEFECE" filter="url(#f1ihpybvd6xhom)" height="99.2188" id="Register" style="stroke: #A80036; stroke-width: 1.5;" width="103" x="128.5" y="925"/><ellipse cx="152.05" cy="941" fill="#ADD1B2" rx="11" ry="11" style="stroke: #A80036; stroke-width: 1.0;"/><path d="M155.0188,946.6406 Q154.4406,946.9375 153.8,947.0781 Q153.1594,947.2344 152.4563,947.2344 Q149.9563,947.2344 148.6281,945.5938 Q147.3156,943.9375 147.3156,940.8125 Q147.3156,937.6875 148.6281,936.0313 Q149.9563,934.375 152.4563,934.375 Q153.1594,934.375 153.8,934.5313 Q154.4563,934.6875 155.0188,934.9844 L155.0188,937.7031 Q154.3938,937.125 153.8,936.8594 Q153.2063,936.5781 152.5813,936.5781 Q151.2375,936.5781 150.55,937.6563 Q149.8625,938.7188 149.8625,940.8125 Q149.8625,942.9063 150.55,943.9844 Q151.2375,945.0469 152.5813,945.0469 Q153.2063,945.0469 153.8,944.7813 Q154.3938,944.5 155.0188,943.9219 L155.0188,946.6406 Z "/><text fill="#000000" font-family="sans-serif" font-size="12" lengthAdjust="spacingAndGlyphs" textLength="52" x="167.95" y="945.1543">Register</text><line style="stroke: #A80036; stroke-width: 1.5;" x1="129.5" x2="230.5" y1="957" y2="957"/><rect fill="none" height="6" style="stroke: #C82930; stroke-width: 1.0;" width="6" x="136.5" y="965"/><text fill="#000000" font-family="sans-serif" font-size="11" lengthAdjust="spacingAndGlyphs" textLength="48" x="148.5" y="971.2104">type: str</text><rect fill="none" height="6" style="stroke: #C82930; stroke-width: 1.0;" width="6" x="136.5" y="977.8047"/><text fill="#000000" font-family="sans-serif" font-size="11" lengthAdjust="spacingAndGlyphs" textLength="51" x="148.5" y="984.0151">alias: str</text><rect fill="none" height="6" style="stroke: #C82930; stroke-width: 1.0;" width="6" x="136.5" y="990.6094"/><text fill="#000000" font-family="sans-serif" font-size="11" lengthAdjust="spacingAndGlyphs" textLength="52" x="148.5" y="996.8198">value: int</text><rect fill="none" height="6" style="stroke: #C82930; stroke-width: 1.0;" width="6" x="136.5" y="1003.4141"/><text fill="#000000" font-family="sans-serif" font-size="11" lengthAdjust="spacingAndGlyphs" textLength="77" x="148.5" y="1009.6245">comment: str</text><line style="stroke: #A80036; stroke-width: 1.5;" x1="129.5" x2="230.5" y1="1016.2188" y2="1016.2188"/><!--MD5=[2974882caf0f82038974f36d201301af]
class MultiUnitModbusServerThread--><rect fill="#FEFECE" filter="url(#f1ihpybvd6xhom)" height="124.8281" id="MultiUnitModbusServerThread" style="stroke: #A80036; stroke-width: 1.5;" width="342" x="392" y="561.5"/><ellipse cx="465.25" cy="577.5" fill="#ADD1B2" rx="11" ry="11" style="stroke: #A80036; stroke-width: 1.0;"/><path d="M468.2188,583.1406 Q467.6406,583.4375 467,583.5781 Q466.3594,583.7344 465.6563,583.7344 Q463.1563,583.7344 461.8281,582.0938 Q460.5156,580.4375 460.5156,577.3125 Q460.5156,574.1875 461.8281,572.5313 Q463.1563,570.875 465.6563,570.875 Q466.3594,570.875 467,571.0313 Q467.6563,571.1875 468.2188,571.4844 L468.2188,574.2031 Q467.5938,573.625 467,573.3594 Q466.4063,573.0781 465.7813,573.0781 Q464.4375,573.0781 463.75,574.1563 Q463.0625,575.2188 463.0625,577.3125 Q463.0625,579.4063 463.75,580.4844 Q464.4375,581.5469 465.7813,581.5469 Q466.4063,581.5469 467,581.2813 Q467.5938,581 468.2188,580.4219 L468.2188,583.1406 Z "/><text fill="#000000" font-family="sans-serif" font-size="12" lengthAdjust="spacingAndGlyphs" textLength="187" x="485.75" y="581.6543">MultiUnitModbusServerThread</text><line style="stroke: #A80036; stroke-width: 1.5;" x1="393" x2="733" y1="593.5" y2="593.5"/><rect fill="none" height="6" style="stroke: #C82930; stroke-width: 1.0;" width="6" x="400" y="601.5"/><text fill="#000000" font-family="sans-serif" font-size="11" lengthAdjust="spacingAndGlyphs" textLength="45" x="412" y="607.7104">port: int</text><rect fill="none" height="6" style="stroke: #C82930; stroke-width: 1.0;" width="6" x="400" y="614.3047"/><text fill="#000000" font-family="sans-serif" font-size="11" lengthAdjust="spacingAndGlyphs" textLength="316" x="412" y="620.5151">unit_definitions: Dict&lt;int, Tuple&lt;List&lt;int&gt;, List&lt;int&gt;&gt;&gt;</text><ellipse cx="403" cy="630.1094" fill="none" rx="3" ry="3" style="stroke: #038048; stroke-width: 1.0;"/><text fill="#000000" font-family="sans-serif" font-size="11" lengthAdjust="spacingAndGlyphs" textLength="143" x="412" y="633.3198">status_signal: pyqtSignal</text><ellipse cx="403" cy="642.9141" fill="none" rx="3" ry="3" style="stroke: #038048; stroke-width: 1.0;"/><text fill="#000000" font-family="sans-serif" font-size="11" lengthAdjust="spacingAndGlyphs" textLength="136" x="412" y="646.1245">error_signal: pyqtSignal</text><line style="stroke: #A80036; stroke-width: 1.5;" x1="393" x2="733" y1="652.7188" y2="652.7188"/><ellipse cx="403" cy="663.7188" fill="#84BE84" rx="3" ry="3" style="stroke: #038048; stroke-width: 1.0;"/><text fill="#000000" font-family="sans-serif" font-size="11" lengthAdjust="spacingAndGlyphs" textLength="35" x="412" y="666.9292">start()</text><ellipse cx="403" cy="676.5234" fill="#84BE84" rx="3" ry="3" style="stroke: #038048; stroke-width: 1.0;"/><text fill="#000000" font-family="sans-serif" font-size="11" lengthAdjust="spacingAndGlyphs" textLength="33" x="412" y="679.7339">stop()</text><!--MD5=[e6c809820d88acc3564faeb20394ab9d]
class MainWindow--><rect fill="#FEFECE" filter="url(#f1ihpybvd6xhom)" height="156.375" id="MainWindow" style="stroke: #A80036; stroke-width: 1.5;" width="247" x="464.5" y="59.5"/><ellipse cx="535.75" cy="78.4688" fill="#ADD1B2" rx="11" ry="11" style="stroke: #A80036; stroke-width: 1.0;"/><path d="M538.7188,84.1094 Q538.1406,84.4063 537.5,84.5469 Q536.8594,84.7031 536.1563,84.7031 Q533.6563,84.7031 532.3281,83.0625 Q531.0156,81.4063 531.0156,78.2813 Q531.0156,75.1563 532.3281,73.5 Q533.6563,71.8438 536.1563,71.8438 Q536.8594,71.8438 537.5,72 Q538.1563,72.1563 538.7188,72.4531 L538.7188,75.1719 Q538.0938,74.5938 537.5,74.3281 Q536.9063,74.0469 536.2813,74.0469 Q534.9375,74.0469 534.25,75.125 Q533.5625,76.1875 533.5625,78.2813 Q533.5625,80.375 534.25,81.4531 Q534.9375,82.5156 536.2813,82.5156 Q536.9063,82.5156 537.5,82.25 Q538.0938,81.9688 538.7188,81.3906 L538.7188,84.1094 Z "/><text fill="#000000" font-family="sans-serif" font-size="12" font-style="italic" lengthAdjust="spacingAndGlyphs" textLength="100" x="554.25" y="75.6387">«QMainWindow»</text><text fill="#000000" font-family="sans-serif" font-size="12" lengthAdjust="spacingAndGlyphs" textLength="76" x="566.25" y="89.6074">MainWindow</text><line style="stroke: #A80036; stroke-width: 1.5;" x1="465.5" x2="710.5" y1="97.4375" y2="97.4375"/><rect fill="none" height="6" style="stroke: #C82930; stroke-width: 1.0;" width="6" x="472.5" y="105.4375"/><text fill="#000000" font-family="sans-serif" font-size="11" lengthAdjust="spacingAndGlyphs" textLength="49" x="484.5" y="111.6479">treeView</text><rect fill="none" height="6" style="stroke: #C82930; stroke-width: 1.0;" width="6" x="472.5" y="118.2422"/><text fill="#000000" font-family="sans-serif" font-size="11" lengthAdjust="spacingAndGlyphs" textLength="54" x="484.5" y="124.4526">tableView</text><rect fill="none" height="6" style="stroke: #C82930; stroke-width: 1.0;" width="6" x="472.5" y="131.0469"/><text fill="#000000" font-family="sans-serif" font-size="11" lengthAdjust="spacingAndGlyphs" textLength="191" x="484.5" y="137.2573">tree_model: QStandardItemModel</text><rect fill="none" height="6" style="stroke: #C82930; stroke-width: 1.0;" width="6" x="472.5" y="143.8516"/><text fill="#000000" font-family="sans-serif" font-size="11" lengthAdjust="spacingAndGlyphs" textLength="221" x="484.5" y="150.062">reg_table_model: QStandardItemModel</text><ellipse cx="475.5" cy="159.6563" fill="none" rx="3" ry="3" style="stroke: #038048; stroke-width: 1.0;"/><text fill="#000000" font-family="sans-serif" font-size="11" lengthAdjust="spacingAndGlyphs" textLength="12" x="484.5" y="162.8667">...</text><line style="stroke: #A80036; stroke-width: 1.5;" x1="465.5" x2="710.5" y1="169.4609" y2="169.4609"/><ellipse cx="475.5" cy="180.4609" fill="#84BE84" rx="3" ry="3" style="stroke: #038048; stroke-width: 1.0;"/><text fill="#000000" font-family="sans-serif" font-size="11" lengthAdjust="spacingAndGlyphs" textLength="128" x="484.5" y="183.6714">show_connect_dialog()</text><ellipse cx="475.5" cy="193.2656" fill="#84BE84" rx="3" ry="3" style="stroke: #038048; stroke-width: 1.0;"/><text fill="#000000" font-family="sans-serif" font-size="11" lengthAdjust="spacingAndGlyphs" textLength="96" x="484.5" y="196.4761">add_connection()</text><ellipse cx="475.5" cy="206.0703" fill="#84BE84" rx="3" ry="3" style="stroke: #038048; stroke-width: 1.0;"/><text fill="#000000" font-family="sans-serif" font-size="11" lengthAdjust="spacingAndGlyphs" textLength="157" x="484.5" y="209.2808">open_selected_connection()</text><!--MD5=[deac73c54eb3806a258924eeb8574672]
class ConnectDialog--><rect fill="#FEFECE" filter="url(#f1ihpybvd6xhom)" height="79.5469" id="ConnectDialog" style="stroke: #A80036; stroke-width: 1.5;" width="123" x="464.5" y="337"/><ellipse cx="479.5" cy="355.9688" fill="#ADD1B2" rx="11" ry="11" style="stroke: #A80036; stroke-width: 1.0;"/><path d="M482.4688,361.6094 Q481.8906,361.9063 481.25,362.0469 Q480.6094,362.2031 479.9063,362.2031 Q477.4063,362.2031 476.0781,360.5625 Q474.7656,358.9063 474.7656,355.7813 Q474.7656,352.6563 476.0781,351 Q477.4063,349.3438 479.9063,349.3438 Q480.6094,349.3438 481.25,349.5 Q481.9063,349.6563 482.4688,349.9531 L482.4688,352.6719 Q481.8438,352.0938 481.25,351.8281 Q480.6563,351.5469 480.0313,351.5469 Q478.6875,351.5469 478,352.625 Q477.3125,353.6875 477.3125,355.7813 Q477.3125,357.875 478,358.9531 Q478.6875,360.0156 480.0313,360.0156 Q480.6563,360.0156 481.25,359.75 Q481.8438,359.4688 482.4688,358.8906 L482.4688,361.6094 Z "/><text fill="#000000" font-family="sans-serif" font-size="12" font-style="italic" lengthAdjust="spacingAndGlyphs" textLength="61" x="508.5" y="353.1387">«QDialog»</text><text fill="#000000" font-family="sans-serif" font-size="12" lengthAdjust="spacingAndGlyphs" textLength="91" x="493.5" y="367.1074">ConnectDialog</text><line style="stroke: #A80036; stroke-width: 1.5;" x1="465.5" x2="586.5" y1="374.9375" y2="374.9375"/><rect fill="none" height="6" style="stroke: #C82930; stroke-width: 1.0;" width="6" x="472.5" y="382.9375"/><text fill="#000000" font-family="sans-serif" font-size="11" lengthAdjust="spacingAndGlyphs" textLength="75" x="484.5" y="389.1479">settings: Dict</text><line style="stroke: #A80036; stroke-width: 1.5;" x1="465.5" x2="586.5" y1="395.7422" y2="395.7422"/><ellipse cx="475.5" cy="406.7422" fill="#84BE84" rx="3" ry="3" style="stroke: #038048; stroke-width: 1.0;"/><text fill="#000000" font-family="sans-serif" font-size="11" lengthAdjust="spacingAndGlyphs" textLength="41" x="484.5" y="409.9526">on_ok()</text><!--MD5=[0bfb372e37b75ee8e3430ba20a0d7d24]
class SlaveControl--><rect fill="#FEFECE" filter="url(#f1ihpybvd6xhom)" height="169.1797" id="SlaveControl" style="stroke: #A80036; stroke-width: 1.5;" width="164" x="623" y="292.5"/><ellipse cx="661.85" cy="311.4688" fill="#ADD1B2" rx="11" ry="11" style="stroke: #A80036; stroke-width: 1.0;"/><path d="M664.8188,317.1094 Q664.2406,317.4063 663.6,317.5469 Q662.9594,317.7031 662.2563,317.7031 Q659.7563,317.7031 658.4281,316.0625 Q657.1156,314.4063 657.1156,311.2813 Q657.1156,308.1563 658.4281,306.5 Q659.7563,304.8438 662.2563,304.8438 Q662.9594,304.8438 663.6,305 Q664.2563,305.1563 664.8188,305.4531 L664.8188,308.1719 Q664.1938,307.5938 663.6,307.3281 Q663.0063,307.0469 662.3813,307.0469 Q661.0375,307.0469 660.35,308.125 Q659.6625,309.1875 659.6625,311.2813 Q659.6625,313.375 660.35,314.4531 Q661.0375,315.5156 662.3813,315.5156 Q663.0063,315.5156 663.6,315.25 Q664.1938,314.9688 664.8188,314.3906 L664.8188,317.1094 Z "/><text fill="#000000" font-family="sans-serif" font-size="12" font-style="italic" lengthAdjust="spacingAndGlyphs" textLength="83" x="679.15" y="308.6387">«QGroupBox»</text><text fill="#000000" font-family="sans-serif" font-size="12" lengthAdjust="spacingAndGlyphs" textLength="78" x="681.65" y="322.6074">SlaveControl</text><line style="stroke: #A80036; stroke-width: 1.5;" x1="624" x2="786" y1="330.4375" y2="330.4375"/><rect fill="none" height="6" style="stroke: #C82930; stroke-width: 1.0;" width="6" x="631" y="338.4375"/><text fill="#000000" font-family="sans-serif" font-size="11" lengthAdjust="spacingAndGlyphs" textLength="38" x="643" y="344.6479">idx: int</text><rect fill="none" height="6" style="stroke: #C82930; stroke-width: 1.0;" width="6" x="631" y="351.2422"/><text fill="#000000" font-family="sans-serif" font-size="11" lengthAdjust="spacingAndGlyphs" textLength="45" x="643" y="357.4526">port: int</text><rect fill="none" height="6" style="stroke: #C82930; stroke-width: 1.0;" width="6" x="631" y="364.0469"/><text fill="#000000" font-family="sans-serif" font-size="11" lengthAdjust="spacingAndGlyphs" textLength="71" x="643" y="370.2573">address: str</text><rect fill="none" height="6" style="stroke: #C82930; stroke-width: 1.0;" width="6" x="631" y="376.8516"/><text fill="#000000" font-family="sans-serif" font-size="11" lengthAdjust="spacingAndGlyphs" textLength="81" x="643" y="383.062">unit_data: Dict</text><line style="stroke: #A80036; stroke-width: 1.5;" x1="624" x2="786" y1="389.6563" y2="389.6563"/><ellipse cx="634" cy="400.6563" fill="#84BE84" rx="3" ry="3" style="stroke: #038048; stroke-width: 1.0;"/><text fill="#000000" font-family="sans-serif" font-size="11" lengthAdjust="spacingAndGlyphs" textLength="83" x="643" y="403.8667">add_unit_row()</text><ellipse cx="634" cy="413.4609" fill="#84BE84" rx="3" ry="3" style="stroke: #038048; stroke-width: 1.0;"/><text fill="#000000" font-family="sans-serif" font-size="11" lengthAdjust="spacingAndGlyphs" textLength="78" x="643" y="416.6714">start_server()</text><ellipse cx="634" cy="426.2656" fill="#84BE84" rx="3" ry="3" style="stroke: #038048; stroke-width: 1.0;"/><text fill="#000000" font-family="sans-serif" font-size="11" lengthAdjust="spacingAndGlyphs" textLength="76" x="643" y="429.4761">stop_server()</text><ellipse cx="634" cy="439.0703" fill="#84BE84" rx="3" ry="3" style="stroke: #038048; stroke-width: 1.0;"/><text fill="#000000" font-family="sans-serif" font-size="11" lengthAdjust="spacingAndGlyphs" textLength="138" x="643" y="442.2808">handle_remove_server()</text><ellipse cx="634" cy="451.875" fill="#84BE84" rx="3" ry="3" style="stroke: #038048; stroke-width: 1.0;"/><text fill="#000000" font-family="sans-serif" font-size="11" lengthAdjust="spacingAndGlyphs" textLength="25" x="643" y="455.0854">log()</text><!--MD5=[47fd31e44963e5371520282aaaf72b3e]
class RegisterMap--><rect fill="#FEFECE" filter="url(#f1ihpybvd6xhom)" height="73.6094" id="RegisterMap" style="stroke: #A80036; stroke-width: 1.5;" width="199" x="340.5" y="937.5"/><ellipse cx="396.75" cy="953.5" fill="#ADD1B2" rx="11" ry="11" style="stroke: #A80036; stroke-width: 1.0;"/><path d="M399.7188,959.1406 Q399.1406,959.4375 398.5,959.5781 Q397.8594,959.7344 397.1563,959.7344 Q394.6563,959.7344 393.3281,958.0938 Q392.0156,956.4375 392.0156,953.3125 Q392.0156,950.1875 393.3281,948.5313 Q394.6563,946.875 397.1563,946.875 Q397.8594,946.875 398.5,947.0313 Q399.1563,947.1875 399.7188,947.4844 L399.7188,950.2031 Q399.0938,949.625 398.5,949.3594 Q397.9063,949.0781 397.2813,949.0781 Q395.9375,949.0781 395.25,950.1563 Q394.5625,951.2188 394.5625,953.3125 Q394.5625,955.4063 395.25,956.4844 Q395.9375,957.5469 397.2813,957.5469 Q397.9063,957.5469 398.5,957.2813 Q399.0938,957 399.7188,956.4219 L399.7188,959.1406 Z "/><text fill="#000000" font-family="sans-serif" font-size="12" lengthAdjust="spacingAndGlyphs" textLength="78" x="417.25" y="957.6543">RegisterMap</text><line style="stroke: #A80036; stroke-width: 1.5;" x1="341.5" x2="538.5" y1="969.5" y2="969.5"/><ellipse cx="351.5" cy="980.5" fill="none" rx="3" ry="3" style="stroke: #038048; stroke-width: 1.0;"/><text fill="#000000" font-family="sans-serif" font-size="11" lengthAdjust="spacingAndGlyphs" textLength="12" x="360.5" y="983.7104">...</text><line style="stroke: #A80036; stroke-width: 1.5;" x1="341.5" x2="538.5" y1="990.3047" y2="990.3047"/><ellipse cx="351.5" cy="1001.3047" fill="#84BE84" rx="3" ry="3" style="stroke: #038048; stroke-width: 1.0;"/><text fill="#000000" font-family="sans-serif" font-size="11" lengthAdjust="spacingAndGlyphs" textLength="173" x="360.5" y="1004.5151">default_hr_block(size: int): Dict</text><!--MD5=[c84db9bad31673e9ff0acbd6cec797bb]
link ModbusDevice to ModbusSlave--><path d="M171.49,439.51 C169.1,481.18 166,535.5 163.79,574.2 " fill="none" id="ModbusDevice-ModbusSlave" style="stroke: #A80036; stroke-width: 1.0;"/><text fill="#000000" font-family="sans-serif" font-size="13" lengthAdjust="spacingAndGlyphs" textLength="40" x="169" y="506.5669">slaves</text><text fill="#000000" font-family="sans-serif" font-size="13" lengthAdjust="spacingAndGlyphs" textLength="8" x="162.6686" y="459.2509">1</text><text fill="#000000" font-family="sans-serif" font-size="13" lengthAdjust="spacingAndGlyphs" textLength="23" x="139.6196" y="563.5614">0..*</text><!--MD5=[da4dd5adafc8d84842dca9f90acf74c6]
link ModbusSlave to RegisterGroup--><path d="M166.24,673.7 C169.36,702.68 173.25,738.83 176.1,765.28 " fill="none" id="ModbusSlave-RegisterGroup" style="stroke: #A80036; stroke-width: 1.0;"/><text fill="#000000" font-family="sans-serif" font-size="13" lengthAdjust="spacingAndGlyphs" textLength="100" x="174" y="731.5669">register_groups</text><text fill="#000000" font-family="sans-serif" font-size="13" lengthAdjust="spacingAndGlyphs" textLength="8" x="158.4144" y="693.8046">1</text><text fill="#000000" font-family="sans-serif" font-size="13" lengthAdjust="spacingAndGlyphs" textLength="23" x="150.3569" y="754.4278">0..*</text><!--MD5=[3831c59afe31018a93763048b261e8e1]
link RegisterGroup to Register--><path d="M180,839.55 C180,864.41 180,897.73 180,924.92 " fill="none" id="RegisterGroup-Register" style="stroke: #A80036; stroke-width: 1.0;"/><text fill="#000000" font-family="sans-serif" font-size="13" lengthAdjust="spacingAndGlyphs" textLength="56" x="181" y="882.5669">registers</text><text fill="#000000" font-family="sans-serif" font-size="13" lengthAdjust="spacingAndGlyphs" textLength="8" x="171.3375" y="859.0388">1</text><text fill="#000000" font-family="sans-serif" font-size="13" lengthAdjust="spacingAndGlyphs" textLength="23" x="155.3828" y="913.954">0..*</text><!--MD5=[27c1a5d4fc911efe14fd4aa184588e24]
link MainWindow to ModbusDevice--><path d="M464.34,159.15 C399.51,174.67 321.62,201.14 263,245.5 C240.54,262.5 221.9,286.97 207.64,310.13 " fill="none" id="MainWindow-&gt;ModbusDevice" style="stroke: #A80036; stroke-width: 1.0; stroke-dasharray: 7.0,7.0;"/><polygon fill="#A80036" points="205.03,314.44,213.1043,308.8003,207.613,310.1588,206.2544,304.6675,205.03,314.44" style="stroke: #A80036; stroke-width: 1.0;"/><text fill="#000000" font-family="sans-serif" font-size="13" lengthAdjust="spacingAndGlyphs" textLength="60" x="264" y="258.5669">manages</text><!--MD5=[3ddc840d4f8345f6e8e6c549885c04c6]
link MainWindow to MultiUnitModbusServerThread--><path d="M464.27,185.01 C426.91,205.55 390.21,233.8 369,271.5 C322.36,354.39 325.32,401.01 369,485.5 C383.98,514.48 408.2,538.67 434.52,558.27 " fill="none" id="MainWindow-&gt;MultiUnitModbusServerThread" style="stroke: #A80036; stroke-width: 1.0; stroke-dasharray: 7.0,7.0;"/><polygon fill="#A80036" points="438.76,561.37,433.852,552.8312,434.7225,558.4206,429.133,559.2911,438.76,561.37" style="stroke: #A80036; stroke-width: 1.0;"/><text fill="#000000" font-family="sans-serif" font-size="13" lengthAdjust="spacingAndGlyphs" textLength="76" x="370" y="381.5669">starts/stops</text><!--MD5=[d7546d094a83d48ee18444304e54b978]
link MainWindow to ConnectDialog--><path d="M567.87,215.61 C557.84,254.05 546.06,299.16 537.56,331.73 " fill="none" id="MainWindow-&gt;ConnectDialog" style="stroke: #A80036; stroke-width: 1.0; stroke-dasharray: 7.0,7.0;"/><polygon fill="#A80036" points="536.22,336.85,542.353,329.1438,537.4763,332.0104,534.6097,327.1337,536.22,336.85" style="stroke: #A80036; stroke-width: 1.0;"/><text fill="#000000" font-family="sans-serif" font-size="13" lengthAdjust="spacingAndGlyphs" textLength="30" x="559" y="258.5669">uses</text><!--MD5=[31011d0032a8444617608b61e0e57248]
link MainWindow to SlaveControl--><path d="M625.99,215.61 C637.31,238.59 649.81,263.96 661.45,287.6 " fill="none" id="MainWindow-&gt;SlaveControl" style="stroke: #A80036; stroke-width: 1.0; stroke-dasharray: 7.0,7.0;"/><polygon fill="#A80036" points="663.77,292.31,663.3731,282.4691,661.5568,287.8265,656.1995,286.0103,663.77,292.31" style="stroke: #A80036; stroke-width: 1.0;"/><text fill="#000000" font-family="sans-serif" font-size="13" lengthAdjust="spacingAndGlyphs" textLength="30" x="647" y="258.5669">uses</text><!--MD5=[c1114e84567594b5936364a6ef5912f2]
link SlaveControl to MultiUnitModbusServerThread--><path d="M656.53,461.63 C638.53,492.68 618.38,527.45 601.4,556.75 " fill="none" id="SlaveControl-&gt;MultiUnitModbusServerThread" style="stroke: #A80036; stroke-width: 1.0; stroke-dasharray: 7.0,7.0;"/><polygon fill="#A80036" points="598.7,561.4,606.665,555.607,601.2007,557.0703,599.7374,551.6059,598.7,561.4" style="stroke: #A80036; stroke-width: 1.0;"/><text fill="#000000" font-family="sans-serif" font-size="13" lengthAdjust="spacingAndGlyphs" textLength="76" x="635" y="506.5669">starts/stops</text><!--MD5=[b565c8bbd42a9bf0145da3e5c640d936]
link RegisterGroup to RegisterMap--><path d="M235.14,839.55 C277.8,867.44 336.77,906 380.49,934.59 " fill="none" id="RegisterGroup-&gt;RegisterMap" style="stroke: #A80036; stroke-width: 1.0; stroke-dasharray: 7.0,7.0;"/><polygon fill="#A80036" points="384.94,937.5,379.5849,929.2343,380.7514,934.7695,375.2161,935.9361,384.94,937.5" style="stroke: #A80036; stroke-width: 1.0;"/><text fill="#000000" font-family="sans-serif" font-size="13" lengthAdjust="spacingAndGlyphs" textLength="136" x="303" y="882.5669">uses (staticmethods)</text><!--MD5=[6d1bfc74ab395d5dbbe49ce411bf8b56]
@startuml
package "modbusx.core" {
    class ModbusDevice {
        - address: str
        - port: int
        - is_open: bool
        - slaves: List<ModbusSlave>
        + add_slave()
        + remove_slave()
    }

    class ModbusSlave {
        - slave_id: int
        - register_groups: List<RegisterGroup>
        + add_register_group()
        + remove_register_group()
    }
    class RegisterGroup {
        - register_id: int
        - registers: Dict<int, Register>
    }
    class Register {
        - type: str
        - alias: str
        - value: int
        - comment: str
    }
}

package "modbusx.slave_server" {
    class MultiUnitModbusServerThread {
        - port: int
        - unit_definitions: Dict<int, Tuple<List<int>, List<int>>>
        + start()
        + stop()
        + status_signal: pyqtSignal
        + error_signal: pyqtSignal
    }
}

package "modbusx.ui" {
    class MainWindow <<QMainWindow>> {
        - treeView
        - tableView
        - tree_model: QStandardItemModel
        - reg_table_model: QStandardItemModel
        + show_connect_dialog()
        + add_connection()
        + open_selected_connection()
        + ...
    }
    class ConnectDialog <<QDialog>> {
        - settings: Dict
        + on_ok()
    }
    class SlaveControl <<QGroupBox>> {
        - idx: int
        - port: int
        - address: str
        - unit_data: Dict
        + add_unit_row()
        + start_server()
        + stop_server()
        + handle_remove_server()
        + log()
    }
}

package "modbusx.register_map" {
    class RegisterMap {
        + default_hr_block(size: int): Dict
        + ...
    }
}

ModbusDevice "1" - - "0..*" ModbusSlave : slaves
ModbusSlave "1" - - "0..*" RegisterGroup : register_groups
RegisterGroup "1" - - "0..*" Register : registers

MainWindow ..> ModbusDevice : manages
MainWindow ..> MultiUnitModbusServerThread : starts/stops
MainWindow ..> ConnectDialog : uses
MainWindow ..> SlaveControl : uses

SlaveControl ..> MultiUnitModbusServerThread : starts/stops

RegisterGroup ..> RegisterMap : uses (staticmethods)
@enduml

PlantUML version 1.2020.02(Sun Mar 01 10:22:07 UTC 2020)
(GPL source distribution)
Java Runtime: OpenJDK Runtime Environment
JVM: OpenJDK 64-Bit Server VM
Java Version: 17.0.15+6
Operating System: Linux
Default Encoding: UTF-8
Language: en
Country: null
--></g></svg>