<?xml version="1.0" encoding="UTF-8" standalone="no"?><svg xmlns="http://www.w3.org/2000/svg" xmlns:xlink="http://www.w3.org/1999/xlink" contentScriptType="application/ecmascript" contentStyleType="text/css" height="1293px" preserveAspectRatio="none" style="width:1118px;height:1293px;" version="1.1" viewBox="0 0 1118 1293" width="1118px" zoomAndPan="magnify"><defs><filter height="300%" id="f2hbekmuo35hx" width="300%" x="-1" y="-1"><feGaussianBlur result="blurOut" stdDeviation="2.0"/><feColorMatrix in="blurOut" result="blurOut2" type="matrix" values="0 0 0 0 0 0 0 0 0 0 0 0 0 0 0 0 0 0 .4 0"/><feOffset dx="4.0" dy="4.0" in="blurOut2" result="blurOut3"/><feBlend in="SourceGraphic" in2="blurOut3" mode="normal"/></filter></defs><g><!--MD5=[dfd19b98945e23da1dad425745dc38f0]
cluster modbusx.core--><polygon fill="#FFFFFF" filter="url(#f2hbekmuo35hx)" points="326,278,445,278,452,300.2969,672,300.2969,672,1281,326,1281,326,278" style="stroke: #000000; stroke-width: 1.5;"/><line style="stroke: #000000; stroke-width: 1.5;" x1="326" x2="452" y1="300.2969" y2="300.2969"/><text fill="#000000" font-family="sans-serif" font-size="14" font-weight="bold" lengthAdjust="spacingAndGlyphs" textLength="113" x="330" y="292.9951">modbusx.core</text><!--MD5=[7ef9e58f00d373e599000d0897adedd9]
cluster modbusx.slave_server--><polygon fill="#FFFFFF" filter="url(#f2hbekmuo35hx)" points="696,690,879,690,886,712.2969,1096,712.2969,1096,866,696,866,696,690" style="stroke: #000000; stroke-width: 1.5;"/><line style="stroke: #000000; stroke-width: 1.5;" x1="696" x2="886" y1="712.2969" y2="712.2969"/><text fill="#000000" font-family="sans-serif" font-size="14" font-weight="bold" lengthAdjust="spacingAndGlyphs" textLength="177" x="700" y="704.9951">modbusx.slave_server</text><!--MD5=[492e4d9c7faa369b58f08476c9ca47ae]
cluster modbusx.ui--><polygon fill="#FFFFFF" filter="url(#f2hbekmuo35hx)" points="22,24,119,24,126,46.2969,302,46.2969,302,431.5,22,431.5,22,24" style="stroke: #000000; stroke-width: 1.5;"/><line style="stroke: #000000; stroke-width: 1.5;" x1="22" x2="126" y1="46.2969" y2="46.2969"/><text fill="#000000" font-family="sans-serif" font-size="14" font-weight="bold" lengthAdjust="spacingAndGlyphs" textLength="91" x="26" y="38.9951">modbusx.ui</text><!--MD5=[3c9cfa890ac85711c732c335559c21ef]
class ModbusDevice--><rect fill="#FEFECE" filter="url(#f2hbekmuo35hx)" height="124.8281" id="ModbusDevice" style="stroke: #A80036; stroke-width: 1.5;" width="184" x="351" y="313"/><ellipse cx="393.9" cy="329" fill="#ADD1B2" rx="11" ry="11" style="stroke: #A80036; stroke-width: 1.0;"/><path d="M396.8688,334.6406 Q396.2906,334.9375 395.65,335.0781 Q395.0094,335.2344 394.3063,335.2344 Q391.8063,335.2344 390.4781,333.5938 Q389.1656,331.9375 389.1656,328.8125 Q389.1656,325.6875 390.4781,324.0313 Q391.8063,322.375 394.3063,322.375 Q395.0094,322.375 395.65,322.5313 Q396.3063,322.6875 396.8688,322.9844 L396.8688,325.7031 Q396.2438,325.125 395.65,324.8594 Q395.0563,324.5781 394.4313,324.5781 Q393.0875,324.5781 392.4,325.6563 Q391.7125,326.7188 391.7125,328.8125 Q391.7125,330.9063 392.4,331.9844 Q393.0875,333.0469 394.4313,333.0469 Q395.0563,333.0469 395.65,332.7813 Q396.2438,332.5 396.8688,331.9219 L396.8688,334.6406 Z "/><text fill="#000000" font-family="sans-serif" font-size="12" lengthAdjust="spacingAndGlyphs" textLength="90" x="414.1" y="333.1543">ModbusDevice</text><line style="stroke: #A80036; stroke-width: 1.5;" x1="352" x2="534" y1="345" y2="345"/><rect fill="none" height="6" style="stroke: #C82930; stroke-width: 1.0;" width="6" x="359" y="353"/><text fill="#000000" font-family="sans-serif" font-size="11" lengthAdjust="spacingAndGlyphs" textLength="71" x="371" y="359.2104">address: str</text><rect fill="none" height="6" style="stroke: #C82930; stroke-width: 1.0;" width="6" x="359" y="365.8047"/><text fill="#000000" font-family="sans-serif" font-size="11" lengthAdjust="spacingAndGlyphs" textLength="45" x="371" y="372.0151">port: int</text><rect fill="none" height="6" style="stroke: #C82930; stroke-width: 1.0;" width="6" x="359" y="378.6094"/><text fill="#000000" font-family="sans-serif" font-size="11" lengthAdjust="spacingAndGlyphs" textLength="76" x="371" y="384.8198">is_open: bool</text><rect fill="none" height="6" style="stroke: #C82930; stroke-width: 1.0;" width="6" x="359" y="391.4141"/><text fill="#000000" font-family="sans-serif" font-size="11" lengthAdjust="spacingAndGlyphs" textLength="158" x="371" y="397.6245">slaves: List&lt;ModbusSlave&gt;</text><line style="stroke: #A80036; stroke-width: 1.5;" x1="352" x2="534" y1="404.2188" y2="404.2188"/><ellipse cx="362" cy="415.2188" fill="#84BE84" rx="3" ry="3" style="stroke: #038048; stroke-width: 1.0;"/><text fill="#000000" font-family="sans-serif" font-size="11" lengthAdjust="spacingAndGlyphs" textLength="65" x="371" y="418.4292">add_slave()</text><ellipse cx="362" cy="428.0234" fill="#84BE84" rx="3" ry="3" style="stroke: #038048; stroke-width: 1.0;"/><text fill="#000000" font-family="sans-serif" font-size="11" lengthAdjust="spacingAndGlyphs" textLength="87" x="371" y="431.2339">remove_slave()</text><!--MD5=[b38525164174babd31b7bc3193e46513]
class ModbusSlave--><rect fill="#FEFECE" filter="url(#f2hbekmuo35hx)" height="112.0234" id="ModbusSlave" style="stroke: #A80036; stroke-width: 1.5;" width="221" x="341.5" y="515"/><ellipse cx="406.75" cy="531" fill="#ADD1B2" rx="11" ry="11" style="stroke: #A80036; stroke-width: 1.0;"/><path d="M409.7188,536.6406 Q409.1406,536.9375 408.5,537.0781 Q407.8594,537.2344 407.1563,537.2344 Q404.6563,537.2344 403.3281,535.5938 Q402.0156,533.9375 402.0156,530.8125 Q402.0156,527.6875 403.3281,526.0313 Q404.6563,524.375 407.1563,524.375 Q407.8594,524.375 408.5,524.5313 Q409.1563,524.6875 409.7188,524.9844 L409.7188,527.7031 Q409.0938,527.125 408.5,526.8594 Q407.9063,526.5781 407.2813,526.5781 Q405.9375,526.5781 405.25,527.6563 Q404.5625,528.7188 404.5625,530.8125 Q404.5625,532.9063 405.25,533.9844 Q405.9375,535.0469 407.2813,535.0469 Q407.9063,535.0469 408.5,534.7813 Q409.0938,534.5 409.7188,533.9219 L409.7188,536.6406 Z "/><text fill="#000000" font-family="sans-serif" font-size="12" lengthAdjust="spacingAndGlyphs" textLength="82" x="427.25" y="535.1543">ModbusSlave</text><line style="stroke: #A80036; stroke-width: 1.5;" x1="342.5" x2="561.5" y1="547" y2="547"/><rect fill="none" height="6" style="stroke: #C82930; stroke-width: 1.0;" width="6" x="349.5" y="555"/><text fill="#000000" font-family="sans-serif" font-size="11" lengthAdjust="spacingAndGlyphs" textLength="68" x="361.5" y="561.2104">slave_id: int</text><rect fill="none" height="6" style="stroke: #C82930; stroke-width: 1.0;" width="6" x="349.5" y="567.8047"/><text fill="#000000" font-family="sans-serif" font-size="11" lengthAdjust="spacingAndGlyphs" textLength="154" x="361.5" y="574.0151">register_map: RegisterMap</text><rect fill="none" height="6" style="stroke: #C82930; stroke-width: 1.0;" width="6" x="349.5" y="580.6094"/><text fill="#000000" font-family="sans-serif" font-size="11" lengthAdjust="spacingAndGlyphs" textLength="195" x="361.5" y="586.8198">groups: List&lt;RegisterGroupMeta&gt;</text><line style="stroke: #A80036; stroke-width: 1.5;" x1="342.5" x2="561.5" y1="593.4141" y2="593.4141"/><ellipse cx="352.5" cy="604.4141" fill="#84BE84" rx="3" ry="3" style="stroke: #038048; stroke-width: 1.0;"/><text fill="#000000" font-family="sans-serif" font-size="11" lengthAdjust="spacingAndGlyphs" textLength="119" x="361.5" y="607.6245">add_register_group()</text><ellipse cx="352.5" cy="617.2188" fill="#84BE84" rx="3" ry="3" style="stroke: #038048; stroke-width: 1.0;"/><text fill="#000000" font-family="sans-serif" font-size="11" lengthAdjust="spacingAndGlyphs" textLength="141" x="361.5" y="620.4292">remove_register_group()</text><!--MD5=[47fd31e44963e5371520282aaaf72b3e]
class RegisterMap--><rect fill="#FEFECE" filter="url(#f2hbekmuo35hx)" height="150.4375" id="RegisterMap" style="stroke: #A80036; stroke-width: 1.5;" width="184" x="460" y="929"/><ellipse cx="508.75" cy="945" fill="#ADD1B2" rx="11" ry="11" style="stroke: #A80036; stroke-width: 1.0;"/><path d="M511.7188,950.6406 Q511.1406,950.9375 510.5,951.0781 Q509.8594,951.2344 509.1563,951.2344 Q506.6563,951.2344 505.3281,949.5938 Q504.0156,947.9375 504.0156,944.8125 Q504.0156,941.6875 505.3281,940.0313 Q506.6563,938.375 509.1563,938.375 Q509.8594,938.375 510.5,938.5313 Q511.1563,938.6875 511.7188,938.9844 L511.7188,941.7031 Q511.0938,941.125 510.5,940.8594 Q509.9063,940.5781 509.2813,940.5781 Q507.9375,940.5781 507.25,941.6563 Q506.5625,942.7188 506.5625,944.8125 Q506.5625,946.9063 507.25,947.9844 Q507.9375,949.0469 509.2813,949.0469 Q509.9063,949.0469 510.5,948.7813 Q511.0938,948.5 511.7188,947.9219 L511.7188,950.6406 Z "/><text fill="#000000" font-family="sans-serif" font-size="12" lengthAdjust="spacingAndGlyphs" textLength="78" x="529.25" y="949.1543">RegisterMap</text><line style="stroke: #A80036; stroke-width: 1.5;" x1="461" x2="643" y1="961" y2="961"/><rect fill="none" height="6" style="stroke: #C82930; stroke-width: 1.0;" width="6" x="468" y="969"/><text fill="#000000" font-family="sans-serif" font-size="11" lengthAdjust="spacingAndGlyphs" textLength="157" x="480" y="975.2104">hr: Dict&lt;int, RegisterEntry&gt;</text><rect fill="none" height="6" style="stroke: #C82930; stroke-width: 1.0;" width="6" x="468" y="981.8047"/><text fill="#000000" font-family="sans-serif" font-size="11" lengthAdjust="spacingAndGlyphs" textLength="153" x="480" y="988.0151">ir: Dict&lt;int, RegisterEntry&gt;</text><rect fill="none" height="6" style="stroke: #C82930; stroke-width: 1.0;" width="6" x="468" y="994.6094"/><text fill="#000000" font-family="sans-serif" font-size="11" lengthAdjust="spacingAndGlyphs" textLength="158" x="480" y="1000.8198">co: Dict&lt;int, RegisterEntry&gt;</text><rect fill="none" height="6" style="stroke: #C82930; stroke-width: 1.0;" width="6" x="468" y="1007.4141"/><text fill="#000000" font-family="sans-serif" font-size="11" lengthAdjust="spacingAndGlyphs" textLength="155" x="480" y="1013.6245">di: Dict&lt;int, RegisterEntry&gt;</text><line style="stroke: #A80036; stroke-width: 1.5;" x1="461" x2="643" y1="1020.2188" y2="1020.2188"/><ellipse cx="471" cy="1031.2188" fill="#84BE84" rx="3" ry="3" style="stroke: #038048; stroke-width: 1.0;"/><text fill="#000000" font-family="sans-serif" font-size="11" lengthAdjust="spacingAndGlyphs" textLength="64" x="480" y="1034.4292">add_block()</text><ellipse cx="471" cy="1044.0234" fill="#84BE84" rx="3" ry="3" style="stroke: #038048; stroke-width: 1.0;"/><text fill="#000000" font-family="sans-serif" font-size="11" lengthAdjust="spacingAndGlyphs" textLength="123" x="480" y="1047.2339">as_pymodbus_array()</text><ellipse cx="471" cy="1056.8281" fill="#84BE84" rx="3" ry="3" style="stroke: #038048; stroke-width: 1.0;"/><text fill="#000000" font-family="sans-serif" font-size="11" lengthAdjust="spacingAndGlyphs" textLength="67" x="480" y="1060.0386">all_entries()</text><ellipse cx="471" cy="1069.6328" fill="#84BE84" rx="3" ry="3" style="stroke: #038048; stroke-width: 1.0;"/><text fill="#000000" font-family="sans-serif" font-size="11" lengthAdjust="spacingAndGlyphs" textLength="115" x="480" y="1072.8433">find_entry_by_addr()</text><!--MD5=[3fca9ef70a2ef9de328f98020951ee1d]
class RegisterEntry--><rect fill="#FEFECE" filter="url(#f2hbekmuo35hx)" height="124.8281" id="RegisterEntry" style="stroke: #A80036; stroke-width: 1.5;" width="116" x="494" y="1140"/><ellipse cx="509" cy="1156" fill="#ADD1B2" rx="11" ry="11" style="stroke: #A80036; stroke-width: 1.0;"/><path d="M511.9688,1161.6406 Q511.3906,1161.9375 510.75,1162.0781 Q510.1094,1162.2344 509.4063,1162.2344 Q506.9063,1162.2344 505.5781,1160.5938 Q504.2656,1158.9375 504.2656,1155.8125 Q504.2656,1152.6875 505.5781,1151.0313 Q506.9063,1149.375 509.4063,1149.375 Q510.1094,1149.375 510.75,1149.5313 Q511.4063,1149.6875 511.9688,1149.9844 L511.9688,1152.7031 Q511.3438,1152.125 510.75,1151.8594 Q510.1563,1151.5781 509.5313,1151.5781 Q508.1875,1151.5781 507.5,1152.6563 Q506.8125,1153.7188 506.8125,1155.8125 Q506.8125,1157.9063 507.5,1158.9844 Q508.1875,1160.0469 509.5313,1160.0469 Q510.1563,1160.0469 510.75,1159.7813 Q511.3438,1159.5 511.9688,1158.9219 L511.9688,1161.6406 Z "/><text fill="#000000" font-family="sans-serif" font-size="12" lengthAdjust="spacingAndGlyphs" textLength="84" x="523" y="1160.1543">RegisterEntry</text><line style="stroke: #A80036; stroke-width: 1.5;" x1="495" x2="609" y1="1172" y2="1172"/><rect fill="none" height="6" style="stroke: #C82930; stroke-width: 1.0;" width="6" x="502" y="1180"/><text fill="#000000" font-family="sans-serif" font-size="11" lengthAdjust="spacingAndGlyphs" textLength="48" x="514" y="1186.2104">addr: int</text><rect fill="none" height="6" style="stroke: #C82930; stroke-width: 1.0;" width="6" x="502" y="1192.8047"/><text fill="#000000" font-family="sans-serif" font-size="11" lengthAdjust="spacingAndGlyphs" textLength="73" x="514" y="1199.0151">reg_type: str</text><rect fill="none" height="6" style="stroke: #C82930; stroke-width: 1.0;" width="6" x="502" y="1205.6094"/><text fill="#000000" font-family="sans-serif" font-size="11" lengthAdjust="spacingAndGlyphs" textLength="52" x="514" y="1211.8198">value: int</text><rect fill="none" height="6" style="stroke: #C82930; stroke-width: 1.0;" width="6" x="502" y="1218.4141"/><text fill="#000000" font-family="sans-serif" font-size="11" lengthAdjust="spacingAndGlyphs" textLength="51" x="514" y="1224.6245">alias: str</text><rect fill="none" height="6" style="stroke: #C82930; stroke-width: 1.0;" width="6" x="502" y="1231.2188"/><text fill="#000000" font-family="sans-serif" font-size="11" lengthAdjust="spacingAndGlyphs" textLength="77" x="514" y="1237.4292">comment: str</text><rect fill="none" height="6" style="stroke: #C82930; stroke-width: 1.0;" width="6" x="502" y="1244.0234"/><text fill="#000000" font-family="sans-serif" font-size="11" lengthAdjust="spacingAndGlyphs" textLength="52" x="514" y="1250.2339">units: str</text><line style="stroke: #A80036; stroke-width: 1.5;" x1="495" x2="609" y1="1256.8281" y2="1256.8281"/><!--MD5=[8223f8acab3891c29daf789c1d3fdc90]
class RegisterGroupMeta--><rect fill="#FEFECE" filter="url(#f2hbekmuo35hx)" height="112.0234" id="RegisterGroupMeta" style="stroke: #A80036; stroke-width: 1.5;" width="208" x="448" y="731.5"/><ellipse cx="487.75" cy="747.5" fill="#ADD1B2" rx="11" ry="11" style="stroke: #A80036; stroke-width: 1.0;"/><path d="M490.7188,753.1406 Q490.1406,753.4375 489.5,753.5781 Q488.8594,753.7344 488.1563,753.7344 Q485.6563,753.7344 484.3281,752.0938 Q483.0156,750.4375 483.0156,747.3125 Q483.0156,744.1875 484.3281,742.5313 Q485.6563,740.875 488.1563,740.875 Q488.8594,740.875 489.5,741.0313 Q490.1563,741.1875 490.7188,741.4844 L490.7188,744.2031 Q490.0938,743.625 489.5,743.3594 Q488.9063,743.0781 488.2813,743.0781 Q486.9375,743.0781 486.25,744.1563 Q485.5625,745.2188 485.5625,747.3125 Q485.5625,749.4063 486.25,750.4844 Q486.9375,751.5469 488.2813,751.5469 Q488.9063,751.5469 489.5,751.2813 Q490.0938,751 490.7188,750.4219 L490.7188,753.1406 Z "/><text fill="#000000" font-family="sans-serif" font-size="12" lengthAdjust="spacingAndGlyphs" textLength="121" x="507.25" y="751.6543">RegisterGroupMeta</text><line style="stroke: #A80036; stroke-width: 1.5;" x1="449" x2="655" y1="763.5" y2="763.5"/><rect fill="none" height="6" style="stroke: #C82930; stroke-width: 1.0;" width="6" x="456" y="771.5"/><text fill="#000000" font-family="sans-serif" font-size="11" lengthAdjust="spacingAndGlyphs" textLength="83" x="468" y="777.7104">register_id: int</text><rect fill="none" height="6" style="stroke: #C82930; stroke-width: 1.0;" width="6" x="456" y="784.3047"/><text fill="#000000" font-family="sans-serif" font-size="11" lengthAdjust="spacingAndGlyphs" textLength="73" x="468" y="790.5151">reg_type: str</text><rect fill="none" height="6" style="stroke: #C82930; stroke-width: 1.0;" width="6" x="456" y="797.1094"/><text fill="#000000" font-family="sans-serif" font-size="11" lengthAdjust="spacingAndGlyphs" textLength="81" x="468" y="803.3198">start_addr: int</text><rect fill="none" height="6" style="stroke: #C82930; stroke-width: 1.0;" width="6" x="456" y="809.9141"/><text fill="#000000" font-family="sans-serif" font-size="11" lengthAdjust="spacingAndGlyphs" textLength="44" x="468" y="816.1245">size: int</text><rect fill="none" height="6" style="stroke: #C82930; stroke-width: 1.0;" width="6" x="456" y="822.7188"/><text fill="#000000" font-family="sans-serif" font-size="11" lengthAdjust="spacingAndGlyphs" textLength="182" x="468" y="828.9292">parent_slave_map: RegisterMap</text><line style="stroke: #A80036; stroke-width: 1.5;" x1="449" x2="655" y1="835.5234" y2="835.5234"/><!--MD5=[2974882caf0f82038974f36d201301af]
class MultiUnitModbusServerThread--><rect fill="#FEFECE" filter="url(#f2hbekmuo35hx)" height="124.8281" id="MultiUnitModbusServerThread" style="stroke: #A80036; stroke-width: 1.5;" width="367" x="712.5" y="725"/><ellipse cx="798.25" cy="741" fill="#ADD1B2" rx="11" ry="11" style="stroke: #A80036; stroke-width: 1.0;"/><path d="M801.2188,746.6406 Q800.6406,746.9375 800,747.0781 Q799.3594,747.2344 798.6563,747.2344 Q796.1563,747.2344 794.8281,745.5938 Q793.5156,743.9375 793.5156,740.8125 Q793.5156,737.6875 794.8281,736.0313 Q796.1563,734.375 798.6563,734.375 Q799.3594,734.375 800,734.5313 Q800.6563,734.6875 801.2188,734.9844 L801.2188,737.7031 Q800.5938,737.125 800,736.8594 Q799.4063,736.5781 798.7813,736.5781 Q797.4375,736.5781 796.75,737.6563 Q796.0625,738.7188 796.0625,740.8125 Q796.0625,742.9063 796.75,743.9844 Q797.4375,745.0469 798.7813,745.0469 Q799.4063,745.0469 800,744.7813 Q800.5938,744.5 801.2188,743.9219 L801.2188,746.6406 Z "/><text fill="#000000" font-family="sans-serif" font-size="12" lengthAdjust="spacingAndGlyphs" textLength="187" x="818.75" y="745.1543">MultiUnitModbusServerThread</text><line style="stroke: #A80036; stroke-width: 1.5;" x1="713.5" x2="1078.5" y1="757" y2="757"/><rect fill="none" height="6" style="stroke: #C82930; stroke-width: 1.0;" width="6" x="720.5" y="765"/><text fill="#000000" font-family="sans-serif" font-size="11" lengthAdjust="spacingAndGlyphs" textLength="45" x="732.5" y="771.2104">port: int</text><rect fill="none" height="6" style="stroke: #C82930; stroke-width: 1.0;" width="6" x="720.5" y="777.8047"/><text fill="#000000" font-family="sans-serif" font-size="11" lengthAdjust="spacingAndGlyphs" textLength="341" x="732.5" y="784.0151">unit_definitions: Dict&lt;int, Dict&lt;str, Tuple&lt;int, List&lt;int&gt;&gt;&gt;&gt;</text><ellipse cx="723.5" cy="793.6094" fill="none" rx="3" ry="3" style="stroke: #038048; stroke-width: 1.0;"/><text fill="#000000" font-family="sans-serif" font-size="11" lengthAdjust="spacingAndGlyphs" textLength="76" x="732.5" y="796.8198">status_signal</text><ellipse cx="723.5" cy="806.4141" fill="none" rx="3" ry="3" style="stroke: #038048; stroke-width: 1.0;"/><text fill="#000000" font-family="sans-serif" font-size="11" lengthAdjust="spacingAndGlyphs" textLength="69" x="732.5" y="809.6245">error_signal</text><line style="stroke: #A80036; stroke-width: 1.5;" x1="713.5" x2="1078.5" y1="816.2188" y2="816.2188"/><ellipse cx="723.5" cy="827.2188" fill="#84BE84" rx="3" ry="3" style="stroke: #038048; stroke-width: 1.0;"/><text fill="#000000" font-family="sans-serif" font-size="11" lengthAdjust="spacingAndGlyphs" textLength="35" x="732.5" y="830.4292">start()</text><ellipse cx="723.5" cy="840.0234" fill="#84BE84" rx="3" ry="3" style="stroke: #038048; stroke-width: 1.0;"/><text fill="#000000" font-family="sans-serif" font-size="11" lengthAdjust="spacingAndGlyphs" textLength="33" x="732.5" y="843.2339">stop()</text><!--MD5=[e6c809820d88acc3564faeb20394ab9d]
class MainWindow--><rect fill="#FEFECE" filter="url(#f2hbekmuo35hx)" height="156.375" id="MainWindow" style="stroke: #A80036; stroke-width: 1.5;" width="247" x="38.5" y="59"/><ellipse cx="109.75" cy="77.9688" fill="#ADD1B2" rx="11" ry="11" style="stroke: #A80036; stroke-width: 1.0;"/><path d="M112.7188,83.6094 Q112.1406,83.9063 111.5,84.0469 Q110.8594,84.2031 110.1563,84.2031 Q107.6563,84.2031 106.3281,82.5625 Q105.0156,80.9063 105.0156,77.7813 Q105.0156,74.6563 106.3281,73 Q107.6563,71.3438 110.1563,71.3438 Q110.8594,71.3438 111.5,71.5 Q112.1563,71.6563 112.7188,71.9531 L112.7188,74.6719 Q112.0938,74.0938 111.5,73.8281 Q110.9063,73.5469 110.2813,73.5469 Q108.9375,73.5469 108.25,74.625 Q107.5625,75.6875 107.5625,77.7813 Q107.5625,79.875 108.25,80.9531 Q108.9375,82.0156 110.2813,82.0156 Q110.9063,82.0156 111.5,81.75 Q112.0938,81.4688 112.7188,80.8906 L112.7188,83.6094 Z "/><text fill="#000000" font-family="sans-serif" font-size="12" font-style="italic" lengthAdjust="spacingAndGlyphs" textLength="100" x="128.25" y="75.1387">«QMainWindow»</text><text fill="#000000" font-family="sans-serif" font-size="12" lengthAdjust="spacingAndGlyphs" textLength="76" x="140.25" y="89.1074">MainWindow</text><line style="stroke: #A80036; stroke-width: 1.5;" x1="39.5" x2="284.5" y1="96.9375" y2="96.9375"/><rect fill="none" height="6" style="stroke: #C82930; stroke-width: 1.0;" width="6" x="46.5" y="104.9375"/><text fill="#000000" font-family="sans-serif" font-size="11" lengthAdjust="spacingAndGlyphs" textLength="49" x="58.5" y="111.1479">treeView</text><rect fill="none" height="6" style="stroke: #C82930; stroke-width: 1.0;" width="6" x="46.5" y="117.7422"/><text fill="#000000" font-family="sans-serif" font-size="11" lengthAdjust="spacingAndGlyphs" textLength="54" x="58.5" y="123.9526">tableView</text><rect fill="none" height="6" style="stroke: #C82930; stroke-width: 1.0;" width="6" x="46.5" y="130.5469"/><text fill="#000000" font-family="sans-serif" font-size="11" lengthAdjust="spacingAndGlyphs" textLength="191" x="58.5" y="136.7573">tree_model: QStandardItemModel</text><rect fill="none" height="6" style="stroke: #C82930; stroke-width: 1.0;" width="6" x="46.5" y="143.3516"/><text fill="#000000" font-family="sans-serif" font-size="11" lengthAdjust="spacingAndGlyphs" textLength="221" x="58.5" y="149.562">reg_table_model: QStandardItemModel</text><ellipse cx="49.5" cy="159.1563" fill="none" rx="3" ry="3" style="stroke: #038048; stroke-width: 1.0;"/><text fill="#000000" font-family="sans-serif" font-size="11" lengthAdjust="spacingAndGlyphs" textLength="12" x="58.5" y="162.3667">...</text><line style="stroke: #A80036; stroke-width: 1.5;" x1="39.5" x2="284.5" y1="168.9609" y2="168.9609"/><ellipse cx="49.5" cy="179.9609" fill="#84BE84" rx="3" ry="3" style="stroke: #038048; stroke-width: 1.0;"/><text fill="#000000" font-family="sans-serif" font-size="11" lengthAdjust="spacingAndGlyphs" textLength="128" x="58.5" y="183.1714">show_connect_dialog()</text><ellipse cx="49.5" cy="192.7656" fill="#84BE84" rx="3" ry="3" style="stroke: #038048; stroke-width: 1.0;"/><text fill="#000000" font-family="sans-serif" font-size="11" lengthAdjust="spacingAndGlyphs" textLength="96" x="58.5" y="195.9761">add_connection()</text><ellipse cx="49.5" cy="205.5703" fill="#84BE84" rx="3" ry="3" style="stroke: #038048; stroke-width: 1.0;"/><text fill="#000000" font-family="sans-serif" font-size="11" lengthAdjust="spacingAndGlyphs" textLength="157" x="58.5" y="208.7808">open_selected_connection()</text><!--MD5=[deac73c54eb3806a258924eeb8574672]
class ConnectDialog--><rect fill="#FEFECE" filter="url(#f2hbekmuo35hx)" height="79.5469" id="ConnectDialog" style="stroke: #A80036; stroke-width: 1.5;" width="123" x="100.5" y="335.5"/><ellipse cx="115.5" cy="354.4688" fill="#ADD1B2" rx="11" ry="11" style="stroke: #A80036; stroke-width: 1.0;"/><path d="M118.4688,360.1094 Q117.8906,360.4063 117.25,360.5469 Q116.6094,360.7031 115.9063,360.7031 Q113.4063,360.7031 112.0781,359.0625 Q110.7656,357.4063 110.7656,354.2813 Q110.7656,351.1563 112.0781,349.5 Q113.4063,347.8438 115.9063,347.8438 Q116.6094,347.8438 117.25,348 Q117.9063,348.1563 118.4688,348.4531 L118.4688,351.1719 Q117.8438,350.5938 117.25,350.3281 Q116.6563,350.0469 116.0313,350.0469 Q114.6875,350.0469 114,351.125 Q113.3125,352.1875 113.3125,354.2813 Q113.3125,356.375 114,357.4531 Q114.6875,358.5156 116.0313,358.5156 Q116.6563,358.5156 117.25,358.25 Q117.8438,357.9688 118.4688,357.3906 L118.4688,360.1094 Z "/><text fill="#000000" font-family="sans-serif" font-size="12" font-style="italic" lengthAdjust="spacingAndGlyphs" textLength="61" x="144.5" y="351.6387">«QDialog»</text><text fill="#000000" font-family="sans-serif" font-size="12" lengthAdjust="spacingAndGlyphs" textLength="91" x="129.5" y="365.6074">ConnectDialog</text><line style="stroke: #A80036; stroke-width: 1.5;" x1="101.5" x2="222.5" y1="373.4375" y2="373.4375"/><rect fill="none" height="6" style="stroke: #C82930; stroke-width: 1.0;" width="6" x="108.5" y="381.4375"/><text fill="#000000" font-family="sans-serif" font-size="11" lengthAdjust="spacingAndGlyphs" textLength="75" x="120.5" y="387.6479">settings: Dict</text><line style="stroke: #A80036; stroke-width: 1.5;" x1="101.5" x2="222.5" y1="394.2422" y2="394.2422"/><ellipse cx="111.5" cy="405.2422" fill="#84BE84" rx="3" ry="3" style="stroke: #038048; stroke-width: 1.0;"/><text fill="#000000" font-family="sans-serif" font-size="11" lengthAdjust="spacingAndGlyphs" textLength="41" x="120.5" y="408.4526">on_ok()</text><!--MD5=[c84db9bad31673e9ff0acbd6cec797bb]
link ModbusDevice to ModbusSlave--><path d="M445.87,438.26 C447.01,462.81 448.32,490.84 449.43,514.71 " fill="none" id="ModbusDevice-ModbusSlave" style="stroke: #A80036; stroke-width: 1.0;"/><text fill="#000000" font-family="sans-serif" font-size="13" lengthAdjust="spacingAndGlyphs" textLength="40" x="449" y="481.0669">slaves</text><text fill="#000000" font-family="sans-serif" font-size="13" lengthAdjust="spacingAndGlyphs" textLength="8" x="437.7464" y="458.0282">1</text><text fill="#000000" font-family="sans-serif" font-size="13" lengthAdjust="spacingAndGlyphs" textLength="23" x="424.7152" y="504.0092">0..*</text><!--MD5=[2ba8dc456d4e4678a62496a7cf1476fe]
link ModbusSlave to RegisterMap--><path d="M416.96,627.05 C407.99,644.01 399.58,663.19 395,682 C374.8,764.91 358.54,796.85 395,874 C409.17,903.98 434.1,929.34 459.98,949.42 " fill="none" id="ModbusSlave-RegisterMap" style="stroke: #A80036; stroke-width: 1.0;"/><text fill="#000000" font-family="sans-serif" font-size="13" lengthAdjust="spacingAndGlyphs" textLength="34" x="396" y="792.0669">holds</text><text fill="#000000" font-family="sans-serif" font-size="13" lengthAdjust="spacingAndGlyphs" textLength="8" x="403.958" y="647.2662">1</text><text fill="#000000" font-family="sans-serif" font-size="13" lengthAdjust="spacingAndGlyphs" textLength="8" x="444.0283" y="941.3333">1</text><!--MD5=[d8b2d1fea99c6308fd552648f9f28757]
link ModbusSlave to RegisterGroupMeta--><path d="M477.75,627.24 C492.68,659.26 511.42,699.45 526.33,731.45 " fill="none" id="ModbusSlave-RegisterGroupMeta" style="stroke: #A80036; stroke-width: 1.0;"/><text fill="#000000" font-family="sans-serif" font-size="13" lengthAdjust="spacingAndGlyphs" textLength="74" x="500" y="670.0669">tree groups</text><text fill="#000000" font-family="sans-serif" font-size="13" lengthAdjust="spacingAndGlyphs" textLength="8" x="472.4008" y="647.0819">1</text><text fill="#000000" font-family="sans-serif" font-size="13" lengthAdjust="spacingAndGlyphs" textLength="23" x="498.5676" y="720.3816">0..*</text><!--MD5=[31316f6d5e253eccf9d58f541a495a37]
link RegisterMap to RegisterEntry--><path d="M552,1079.01 C552,1099.03 552,1120.48 552,1139.74 " fill="none" id="RegisterMap-RegisterEntry" style="stroke: #A80036; stroke-width: 1.0;"/><text fill="#000000" font-family="sans-serif" font-size="13" lengthAdjust="spacingAndGlyphs" textLength="8" x="543.5875" y="1099.57">1</text><text fill="#000000" font-family="sans-serif" font-size="13" lengthAdjust="spacingAndGlyphs" textLength="23" x="527.7422" y="1129.1389">0..*</text><!--MD5=[43942f519d931b297f00f3f2ed602c9d]
link RegisterGroupMeta to RegisterMap--><path d="M552,843.74 C552,868.06 552,897.09 552,923.66 " fill="none" id="RegisterGroupMeta-&gt;RegisterMap" style="stroke: #A80036; stroke-width: 1.0; stroke-dasharray: 7.0,7.0;"/><polygon fill="#A80036" points="552,928.94,556,919.94,552,923.94,548,919.94,552,928.94" style="stroke: #A80036; stroke-width: 1.0;"/><text fill="#000000" font-family="sans-serif" font-size="13" lengthAdjust="spacingAndGlyphs" textLength="42" x="553" y="895.0669">parent</text><text fill="#000000" font-family="sans-serif" font-size="13" lengthAdjust="spacingAndGlyphs" textLength="8" x="543.5125" y="863.5819">1</text><!--MD5=[27c1a5d4fc911efe14fd4aa184588e24]
link MainWindow to ModbusDevice--><path d="M253.62,215.11 C289.79,245.55 330.89,280.15 365.54,309.31 " fill="none" id="MainWindow-&gt;ModbusDevice" style="stroke: #A80036; stroke-width: 1.0; stroke-dasharray: 7.0,7.0;"/><polygon fill="#A80036" points="369.73,312.84,365.4284,303.9802,365.9077,309.6167,360.2711,310.0959,369.73,312.84" style="stroke: #A80036; stroke-width: 1.0;"/><text fill="#000000" font-family="sans-serif" font-size="13" lengthAdjust="spacingAndGlyphs" textLength="60" x="303" y="258.0669">manages</text><!--MD5=[3ddc840d4f8345f6e8e6c549885c04c6]
link MainWindow to MultiUnitModbusServerThread--><path d="M285.57,140.28 C398.43,148.64 563.73,177.43 672,270 C810.75,388.64 866.28,609.12 886.16,719.67 " fill="none" id="MainWindow-&gt;MultiUnitModbusServerThread" style="stroke: #A80036; stroke-width: 1.0; stroke-dasharray: 7.0,7.0;"/><polygon fill="#A80036" points="887.08,724.85,889.4519,715.291,886.2094,719.9264,881.5741,716.6839,887.08,724.85" style="stroke: #A80036; stroke-width: 1.0;"/><text fill="#000000" font-family="sans-serif" font-size="13" lengthAdjust="spacingAndGlyphs" textLength="76" x="817" y="481.0669">starts/stops</text><!--MD5=[d7546d094a83d48ee18444304e54b978]
link MainWindow to ConnectDialog--><path d="M162,215.11 C162,253.24 162,297.89 162,330.22 " fill="none" id="MainWindow-&gt;ConnectDialog" style="stroke: #A80036; stroke-width: 1.0; stroke-dasharray: 7.0,7.0;"/><polygon fill="#A80036" points="162,335.29,166,326.29,162,330.29,158,326.29,162,335.29" style="stroke: #A80036; stroke-width: 1.0;"/><text fill="#000000" font-family="sans-serif" font-size="13" lengthAdjust="spacingAndGlyphs" textLength="30" x="163" y="258.0669">uses</text><!--MD5=[bc0cfa89ef1bccd3f953985aec77276c]
link MultiUnitModbusServerThread to RegisterMap--><path d="M796.96,850.25 C750.33,879.33 694.92,913.88 648.61,942.76 " fill="none" id="MultiUnitModbusServerThread-&gt;RegisterMap" style="stroke: #A80036; stroke-width: 1.0; stroke-dasharray: 7.0,7.0;"/><polygon fill="#A80036" points="644.15,945.54,653.9041,944.1768,648.394,942.8964,649.6743,937.3864,644.15,945.54" style="stroke: #A80036; stroke-width: 1.0;"/><text fill="#000000" font-family="sans-serif" font-size="13" lengthAdjust="spacingAndGlyphs" textLength="143" x="745" y="895.0669">uses as value provider</text><!--MD5=[7096e5ff7375b7b16f341dec4b84fe18]
@startuml
package "modbusx.core" {
    class ModbusDevice {
        - address: str
        - port: int
        - is_open: bool
        - slaves: List<ModbusSlave>
        + add_slave()
        + remove_slave()
    }

    class ModbusSlave {
        - slave_id: int
        - register_map: RegisterMap
        - groups: List<RegisterGroupMeta>
        + add_register_group()
        + remove_register_group()
    }
    class RegisterMap {
        - hr: Dict<int, RegisterEntry>
        - ir: Dict<int, RegisterEntry>
        - co: Dict<int, RegisterEntry>
        - di: Dict<int, RegisterEntry>
        + add_block()
        + as_pymodbus_array()
        + all_entries()
        + find_entry_by_addr()
    }
    class RegisterEntry {
        - addr: int
        - reg_type: str
        - value: int
        - alias: str
        - comment: str
        - units: str
    }
    class RegisterGroupMeta {
        - register_id: int
        - reg_type: str
        - start_addr: int
        - size: int
        - parent_slave_map: RegisterMap
    }
}

package "modbusx.slave_server" {
    class MultiUnitModbusServerThread {
        - port: int
        - unit_definitions: Dict<int, Dict<str, Tuple<int, List<int>>>>
        + start()
        + stop()
        + status_signal
        + error_signal
    }
}

package "modbusx.ui" {
    class MainWindow <<QMainWindow>> {
        - treeView
        - tableView
        - tree_model: QStandardItemModel
        - reg_table_model: QStandardItemModel
        + show_connect_dialog()
        + add_connection()
        + open_selected_connection()
        + ...
    }
    class ConnectDialog <<QDialog>> {
        - settings: Dict
        + on_ok()
    }
}

ModbusDevice "1" - - "0..*" ModbusSlave : slaves
ModbusSlave "1" - - "1" RegisterMap : "holds"
ModbusSlave "1" - - "0..*" RegisterGroupMeta : "tree groups"
RegisterMap "1" - - "0..*" RegisterEntry
RegisterGroupMeta "1" ..> RegisterMap : parent

MainWindow ..> ModbusDevice : manages
MainWindow ..> MultiUnitModbusServerThread : starts/stops
MainWindow ..> ConnectDialog : uses

MultiUnitModbusServerThread ..> RegisterMap : uses as value provider

@enduml

PlantUML version 1.2020.02(Sun Mar 01 10:22:07 UTC 2020)
(GPL source distribution)
Java Runtime: OpenJDK Runtime Environment
JVM: OpenJDK 64-Bit Server VM
Java Version: 17.0.15+6
Operating System: Linux
Default Encoding: UTF-8
Language: en
Country: null
--></g></svg>