<?xml version="1.0" encoding="UTF-8" standalone="no"?><svg xmlns="http://www.w3.org/2000/svg" xmlns:xlink="http://www.w3.org/1999/xlink" contentScriptType="application/ecmascript" contentStyleType="text/css" height="955px" preserveAspectRatio="none" style="width:973px;height:955px;" version="1.1" viewBox="0 0 973 955" width="973px" zoomAndPan="magnify"><defs><filter height="300%" id="f5xtizyhqfwjd" width="300%" x="-1" y="-1"><feGaussianBlur result="blurOut" stdDeviation="2.0"/><feColorMatrix in="blurOut" result="blurOut2" type="matrix" values="0 0 0 0 0 0 0 0 0 0 0 0 0 0 0 0 0 0 .4 0"/><feOffset dx="4.0" dy="4.0" in="blurOut2" result="blurOut3"/><feBlend in="SourceGraphic" in2="blurOut3" mode="normal"/></filter></defs><g><!--MD5=[72dcf0a49a0394e6b0aa3af6fdf99c13]
cluster modbusx.register_map--><polygon fill="#FFFFFF" filter="url(#f5xtizyhqfwjd)" points="484,767,670,767,677,789.2969,951,789.2969,951,943,484,943,484,767" style="stroke: #000000; stroke-width: 1.5;"/><line style="stroke: #000000; stroke-width: 1.5;" x1="484" x2="677" y1="789.2969" y2="789.2969"/><text fill="#000000" font-family="sans-serif" font-size="14" font-weight="bold" lengthAdjust="spacingAndGlyphs" textLength="180" x="488" y="781.9951">modbusx.register_map</text><!--MD5=[452d2663452b87d92925cbd0d92bb93e]
cluster modbusx.logger--><polygon fill="#FFFFFF" filter="url(#f5xtizyhqfwjd)" points="22,24,156,24,163,46.2969,240,46.2969,240,149,22,149,22,24" style="stroke: #000000; stroke-width: 1.5;"/><line style="stroke: #000000; stroke-width: 1.5;" x1="22" x2="163" y1="46.2969" y2="46.2969"/><text fill="#000000" font-family="sans-serif" font-size="14" font-weight="bold" lengthAdjust="spacingAndGlyphs" textLength="128" x="26" y="38.9951">modbusx.logger</text><!--MD5=[7ef9e58f00d373e599000d0897adedd9]
cluster modbusx.slave_server--><polygon fill="#FFFFFF" filter="url(#f5xtizyhqfwjd)" points="538,504,721,504,728,526.2969,790,526.2969,790,718,538,718,538,504" style="stroke: #000000; stroke-width: 1.5;"/><line style="stroke: #000000; stroke-width: 1.5;" x1="538" x2="728" y1="526.2969" y2="526.2969"/><text fill="#000000" font-family="sans-serif" font-size="14" font-weight="bold" lengthAdjust="spacingAndGlyphs" textLength="177" x="542" y="518.9951">modbusx.slave_server</text><!--MD5=[492e4d9c7faa369b58f08476c9ca47ae]
cluster modbusx.ui--><polygon fill="#FFFFFF" filter="url(#f5xtizyhqfwjd)" points="35,198,132,198,139,220.2969,514,220.2969,514,676.5,35,676.5,35,198" style="stroke: #000000; stroke-width: 1.5;"/><line style="stroke: #000000; stroke-width: 1.5;" x1="35" x2="139" y1="220.2969" y2="220.2969"/><text fill="#000000" font-family="sans-serif" font-size="14" font-weight="bold" lengthAdjust="spacingAndGlyphs" textLength="91" x="39" y="212.9951">modbusx.ui</text><!--MD5=[3fca9ef70a2ef9de328f98020951ee1d]
class RegisterEntry--><rect fill="#FEFECE" filter="url(#f5xtizyhqfwjd)" height="124.8281" id="RegisterEntry" style="stroke: #A80036; stroke-width: 1.5;" width="116" x="819" y="802"/><ellipse cx="834" cy="818" fill="#ADD1B2" rx="11" ry="11" style="stroke: #A80036; stroke-width: 1.0;"/><path d="M836.9688,823.6406 Q836.3906,823.9375 835.75,824.0781 Q835.1094,824.2344 834.4063,824.2344 Q831.9063,824.2344 830.5781,822.5938 Q829.2656,820.9375 829.2656,817.8125 Q829.2656,814.6875 830.5781,813.0313 Q831.9063,811.375 834.4063,811.375 Q835.1094,811.375 835.75,811.5313 Q836.4063,811.6875 836.9688,811.9844 L836.9688,814.7031 Q836.3438,814.125 835.75,813.8594 Q835.1563,813.5781 834.5313,813.5781 Q833.1875,813.5781 832.5,814.6563 Q831.8125,815.7188 831.8125,817.8125 Q831.8125,819.9063 832.5,820.9844 Q833.1875,822.0469 834.5313,822.0469 Q835.1563,822.0469 835.75,821.7813 Q836.3438,821.5 836.9688,820.9219 L836.9688,823.6406 Z "/><text fill="#000000" font-family="sans-serif" font-size="12" lengthAdjust="spacingAndGlyphs" textLength="84" x="848" y="822.1543">RegisterEntry</text><line style="stroke: #A80036; stroke-width: 1.5;" x1="820" x2="934" y1="834" y2="834"/><rect fill="none" height="6" style="stroke: #C82930; stroke-width: 1.0;" width="6" x="827" y="842"/><text fill="#000000" font-family="sans-serif" font-size="11" lengthAdjust="spacingAndGlyphs" textLength="48" x="839" y="848.2104">addr: int</text><rect fill="none" height="6" style="stroke: #C82930; stroke-width: 1.0;" width="6" x="827" y="854.8047"/><text fill="#000000" font-family="sans-serif" font-size="11" lengthAdjust="spacingAndGlyphs" textLength="73" x="839" y="861.0151">reg_type: str</text><rect fill="none" height="6" style="stroke: #C82930; stroke-width: 1.0;" width="6" x="827" y="867.6094"/><text fill="#000000" font-family="sans-serif" font-size="11" lengthAdjust="spacingAndGlyphs" textLength="52" x="839" y="873.8198">value: int</text><rect fill="none" height="6" style="stroke: #C82930; stroke-width: 1.0;" width="6" x="827" y="880.4141"/><text fill="#000000" font-family="sans-serif" font-size="11" lengthAdjust="spacingAndGlyphs" textLength="51" x="839" y="886.6245">alias: str</text><rect fill="none" height="6" style="stroke: #C82930; stroke-width: 1.0;" width="6" x="827" y="893.2188"/><text fill="#000000" font-family="sans-serif" font-size="11" lengthAdjust="spacingAndGlyphs" textLength="77" x="839" y="899.4292">comment: str</text><rect fill="none" height="6" style="stroke: #C82930; stroke-width: 1.0;" width="6" x="827" y="906.0234"/><text fill="#000000" font-family="sans-serif" font-size="11" lengthAdjust="spacingAndGlyphs" textLength="52" x="839" y="912.2339">units: str</text><line style="stroke: #A80036; stroke-width: 1.5;" x1="820" x2="934" y1="918.8281" y2="918.8281"/><!--MD5=[47fd31e44963e5371520282aaaf72b3e]
class RegisterMap--><rect fill="#FEFECE" filter="url(#f5xtizyhqfwjd)" height="112.0234" id="RegisterMap" style="stroke: #A80036; stroke-width: 1.5;" width="283" x="500.5" y="808.5"/><ellipse cx="598.75" cy="824.5" fill="#ADD1B2" rx="11" ry="11" style="stroke: #A80036; stroke-width: 1.0;"/><path d="M601.7188,830.1406 Q601.1406,830.4375 600.5,830.5781 Q599.8594,830.7344 599.1563,830.7344 Q596.6563,830.7344 595.3281,829.0938 Q594.0156,827.4375 594.0156,824.3125 Q594.0156,821.1875 595.3281,819.5313 Q596.6563,817.875 599.1563,817.875 Q599.8594,817.875 600.5,818.0313 Q601.1563,818.1875 601.7188,818.4844 L601.7188,821.2031 Q601.0938,820.625 600.5,820.3594 Q599.9063,820.0781 599.2813,820.0781 Q597.9375,820.0781 597.25,821.1563 Q596.5625,822.2188 596.5625,824.3125 Q596.5625,826.4063 597.25,827.4844 Q597.9375,828.5469 599.2813,828.5469 Q599.9063,828.5469 600.5,828.2813 Q601.0938,828 601.7188,827.4219 L601.7188,830.1406 Z "/><text fill="#000000" font-family="sans-serif" font-size="12" lengthAdjust="spacingAndGlyphs" textLength="78" x="619.25" y="828.6543">RegisterMap</text><line style="stroke: #A80036; stroke-width: 1.5;" x1="501.5" x2="782.5" y1="840.5" y2="840.5"/><line style="stroke: #A80036; stroke-width: 1.5;" x1="501.5" x2="782.5" y1="848.5" y2="848.5"/><ellipse cx="511.5" cy="859.5" fill="#84BE84" rx="3" ry="3" style="stroke: #038048; stroke-width: 1.0;"/><text fill="#000000" font-family="sans-serif" font-size="11" lengthAdjust="spacingAndGlyphs" textLength="236" x="520.5" y="862.7104">add_block(type, start, size, default_value)</text><ellipse cx="511.5" cy="872.3047" fill="#84BE84" rx="3" ry="3" style="stroke: #038048; stroke-width: 1.0;"/><text fill="#000000" font-family="sans-serif" font-size="11" lengthAdjust="spacingAndGlyphs" textLength="247" x="520.5" y="875.5151">as_pymodbus_array(type): (start_addr, arr)</text><ellipse cx="511.5" cy="885.1094" fill="#84BE84" rx="3" ry="3" style="stroke: #038048; stroke-width: 1.0;"/><text fill="#000000" font-family="sans-serif" font-size="11" lengthAdjust="spacingAndGlyphs" textLength="257" x="520.5" y="888.3198">find_entry_by_addr(type, addr): RegisterEntry</text><ellipse cx="511.5" cy="897.9141" fill="#84BE84" rx="3" ry="3" style="stroke: #038048; stroke-width: 1.0;"/><text fill="#000000" font-family="sans-serif" font-size="11" lengthAdjust="spacingAndGlyphs" textLength="213" x="520.5" y="901.1245">all_entries(type): List&lt;RegisterEntry&gt;</text><ellipse cx="511.5" cy="910.7188" fill="#84BE84" rx="3" ry="3" style="stroke: #038048; stroke-width: 1.0;"/><text fill="#000000" font-family="sans-serif" font-size="11" lengthAdjust="spacingAndGlyphs" textLength="77" x="520.5" y="913.9292">to_meta_list()</text><!--MD5=[248f897e4bb16c2722904b15df30346f]
class Logger--><rect fill="#FEFECE" filter="url(#f5xtizyhqfwjd)" height="73.6094" id="Logger" style="stroke: #A80036; stroke-width: 1.5;" width="186" x="38" y="59"/><ellipse cx="105.25" cy="75" fill="#ADD1B2" rx="11" ry="11" style="stroke: #A80036; stroke-width: 1.0;"/><path d="M108.2188,80.6406 Q107.6406,80.9375 107,81.0781 Q106.3594,81.2344 105.6563,81.2344 Q103.1563,81.2344 101.8281,79.5938 Q100.5156,77.9375 100.5156,74.8125 Q100.5156,71.6875 101.8281,70.0313 Q103.1563,68.375 105.6563,68.375 Q106.3594,68.375 107,68.5313 Q107.6563,68.6875 108.2188,68.9844 L108.2188,71.7031 Q107.5938,71.125 107,70.8594 Q106.4063,70.5781 105.7813,70.5781 Q104.4375,70.5781 103.75,71.6563 Q103.0625,72.7188 103.0625,74.8125 Q103.0625,76.9063 103.75,77.9844 Q104.4375,79.0469 105.7813,79.0469 Q106.4063,79.0469 107,78.7813 Q107.5938,78.5 108.2188,77.9219 L108.2188,80.6406 Z "/><text fill="#000000" font-family="sans-serif" font-size="12" lengthAdjust="spacingAndGlyphs" textLength="43" x="125.75" y="79.1543">Logger</text><line style="stroke: #A80036; stroke-width: 1.5;" x1="39" x2="223" y1="91" y2="91"/><ellipse cx="49" cy="102" fill="none" rx="3" ry="3" style="stroke: #038048; stroke-width: 1.0;"/><text fill="#000000" font-family="sans-serif" font-size="11" lengthAdjust="spacingAndGlyphs" textLength="160" x="58" y="105.2104">message_signal: pyqtSignal</text><line style="stroke: #A80036; stroke-width: 1.5;" x1="39" x2="223" y1="111.8047" y2="111.8047"/><ellipse cx="49" cy="122.8047" fill="#84BE84" rx="3" ry="3" style="stroke: #038048; stroke-width: 1.0;"/><text fill="#000000" font-family="sans-serif" font-size="11" lengthAdjust="spacingAndGlyphs" textLength="74" x="58" y="126.0151">log(msg: str)</text><!--MD5=[2974882caf0f82038974f36d201301af]
class MultiUnitModbusServerThread--><rect fill="#FEFECE" filter="url(#f5xtizyhqfwjd)" height="163.2422" id="MultiUnitModbusServerThread" style="stroke: #A80036; stroke-width: 1.5;" width="219" x="554.5" y="539"/><ellipse cx="569.5" cy="555" fill="#ADD1B2" rx="11" ry="11" style="stroke: #A80036; stroke-width: 1.0;"/><path d="M572.4688,560.6406 Q571.8906,560.9375 571.25,561.0781 Q570.6094,561.2344 569.9063,561.2344 Q567.4063,561.2344 566.0781,559.5938 Q564.7656,557.9375 564.7656,554.8125 Q564.7656,551.6875 566.0781,550.0313 Q567.4063,548.375 569.9063,548.375 Q570.6094,548.375 571.25,548.5313 Q571.9063,548.6875 572.4688,548.9844 L572.4688,551.7031 Q571.8438,551.125 571.25,550.8594 Q570.6563,550.5781 570.0313,550.5781 Q568.6875,550.5781 568,551.6563 Q567.3125,552.7188 567.3125,554.8125 Q567.3125,556.9063 568,557.9844 Q568.6875,559.0469 570.0313,559.0469 Q570.6563,559.0469 571.25,558.7813 Q571.8438,558.5 572.4688,557.9219 L572.4688,560.6406 Z "/><text fill="#000000" font-family="sans-serif" font-size="12" lengthAdjust="spacingAndGlyphs" textLength="187" x="583.5" y="559.1543">MultiUnitModbusServerThread</text><line style="stroke: #A80036; stroke-width: 1.5;" x1="555.5" x2="772.5" y1="571" y2="571"/><rect fill="none" height="6" style="stroke: #C82930; stroke-width: 1.0;" width="6" x="562.5" y="579"/><text fill="#000000" font-family="sans-serif" font-size="11" lengthAdjust="spacingAndGlyphs" textLength="45" x="574.5" y="585.2104">port: int</text><rect fill="none" height="6" style="stroke: #C82930; stroke-width: 1.0;" width="6" x="562.5" y="591.8047"/><text fill="#000000" font-family="sans-serif" font-size="11" lengthAdjust="spacingAndGlyphs" textLength="114" x="574.5" y="598.0151">unit_definitions: dict</text><rect fill="none" height="6" style="stroke: #C82930; stroke-width: 1.0;" width="6" x="562.5" y="604.6094"/><text fill="#000000" font-family="sans-serif" font-size="11" lengthAdjust="spacingAndGlyphs" textLength="24" x="574.5" y="610.8198">loop</text><rect fill="none" height="6" style="stroke: #C82930; stroke-width: 1.0;" width="6" x="562.5" y="617.4141"/><text fill="#000000" font-family="sans-serif" font-size="11" lengthAdjust="spacingAndGlyphs" textLength="43" x="574.5" y="623.6245">_server</text><ellipse cx="565.5" cy="633.2188" fill="none" rx="3" ry="3" style="stroke: #038048; stroke-width: 1.0;"/><text fill="#000000" font-family="sans-serif" font-size="11" lengthAdjust="spacingAndGlyphs" textLength="143" x="574.5" y="636.4292">status_signal: pyqtSignal</text><ellipse cx="565.5" cy="646.0234" fill="none" rx="3" ry="3" style="stroke: #038048; stroke-width: 1.0;"/><text fill="#000000" font-family="sans-serif" font-size="11" lengthAdjust="spacingAndGlyphs" textLength="136" x="574.5" y="649.2339">error_signal: pyqtSignal</text><line style="stroke: #A80036; stroke-width: 1.5;" x1="555.5" x2="772.5" y1="655.8281" y2="655.8281"/><ellipse cx="565.5" cy="666.8281" fill="#84BE84" rx="3" ry="3" style="stroke: #038048; stroke-width: 1.0;"/><text fill="#000000" font-family="sans-serif" font-size="11" lengthAdjust="spacingAndGlyphs" textLength="35" x="574.5" y="670.0386">start()</text><ellipse cx="565.5" cy="679.6328" fill="#84BE84" rx="3" ry="3" style="stroke: #038048; stroke-width: 1.0;"/><text fill="#000000" font-family="sans-serif" font-size="11" lengthAdjust="spacingAndGlyphs" textLength="33" x="574.5" y="682.8433">stop()</text><ellipse cx="565.5" cy="692.4375" fill="#84BE84" rx="3" ry="3" style="stroke: #038048; stroke-width: 1.0;"/><text fill="#000000" font-family="sans-serif" font-size="11" lengthAdjust="spacingAndGlyphs" textLength="27" x="574.5" y="695.6479">run()</text><!--MD5=[e6c809820d88acc3564faeb20394ab9d]
class MainWindow--><rect fill="#FEFECE" filter="url(#f5xtizyhqfwjd)" height="207.5938" id="MainWindow" style="stroke: #A80036; stroke-width: 1.5;" width="247" x="51.5" y="233"/><ellipse cx="122.75" cy="251.9688" fill="#ADD1B2" rx="11" ry="11" style="stroke: #A80036; stroke-width: 1.0;"/><path d="M125.7188,257.6094 Q125.1406,257.9063 124.5,258.0469 Q123.8594,258.2031 123.1563,258.2031 Q120.6563,258.2031 119.3281,256.5625 Q118.0156,254.9063 118.0156,251.7813 Q118.0156,248.6563 119.3281,247 Q120.6563,245.3438 123.1563,245.3438 Q123.8594,245.3438 124.5,245.5 Q125.1563,245.6563 125.7188,245.9531 L125.7188,248.6719 Q125.0938,248.0938 124.5,247.8281 Q123.9063,247.5469 123.2813,247.5469 Q121.9375,247.5469 121.25,248.625 Q120.5625,249.6875 120.5625,251.7813 Q120.5625,253.875 121.25,254.9531 Q121.9375,256.0156 123.2813,256.0156 Q123.9063,256.0156 124.5,255.75 Q125.0938,255.4688 125.7188,254.8906 L125.7188,257.6094 Z "/><text fill="#000000" font-family="sans-serif" font-size="12" font-style="italic" lengthAdjust="spacingAndGlyphs" textLength="100" x="141.25" y="249.1387">«QMainWindow»</text><text fill="#000000" font-family="sans-serif" font-size="12" lengthAdjust="spacingAndGlyphs" textLength="76" x="153.25" y="263.1074">MainWindow</text><line style="stroke: #A80036; stroke-width: 1.5;" x1="52.5" x2="297.5" y1="270.9375" y2="270.9375"/><rect fill="none" height="6" style="stroke: #C82930; stroke-width: 1.0;" width="6" x="59.5" y="278.9375"/><text fill="#000000" font-family="sans-serif" font-size="11" lengthAdjust="spacingAndGlyphs" textLength="118" x="71.5" y="285.1479">treeView: QTreeView</text><rect fill="none" height="6" style="stroke: #C82930; stroke-width: 1.0;" width="6" x="59.5" y="291.7422"/><text fill="#000000" font-family="sans-serif" font-size="11" lengthAdjust="spacingAndGlyphs" textLength="191" x="71.5" y="297.9526">tree_model: QStandardItemModel</text><rect fill="none" height="6" style="stroke: #C82930; stroke-width: 1.0;" width="6" x="59.5" y="304.5469"/><text fill="#000000" font-family="sans-serif" font-size="11" lengthAdjust="spacingAndGlyphs" textLength="221" x="71.5" y="310.7573">reg_table_model: QStandardItemModel</text><text fill="#000000" font-family="sans-serif" font-size="11" lengthAdjust="spacingAndGlyphs" textLength="12" x="71.5" y="323.562">...</text><line style="stroke: #A80036; stroke-width: 1.5;" x1="52.5" x2="297.5" y1="330.1563" y2="330.1563"/><ellipse cx="62.5" cy="341.1563" fill="#84BE84" rx="3" ry="3" style="stroke: #038048; stroke-width: 1.0;"/><text fill="#000000" font-family="sans-serif" font-size="11" lengthAdjust="spacingAndGlyphs" textLength="128" x="71.5" y="344.3667">show_connect_dialog()</text><ellipse cx="62.5" cy="353.9609" fill="#84BE84" rx="3" ry="3" style="stroke: #038048; stroke-width: 1.0;"/><text fill="#000000" font-family="sans-serif" font-size="11" lengthAdjust="spacingAndGlyphs" textLength="96" x="71.5" y="357.1714">add_connection()</text><ellipse cx="62.5" cy="366.7656" fill="#84BE84" rx="3" ry="3" style="stroke: #038048; stroke-width: 1.0;"/><text fill="#000000" font-family="sans-serif" font-size="11" lengthAdjust="spacingAndGlyphs" textLength="157" x="71.5" y="369.9761">open_selected_connection()</text><ellipse cx="62.5" cy="379.5703" fill="#84BE84" rx="3" ry="3" style="stroke: #038048; stroke-width: 1.0;"/><text fill="#000000" font-family="sans-serif" font-size="11" lengthAdjust="spacingAndGlyphs" textLength="159" x="71.5" y="382.7808">close_selected_connection()</text><ellipse cx="62.5" cy="392.375" fill="#84BE84" rx="3" ry="3" style="stroke: #038048; stroke-width: 1.0;"/><text fill="#000000" font-family="sans-serif" font-size="11" lengthAdjust="spacingAndGlyphs" textLength="203" x="71.5" y="395.5854">add_slave_to_selected_connection()</text><ellipse cx="62.5" cy="405.1797" fill="#84BE84" rx="3" ry="3" style="stroke: #038048; stroke-width: 1.0;"/><text fill="#000000" font-family="sans-serif" font-size="11" lengthAdjust="spacingAndGlyphs" textLength="194" x="71.5" y="408.3901">add_reggroup_to_selected_slave()</text><ellipse cx="62.5" cy="417.9844" fill="#84BE84" rx="3" ry="3" style="stroke: #038048; stroke-width: 1.0;"/><text fill="#000000" font-family="sans-serif" font-size="11" lengthAdjust="spacingAndGlyphs" textLength="162" x="71.5" y="421.1948">on_tree_selection_changed()</text><ellipse cx="62.5" cy="430.7891" fill="#84BE84" rx="3" ry="3" style="stroke: #038048; stroke-width: 1.0;"/><text fill="#000000" font-family="sans-serif" font-size="11" lengthAdjust="spacingAndGlyphs" textLength="133" x="71.5" y="433.9995">append_to_log_widget()</text><!--MD5=[deac73c54eb3806a258924eeb8574672]
class ConnectDialog--><rect fill="#FEFECE" filter="url(#f5xtizyhqfwjd)" height="79.5469" id="ConnectDialog" style="stroke: #A80036; stroke-width: 1.5;" width="123" x="119.5" y="580.5"/><ellipse cx="134.5" cy="599.4688" fill="#ADD1B2" rx="11" ry="11" style="stroke: #A80036; stroke-width: 1.0;"/><path d="M137.4688,605.1094 Q136.8906,605.4063 136.25,605.5469 Q135.6094,605.7031 134.9063,605.7031 Q132.4063,605.7031 131.0781,604.0625 Q129.7656,602.4063 129.7656,599.2813 Q129.7656,596.1563 131.0781,594.5 Q132.4063,592.8438 134.9063,592.8438 Q135.6094,592.8438 136.25,593 Q136.9063,593.1563 137.4688,593.4531 L137.4688,596.1719 Q136.8438,595.5938 136.25,595.3281 Q135.6563,595.0469 135.0313,595.0469 Q133.6875,595.0469 133,596.125 Q132.3125,597.1875 132.3125,599.2813 Q132.3125,601.375 133,602.4531 Q133.6875,603.5156 135.0313,603.5156 Q135.6563,603.5156 136.25,603.25 Q136.8438,602.9688 137.4688,602.3906 L137.4688,605.1094 Z "/><text fill="#000000" font-family="sans-serif" font-size="12" font-style="italic" lengthAdjust="spacingAndGlyphs" textLength="61" x="163.5" y="596.6387">«QDialog»</text><text fill="#000000" font-family="sans-serif" font-size="12" lengthAdjust="spacingAndGlyphs" textLength="91" x="148.5" y="610.6074">ConnectDialog</text><line style="stroke: #A80036; stroke-width: 1.5;" x1="120.5" x2="241.5" y1="618.4375" y2="618.4375"/><rect fill="none" height="6" style="stroke: #C82930; stroke-width: 1.0;" width="6" x="127.5" y="626.4375"/><text fill="#000000" font-family="sans-serif" font-size="11" lengthAdjust="spacingAndGlyphs" textLength="74" x="139.5" y="632.6479">settings: dict</text><line style="stroke: #A80036; stroke-width: 1.5;" x1="120.5" x2="241.5" y1="639.2422" y2="639.2422"/><ellipse cx="130.5" cy="650.2422" fill="#84BE84" rx="3" ry="3" style="stroke: #038048; stroke-width: 1.0;"/><text fill="#000000" font-family="sans-serif" font-size="11" lengthAdjust="spacingAndGlyphs" textLength="41" x="139.5" y="653.4526">on_ok()</text><!--MD5=[0bfb372e37b75ee8e3430ba20a0d7d24]
class SlaveControl--><rect fill="#FEFECE" filter="url(#f5xtizyhqfwjd)" height="169.1797" id="SlaveControl" style="stroke: #A80036; stroke-width: 1.5;" width="164" x="334" y="252.5"/><ellipse cx="372.85" cy="271.4688" fill="#ADD1B2" rx="11" ry="11" style="stroke: #A80036; stroke-width: 1.0;"/><path d="M375.8188,277.1094 Q375.2406,277.4063 374.6,277.5469 Q373.9594,277.7031 373.2563,277.7031 Q370.7563,277.7031 369.4281,276.0625 Q368.1156,274.4063 368.1156,271.2813 Q368.1156,268.1563 369.4281,266.5 Q370.7563,264.8438 373.2563,264.8438 Q373.9594,264.8438 374.6,265 Q375.2563,265.1563 375.8188,265.4531 L375.8188,268.1719 Q375.1938,267.5938 374.6,267.3281 Q374.0063,267.0469 373.3813,267.0469 Q372.0375,267.0469 371.35,268.125 Q370.6625,269.1875 370.6625,271.2813 Q370.6625,273.375 371.35,274.4531 Q372.0375,275.5156 373.3813,275.5156 Q374.0063,275.5156 374.6,275.25 Q375.1938,274.9688 375.8188,274.3906 L375.8188,277.1094 Z "/><text fill="#000000" font-family="sans-serif" font-size="12" font-style="italic" lengthAdjust="spacingAndGlyphs" textLength="83" x="390.15" y="268.6387">«QGroupBox»</text><text fill="#000000" font-family="sans-serif" font-size="12" lengthAdjust="spacingAndGlyphs" textLength="78" x="392.65" y="282.6074">SlaveControl</text><line style="stroke: #A80036; stroke-width: 1.5;" x1="335" x2="497" y1="290.4375" y2="290.4375"/><rect fill="none" height="6" style="stroke: #C82930; stroke-width: 1.0;" width="6" x="342" y="298.4375"/><text fill="#000000" font-family="sans-serif" font-size="11" lengthAdjust="spacingAndGlyphs" textLength="38" x="354" y="304.6479">idx: int</text><rect fill="none" height="6" style="stroke: #C82930; stroke-width: 1.0;" width="6" x="342" y="311.2422"/><text fill="#000000" font-family="sans-serif" font-size="11" lengthAdjust="spacingAndGlyphs" textLength="45" x="354" y="317.4526">port: int</text><rect fill="none" height="6" style="stroke: #C82930; stroke-width: 1.0;" width="6" x="342" y="324.0469"/><text fill="#000000" font-family="sans-serif" font-size="11" lengthAdjust="spacingAndGlyphs" textLength="71" x="354" y="330.2573">address: str</text><rect fill="none" height="6" style="stroke: #C82930; stroke-width: 1.0;" width="6" x="342" y="336.8516"/><text fill="#000000" font-family="sans-serif" font-size="11" lengthAdjust="spacingAndGlyphs" textLength="80" x="354" y="343.062">unit_data: dict</text><line style="stroke: #A80036; stroke-width: 1.5;" x1="335" x2="497" y1="349.6563" y2="349.6563"/><ellipse cx="345" cy="360.6563" fill="#84BE84" rx="3" ry="3" style="stroke: #038048; stroke-width: 1.0;"/><text fill="#000000" font-family="sans-serif" font-size="11" lengthAdjust="spacingAndGlyphs" textLength="83" x="354" y="363.8667">add_unit_row()</text><ellipse cx="345" cy="373.4609" fill="#84BE84" rx="3" ry="3" style="stroke: #038048; stroke-width: 1.0;"/><text fill="#000000" font-family="sans-serif" font-size="11" lengthAdjust="spacingAndGlyphs" textLength="78" x="354" y="376.6714">start_server()</text><ellipse cx="345" cy="386.2656" fill="#84BE84" rx="3" ry="3" style="stroke: #038048; stroke-width: 1.0;"/><text fill="#000000" font-family="sans-serif" font-size="11" lengthAdjust="spacingAndGlyphs" textLength="76" x="354" y="389.4761">stop_server()</text><ellipse cx="345" cy="399.0703" fill="#84BE84" rx="3" ry="3" style="stroke: #038048; stroke-width: 1.0;"/><text fill="#000000" font-family="sans-serif" font-size="11" lengthAdjust="spacingAndGlyphs" textLength="138" x="354" y="402.2808">handle_remove_server()</text><ellipse cx="345" cy="411.875" fill="#84BE84" rx="3" ry="3" style="stroke: #038048; stroke-width: 1.0;"/><text fill="#000000" font-family="sans-serif" font-size="11" lengthAdjust="spacingAndGlyphs" textLength="25" x="354" y="415.0854">log()</text><!--MD5=[b519a2f6875d844a5de225a9742d5081]
link MainWindow to RegisterMap--><path d="M246.07,441.31 C304.02,522.43 390.21,636.27 477,726 C503.93,753.85 536.18,781.74 564.99,805.05 " fill="none" id="MainWindow-&gt;RegisterMap" style="stroke: #A80036; stroke-width: 1.0; stroke-dasharray: 7.0,7.0;"/><polygon fill="#A80036" points="569.22,808.45,564.7027,799.6982,565.3198,805.3213,559.6968,805.9385,569.22,808.45" style="stroke: #A80036; stroke-width: 1.0;"/><text fill="#000000" font-family="sans-serif" font-size="13" lengthAdjust="spacingAndGlyphs" textLength="59" x="478" y="625.0669">per-slave</text><!--MD5=[3ddc840d4f8345f6e8e6c549885c04c6]
link MainWindow to MultiUnitModbusServerThread--><path d="M298.61,432.48 C304.38,435.55 310.19,438.41 316,441 C374.91,467.28 396.65,451.07 458,471 C483.92,479.42 490.83,481.65 514,496 C532.93,507.72 552.07,521.61 570.06,535.76 " fill="none" id="MainWindow-&gt;MultiUnitModbusServerThread" style="stroke: #A80036; stroke-width: 1.0; stroke-dasharray: 7.0,7.0;"/><polygon fill="#A80036" points="574.12,538.98,569.5326,530.2648,570.1949,535.8827,564.5769,536.545,574.12,538.98" style="stroke: #A80036; stroke-width: 1.0;"/><text fill="#000000" font-family="sans-serif" font-size="13" lengthAdjust="spacingAndGlyphs" textLength="92" x="500" y="484.0669">starts/controls</text><!--MD5=[d7546d094a83d48ee18444304e54b978]
link MainWindow to ConnectDialog--><path d="M128.58,441.32 C125.73,456.82 125.04,472.73 128,488 C133.91,518.48 146.87,550.85 158.49,575.85 " fill="none" id="MainWindow-&gt;ConnectDialog" style="stroke: #A80036; stroke-width: 1.0; stroke-dasharray: 7.0,7.0;"/><polygon fill="#A80036" points="160.64,580.43,160.4316,570.5833,158.5131,575.9049,153.1915,573.9864,160.64,580.43" style="stroke: #A80036; stroke-width: 1.0;"/><text fill="#000000" font-family="sans-serif" font-size="13" lengthAdjust="spacingAndGlyphs" textLength="57" x="129" y="484.0669">launches</text><!--MD5=[77b98bc9ffcbaf05ec0acf417302122b]
link ConnectDialog to MainWindow--><path d="M186.35,580.43 C189.78,550.49 193.23,508.14 191,471 C190.52,463.02 189.88,454.79 189.14,446.51 " fill="none" id="ConnectDialog-&gt;MainWindow" style="stroke: #A80036; stroke-width: 1.0; stroke-dasharray: 7.0,7.0;"/><polygon fill="#A80036" points="188.66,441.36,185.5275,450.6974,189.132,446.3377,193.4918,449.9422,188.66,441.36" style="stroke: #A80036; stroke-width: 1.0;"/><text fill="#000000" font-family="sans-serif" font-size="13" lengthAdjust="spacingAndGlyphs" textLength="42" x="193" y="484.0669">parent</text><!--MD5=[7f86313b053f826fa923f0c02a45590e]
link MainWindow to Logger--><path d="M195.78,232.84 C196.68,210.01 194.64,186.29 187,165 C183.49,155.23 177.91,145.86 171.59,137.36 " fill="none" id="MainWindow-&gt;Logger" style="stroke: #A80036; stroke-width: 1.0; stroke-dasharray: 7.0,7.0;"/><polygon fill="#A80036" points="168.44,133.26,170.7386,142.8369,171.481,137.229,177.0889,137.9713,168.44,133.26" style="stroke: #A80036; stroke-width: 1.0;"/><text fill="#000000" font-family="sans-serif" font-size="13" lengthAdjust="spacingAndGlyphs" textLength="190" x="192" y="178.0669">logs/receives message_signal</text><!--MD5=[22a14a9bb751e76a3ce0b86b137eb3f5]
link Logger to MainWindow--><path d="M88.64,133 C76.97,147.28 68.76,164.46 74,182 C78.69,197.69 85.54,213.26 93.5,228.14 " fill="none" id="Logger-&gt;MainWindow" style="stroke: #A80036; stroke-width: 1.0; stroke-dasharray: 7.0,7.0;"/><polygon fill="#A80036" points="96.01,232.73,95.1985,222.9146,93.6097,228.3438,88.1806,226.7551,96.01,232.73" style="stroke: #A80036; stroke-width: 1.0;"/><text fill="#000000" font-family="sans-serif" font-size="13" lengthAdjust="spacingAndGlyphs" textLength="103" x="75" y="178.0669">message_signal</text><!--MD5=[bc0cfa89ef1bccd3f953985aec77276c]
link MultiUnitModbusServerThread to RegisterMap--><path d="M643.84,702.26 C641.84,712.88 640.14,723.66 639,734 C636.54,756.45 636.47,781.23 637.29,803.04 " fill="none" id="MultiUnitModbusServerThread-&gt;RegisterMap" style="stroke: #A80036; stroke-width: 1.0; stroke-dasharray: 7.0,7.0;"/><polygon fill="#A80036" points="637.51,808.22,641.1471,799.0673,637.3102,803.224,633.1535,799.3871,637.51,808.22" style="stroke: #A80036; stroke-width: 1.0;"/><text fill="#000000" font-family="sans-serif" font-size="13" lengthAdjust="spacingAndGlyphs" textLength="160" x="640" y="747.0669">uses register data arrays</text><!--MD5=[dd74236c66d6af2ccaf9ea3ef95f7589]
link SlaveControl to RegisterMap--><path d="M498.27,347.67 C586.38,362.81 722.6,401 790,496 C855.69,588.6 857.76,650.48 805,751 C793.93,772.09 776.92,790 757.99,804.91 " fill="none" id="SlaveControl-&gt;RegisterMap" style="stroke: #A80036; stroke-width: 1.0; stroke-dasharray: 7.0,7.0;"/><polygon fill="#A80036" points="753.67,808.24,763.2417,805.9198,757.6321,805.1901,758.3618,799.5805,753.67,808.24" style="stroke: #A80036; stroke-width: 1.0;"/><!--MD5=[c1114e84567594b5936364a6ef5912f2]
link SlaveControl to MultiUnitModbusServerThread--><path d="M498.48,380.43 C535.81,403.07 577.97,433.94 607,471 C621.55,489.57 632.73,512.28 641.18,534.3 " fill="none" id="SlaveControl-&gt;MultiUnitModbusServerThread" style="stroke: #A80036; stroke-width: 1.0; stroke-dasharray: 7.0,7.0;"/><polygon fill="#A80036" points="642.94,538.99,643.5252,529.1585,641.1844,534.3084,636.0346,531.9675,642.94,538.99" style="stroke: #A80036; stroke-width: 1.0;"/><!--MD5=[0fc9f0e981ddf1b560953a8c44475de7]
@startuml


package "modbusx.register_map" {
    class RegisterEntry {
        - addr: int
        - reg_type: str
        - value: int
        - alias: str
        - comment: str
        - units: str
    }
    class RegisterMap {
        + add_block(type, start, size, default_value)
        + as_pymodbus_array(type): (start_addr, arr)
        + find_entry_by_addr(type, addr): RegisterEntry
        + all_entries(type): List<RegisterEntry>
        + to_meta_list()
    }
}

package "modbusx.logger" {
    class Logger {
        + log(msg: str)
        + message_signal: pyqtSignal
    }
}

package "modbusx.slave_server" {
    class MultiUnitModbusServerThread {
        - port: int
        - unit_definitions: dict
        - loop
        - _server
        + status_signal: pyqtSignal
        + error_signal: pyqtSignal
        + start()
        + stop()
        + run()
    }
}

package "modbusx.ui" {
    class MainWindow <<QMainWindow>> {
        - treeView: QTreeView
        - tree_model: QStandardItemModel
        - reg_table_model: QStandardItemModel
        + show_connect_dialog()
        + add_connection()
        + open_selected_connection()
        + close_selected_connection()
        + add_slave_to_selected_connection()
        + add_reggroup_to_selected_slave()
        + on_tree_selection_changed()
        + append_to_log_widget()
        ...
    }

    class ConnectDialog <<QDialog>> {
        - settings: dict
        + on_ok()
    }

    class SlaveControl <<QGroupBox>> {
        - idx: int
        - port: int
        - address: str
        - unit_data: dict
        + add_unit_row()
        + start_server()
        + stop_server()
        + handle_remove_server()
        + log()
    }
}


MainWindow ..> RegisterMap       : per-slave
MainWindow ..> MultiUnitModbusServerThread : starts/controls
MainWindow ..> ConnectDialog     : launches
MainWindow ..> Logger            : logs/receives message_signal

MultiUnitModbusServerThread ..> RegisterMap : uses register data arrays

ConnectDialog ..> MainWindow : parent

SlaveControl ..> RegisterMap
SlaveControl ..> MultiUnitModbusServerThread

Logger ..> MainWindow : message_signal

@enduml

PlantUML version 1.2020.02(Sun Mar 01 10:22:07 UTC 2020)
(GPL source distribution)
Java Runtime: OpenJDK Runtime Environment
JVM: OpenJDK 64-Bit Server VM
Java Version: 17.0.16+8
Operating System: Linux
Default Encoding: UTF-8
Language: en
Country: null
--></g></svg>