<?xml version="1.0" encoding="us-ascii" standalone="no"?><svg xmlns="http://www.w3.org/2000/svg" xmlns:xlink="http://www.w3.org/1999/xlink" contentStyleType="text/css" height="665px" preserveAspectRatio="none" style="width:2843px;height:665px;background:#FFFFFF;" version="1.1" viewBox="0 0 2843 665" width="2843px" zoomAndPan="magnify"><defs/><g><text fill="#000000" font-family="sans-serif" font-size="14" font-weight="bold" lengthAdjust="spacing" textLength="259" x="1284.5" y="22.9951">ModBusX - Component Overview</text><!--cluster UI--><g id="cluster_UI"><rect fill="#90EE90" height="179" rx="2.5" ry="2.5" style="stroke:#181818;stroke-width:1.0;" width="530" x="14" y="43.2969"/><text fill="#000000" font-family="sans-serif" font-size="14" font-weight="bold" lengthAdjust="spacing" textLength="15" x="271.5" y="58.292">UI</text></g><!--cluster Managers--><g id="cluster_Managers"><rect fill="#ADD8E6" height="71" rx="2.5" ry="2.5" style="stroke:#181818;stroke-width:1.0;" width="1364" x="552" y="151.2969"/><text fill="#000000" font-family="sans-serif" font-size="14" font-weight="bold" lengthAdjust="spacing" textLength="77" x="1195.5" y="166.292">Managers</text></g><!--cluster Services--><g id="cluster_Services"><rect fill="#FFFFE0" height="88" rx="2.5" ry="2.5" style="stroke:#181818;stroke-width:1.0;" width="522" x="604" y="257.2969"/><text fill="#000000" font-family="sans-serif" font-size="14" font-weight="bold" lengthAdjust="spacing" textLength="68" x="831" y="272.292">Services</text></g><!--cluster Models--><g id="cluster_Models"><rect fill="#F5FFFA" height="160" rx="2.5" ry="2.5" style="stroke:#181818;stroke-width:1.0;" width="522" x="1074" y="380.2969"/><text fill="#000000" font-family="sans-serif" font-size="14" font-weight="bold" lengthAdjust="spacing" textLength="56" x="1307" y="395.292">Models</text></g><!--cluster Server (asyncio)--><g id="cluster_Server (asyncio)"><rect fill="#F5DEB3" height="274.5" rx="2.5" ry="2.5" style="stroke:#181818;stroke-width:1.0;" width="368" x="1662" y="265.7969"/><text fill="#000000" font-family="sans-serif" font-size="14" font-weight="bold" lengthAdjust="spacing" textLength="130" x="1781" y="280.792">Server (asyncio)</text></g><!--cluster Logging--><g id="cluster_Logging"><rect fill="#FFFAFA" height="71" rx="2.5" ry="2.5" style="stroke:#181818;stroke-width:1.0;" width="128" x="2038" y="380.2969"/><text fill="#000000" font-family="sans-serif" font-size="14" font-weight="bold" lengthAdjust="spacing" textLength="63" x="2070.5" y="395.292">Logging</text></g><!--cluster Bridge--><g id="cluster_Bridge"><rect fill="none" height="181" rx="2.5" ry="2.5" style="stroke:#181818;stroke-width:1.0;" width="192" x="2093" y="41.2969"/><text fill="#000000" font-family="sans-serif" font-size="14" font-weight="bold" lengthAdjust="spacing" textLength="51" x="2163.5" y="56.292">Bridge</text></g><!--cluster External Dependencies--><g id="cluster_External Dependencies"><rect fill="none" height="181" rx="2.5" ry="2.5" style="stroke:#181818;stroke-width:1.0;" width="544" x="2293" y="41.2969"/><text fill="#000000" font-family="sans-serif" font-size="14" font-weight="bold" lengthAdjust="spacing" textLength="182" x="2474" y="56.292">External Dependencies</text></g><!--entity MainWindow--><g id="elem_MainWindow"><rect fill="#F1F1F1" height="36.2969" rx="2.5" ry="2.5" style="stroke:#181818;stroke-width:0.5;" width="106" x="430" y="70.2969"/><text fill="#000000" font-family="sans-serif" font-size="14" lengthAdjust="spacing" textLength="86" x="440" y="93.292">MainWindow</text></g><!--entity RegisterTableView--><g id="elem_RegisterTableView"><rect fill="#F1F1F1" height="36.2969" rx="2.5" ry="2.5" style="stroke:#181818;stroke-width:0.5;" width="148" x="22" y="178.2969"/><text fill="#000000" font-family="sans-serif" font-size="14" lengthAdjust="spacing" textLength="128" x="32" y="201.292">RegisterTableView</text></g><!--entity Format Editor (QTableView)--><g id="elem_Format Editor (QTableView)"><rect fill="#F1F1F1" height="36.2969" rx="2.5" ry="2.5" style="stroke:#181818;stroke-width:0.5;" width="207" x="188.5" y="178.2969"/><text fill="#000000" font-family="sans-serif" font-size="14" lengthAdjust="spacing" textLength="187" x="198.5" y="201.292">Format Editor (QTableView)</text></g><!--entity ConnectDialog--><g id="elem_ConnectDialog"><rect fill="#F1F1F1" height="36.2969" rx="2.5" ry="2.5" style="stroke:#181818;stroke-width:0.5;" width="122" x="414" y="178.2969"/><text fill="#000000" font-family="sans-serif" font-size="14" lengthAdjust="spacing" textLength="102" x="424" y="201.292">ConnectDialog</text></g><!--entity ConnectionManager--><g id="elem_ConnectionManager"><rect fill="#F1F1F1" height="36.2969" rx="2.5" ry="2.5" style="stroke:#181818;stroke-width:0.5;" width="160" x="1074" y="178.2969"/><text fill="#000000" font-family="sans-serif" font-size="14" lengthAdjust="spacing" textLength="140" x="1084" y="201.292">ConnectionManager</text></g><!--entity ServerManager--><g id="elem_ServerManager"><rect fill="#F1F1F1" height="36.2969" rx="2.5" ry="2.5" style="stroke:#181818;stroke-width:0.5;" width="124" x="1784" y="178.2969"/><text fill="#000000" font-family="sans-serif" font-size="14" lengthAdjust="spacing" textLength="104" x="1794" y="201.292">ServerManager</text></g><!--entity DataRefresher--><g id="elem_DataRefresher"><rect fill="#F1F1F1" height="36.2969" rx="2.5" ry="2.5" style="stroke:#181818;stroke-width:0.5;" width="120" x="1646" y="178.2969"/><text fill="#000000" font-family="sans-serif" font-size="14" lengthAdjust="spacing" textLength="100" x="1656" y="201.292">DataRefresher</text></g><!--entity AddressModeManager--><g id="elem_AddressModeManager"><rect fill="#F1F1F1" height="36.2969" rx="2.5" ry="2.5" style="stroke:#181818;stroke-width:0.5;" width="176" x="1252" y="178.2969"/><text fill="#000000" font-family="sans-serif" font-size="14" lengthAdjust="spacing" textLength="156" x="1262" y="201.292">AddressModeManager</text></g><!--entity RegisterGroupManager--><g id="elem_RegisterGroupManager"><rect fill="#F1F1F1" height="36.2969" rx="2.5" ry="2.5" style="stroke:#181818;stroke-width:0.5;" width="181" x="1446.5" y="178.2969"/><text fill="#000000" font-family="sans-serif" font-size="14" lengthAdjust="spacing" textLength="161" x="1456.5" y="201.292">RegisterGroupManager</text></g><!--entity BulkOperationsHandler--><g id="elem_BulkOperationsHandler"><rect fill="#F1F1F1" height="36.2969" rx="2.5" ry="2.5" style="stroke:#181818;stroke-width:0.5;" width="179" x="876.5" y="178.2969"/><text fill="#000000" font-family="sans-serif" font-size="14" lengthAdjust="spacing" textLength="159" x="886.5" y="201.292">BulkOperationsHandler</text></g><!--entity LanguageManager--><g id="elem_LanguageManager"><rect fill="#F1F1F1" height="36.2969" rx="2.5" ry="2.5" style="stroke:#181818;stroke-width:0.5;" width="148" x="560" y="178.2969"/><text fill="#000000" font-family="sans-serif" font-size="14" lengthAdjust="spacing" textLength="128" x="570" y="201.292">LanguageManager</text></g><!--entity BackupManager--><g id="elem_BackupManager"><rect fill="#F1F1F1" height="36.2969" rx="2.5" ry="2.5" style="stroke:#181818;stroke-width:0.5;" width="132" x="726" y="178.2969"/><text fill="#000000" font-family="sans-serif" font-size="14" lengthAdjust="spacing" textLength="112" x="736" y="201.292">BackupManager</text></g><!--entity RegisterValidator--><g id="elem_RegisterValidator"><rect fill="#F1F1F1" height="36.2969" rx="2.5" ry="2.5" style="stroke:#181818;stroke-width:0.5;" width="137" x="791.5" y="292.7969"/><text fill="#000000" font-family="sans-serif" font-size="14" lengthAdjust="spacing" textLength="117" x="801.5" y="315.792">RegisterValidator</text></g><!--entity RegisterGroupService--><g id="elem_RegisterGroupService"><rect fill="#F1F1F1" height="36.2969" rx="2.5" ry="2.5" style="stroke:#181818;stroke-width:0.5;" width="171" x="946.5" y="292.7969"/><text fill="#000000" font-family="sans-serif" font-size="14" lengthAdjust="spacing" textLength="151" x="956.5" y="315.792">RegisterGroupService</text></g><!--entity RegisterSyncService--><g id="elem_RegisterSyncService"><rect fill="#F1F1F1" height="52.5938" rx="2.5" ry="2.5" style="stroke:#181818;stroke-width:0.5;" width="161" x="612.5" y="284.2969"/><text fill="#000000" font-family="sans-serif" font-size="14" font-style="italic" lengthAdjust="spacing" textLength="73" x="656.5" y="307.292">&#171;optional&#187;</text><text fill="#000000" font-family="sans-serif" font-size="14" lengthAdjust="spacing" textLength="141" x="622.5" y="323.5889">RegisterSyncService</text></g><!--entity RegisterMap--><g id="elem_RegisterMap"><rect fill="#F1F1F1" height="36.2969" rx="2.5" ry="2.5" style="stroke:#181818;stroke-width:0.5;" width="107" x="1082.5" y="496.2969"/><text fill="#000000" font-family="sans-serif" font-size="14" lengthAdjust="spacing" textLength="87" x="1092.5" y="519.292">RegisterMap</text></g><!--entity RegisterEntry--><g id="elem_RegisterEntry"><rect fill="#F1F1F1" height="36.2969" rx="2.5" ry="2.5" style="stroke:#181818;stroke-width:0.5;" width="113" x="1474.5" y="407.2969"/><text fill="#000000" font-family="sans-serif" font-size="14" lengthAdjust="spacing" textLength="93" x="1484.5" y="430.292">RegisterEntry</text></g><!--entity RegisterGroup--><g id="elem_RegisterGroup"><rect fill="#F1F1F1" height="36.2969" rx="2.5" ry="2.5" style="stroke:#181818;stroke-width:0.5;" width="121" x="1082.5" y="407.2969"/><text fill="#000000" font-family="sans-serif" font-size="14" lengthAdjust="spacing" textLength="101" x="1092.5" y="430.292">RegisterGroup</text></g><!--entity RegisterMapDataBlock Adapter--><g id="elem_RegisterMapDataBlock Adapter"><rect fill="#F1F1F1" height="36.2969" rx="2.5" ry="2.5" style="stroke:#181818;stroke-width:0.5;" width="235" x="1221.5" y="407.2969"/><text fill="#000000" font-family="sans-serif" font-size="14" lengthAdjust="spacing" textLength="215" x="1231.5" y="430.292">RegisterMapDataBlock Adapter</text></g><!--entity AsyncModbusServer--><g id="elem_AsyncModbusServer"><rect fill="#F1F1F1" height="36.2969" rx="2.5" ry="2.5" style="stroke:#181818;stroke-width:0.5;" width="161" x="1765.5" y="292.7969"/><text fill="#000000" font-family="sans-serif" font-size="14" lengthAdjust="spacing" textLength="141" x="1775.5" y="315.792">AsyncModbusServer</text></g><!--entity FunctionRegistry--><g id="elem_FunctionRegistry"><rect fill="#F1F1F1" height="36.2969" rx="2.5" ry="2.5" style="stroke:#181818;stroke-width:0.5;" width="136" x="1778" y="407.2969"/><text fill="#000000" font-family="sans-serif" font-size="14" lengthAdjust="spacing" textLength="116" x="1788" y="430.292">FunctionRegistry</text></g><!--entity FunctionHandlers (Read: 0x01/0x02/0x03/0x04)--><g id="elem_FunctionHandlers (Read: 0x01/0x02/0x03/0x04)"><rect fill="#F1F1F1" height="36.2969" rx="2.5" ry="2.5" style="stroke:#181818;stroke-width:0.5;" width="351" x="1670.5" y="496.2969"/><text fill="#000000" font-family="sans-serif" font-size="14" lengthAdjust="spacing" textLength="331" x="1680.5" y="519.292">FunctionHandlers (Read: 0x01/0x02/0x03/0x04)</text></g><!--entity global_logger--><g id="elem_global_logger"><rect fill="#F1F1F1" height="36.2969" rx="2.5" ry="2.5" style="stroke:#181818;stroke-width:0.5;" width="112" x="2046" y="407.2969"/><text fill="#000000" font-family="sans-serif" font-size="14" lengthAdjust="spacing" textLength="92" x="2056" y="430.292">global_logger</text></g><!--entity AsyncBridge--><g id="elem_AsyncBridge"><rect fill="#F1F1F1" height="36.2969" rx="2.5" ry="2.5" style="stroke:#181818;stroke-width:0.5;" width="110" x="2134" y="178.2969"/><text fill="#000000" font-family="sans-serif" font-size="14" lengthAdjust="spacing" textLength="90" x="2144" y="201.292">Async Bridge</text></g><g id="elem_GMN33"><path d="M2101,68.2969 L2101,108.5625 A0,0 0 0 0 2101,108.5625 L2185,108.5625 L2189,178.0819 L2193,108.5625 L2277,108.5625 A0,0 0 0 0 2277,108.5625 L2277,78.2969 L2267,68.2969 L2101,68.2969 A0,0 0 0 0 2101,68.2969 " fill="#FEFFDD" style="stroke:#181818;stroke-width:0.5;"/><path d="M2267,68.2969 L2267,78.2969 L2277,78.2969 L2267,68.2969 " fill="#FEFFDD" style="stroke:#181818;stroke-width:0.5;"/><text fill="#000000" font-family="sans-serif" font-size="13" lengthAdjust="spacing" textLength="155" x="2107" y="85.3638">Qt &#8644; asyncio integration</text><text fill="#000000" font-family="sans-serif" font-size="13" lengthAdjust="spacing" textLength="115" x="2107" y="100.4966">shared event loop</text></g><!--entity Qt--><g id="elem_Qt"><rect fill="#F1F1F1" height="36.2969" rx="2.5" ry="2.5" style="stroke:#181818;stroke-width:0.5;" width="61" x="2525.5" y="178.2969"/><text fill="#000000" font-family="sans-serif" font-size="14" lengthAdjust="spacing" textLength="41" x="2535.5" y="201.292">PyQt5</text></g><!--entity Modbus--><g id="elem_Modbus"><rect fill="#F1F1F1" height="36.2969" rx="2.5" ry="2.5" style="stroke:#181818;stroke-width:0.5;" width="92" x="2338" y="178.2969"/><text fill="#000000" font-family="sans-serif" font-size="14" lengthAdjust="spacing" textLength="72" x="2348" y="201.292">PyModbus</text></g><!--entity Files--><g id="elem_Files"><rect fill="#F1F1F1" height="36.2969" rx="2.5" ry="2.5" style="stroke:#181818;stroke-width:0.5;" width="88" x="2741" y="70.2969"/><text fill="#000000" font-family="sans-serif" font-size="14" lengthAdjust="spacing" textLength="68" x="2751" y="93.292">JSON Files</text></g><!--entity Network--><g id="elem_Network"><rect fill="#F1F1F1" height="36.2969" rx="2.5" ry="2.5" style="stroke:#181818;stroke-width:0.5;" width="77" x="2645.5" y="70.2969"/><text fill="#000000" font-family="sans-serif" font-size="14" lengthAdjust="spacing" textLength="57" x="2655.5" y="93.292">Network</text></g><g id="elem_GMN41"><path d="M2485,68.2969 L2485,108.5625 A0,0 0 0 0 2485,108.5625 L2552,108.5625 L2556,178.0819 L2560,108.5625 L2627,108.5625 A0,0 0 0 0 2627,108.5625 L2627,78.2969 L2617,68.2969 L2485,68.2969 A0,0 0 0 0 2485,68.2969 " fill="#FEFFDD" style="stroke:#181818;stroke-width:0.5;"/><path d="M2617,68.2969 L2617,78.2969 L2627,78.2969 L2617,68.2969 " fill="#FEFFDD" style="stroke:#181818;stroke-width:0.5;"/><text fill="#000000" font-family="sans-serif" font-size="13" lengthAdjust="spacing" textLength="97" x="2491" y="85.3638">GUI Framework</text><text fill="#000000" font-family="sans-serif" font-size="13" lengthAdjust="spacing" textLength="121" x="2491" y="100.4966">Signal/Slot System</text></g><g id="elem_GMN44"><path d="M2301,68.2969 L2301,108.5625 A0,0 0 0 0 2301,108.5625 L2380,108.5625 L2384,178.0819 L2388,108.5625 L2467,108.5625 A0,0 0 0 0 2467,108.5625 L2467,78.2969 L2457,68.2969 L2301,68.2969 A0,0 0 0 0 2301,68.2969 " fill="#FEFFDD" style="stroke:#181818;stroke-width:0.5;"/><path d="M2457,68.2969 L2457,78.2969 L2467,78.2969 L2457,68.2969 " fill="#FEFFDD" style="stroke:#181818;stroke-width:0.5;"/><text fill="#000000" font-family="sans-serif" font-size="13" lengthAdjust="spacing" textLength="107" x="2307" y="85.3638">ModBus Protocol</text><text fill="#000000" font-family="sans-serif" font-size="13" lengthAdjust="spacing" textLength="145" x="2307" y="100.4966">TCP/RTU/ASCII Support</text></g><polygon fill="#181818" points="1125.445,178.1408,1119.5034,170.286,1121.0691,175.7219,1115.6332,177.2875,1125.445,178.1408" style="stroke:#181818;stroke-width:1.0;"/><path d="M536.2545,88.8617 C639.9637,89.3405 875.3844,96.9545 1064,151.2969 C1085.5592,157.5083 1102.9925,165.7297 1120.1939,175.2381 " fill="none" style="stroke:#181818;stroke-width:1.0;"/><text fill="#000000" font-family="sans-serif" font-size="13" lengthAdjust="spacing" textLength="30" x="1035" y="139.3638">uses</text><polygon fill="#181818" points="1823.5238,178.2149,1818.4338,169.7833,1819.424,175.3528,1813.8544,176.343,1823.5238,178.2149" style="stroke:#181818;stroke-width:1.0;"/><path d="M536.216,90.0633 C731.88,93.0302 1411.2321,104.6838 1627,126.2969 C1693.3774,132.9458 1712.5918,127.7303 1775,151.2969 C1792.365,157.8543 1805.1952,165.4198 1818.604,174.7804 " fill="none" style="stroke:#181818;stroke-width:1.0;"/><text fill="#000000" font-family="sans-serif" font-size="13" lengthAdjust="spacing" textLength="30" x="1753" y="139.3638">uses</text><polygon fill="#181818" points="1685.0281,178.2063,1680.1537,169.6482,1681.0023,175.2411,1675.4094,176.0896,1685.0281,178.2063" style="stroke:#181818;stroke-width:1.0;"/><path d="M536.2132,90.5556 C748.7896,95.8021 1530.6711,117.2562 1636,151.2969 C1653.8928,157.0795 1666.9723,164.9074 1680.1971,174.648 " fill="none" style="stroke:#181818;stroke-width:1.0;"/><text fill="#000000" font-family="sans-serif" font-size="13" lengthAdjust="spacing" textLength="30" x="1592" y="139.3638">uses</text><polygon fill="#181818" points="1308.5376,178.2826,1302.2939,170.6658,1304.0706,176.0364,1298.7,177.8131,1308.5376,178.2826" style="stroke:#181818;stroke-width:1.0;"/><path d="M536.2106,90.8442 C686.176,95.6463 1109.9899,112.374 1243,151.2969 C1265.7169,157.9445 1284.6064,166.2491 1303.1772,175.5872 " fill="none" style="stroke:#181818;stroke-width:1.0;"/><text fill="#000000" font-family="sans-serif" font-size="13" lengthAdjust="spacing" textLength="30" x="1211" y="139.3638">uses</text><polygon fill="#181818" points="609.2978,177.9563,604.2298,169.5114,605.2055,175.0835,599.6334,176.0592,609.2978,177.9563" style="stroke:#181818;stroke-width:1.0;"/><path d="M507.2608,106.3276 C535.2723,125.9913 576.1899,154.715 604.387,174.5089 " fill="none" style="stroke:#181818;stroke-width:1.0;"/><text fill="#000000" font-family="sans-serif" font-size="13" lengthAdjust="spacing" textLength="30" x="560" y="139.3638">uses</text><polygon fill="#181818" points="766.8655,178.2249,761.4204,170.0182,762.6473,175.5404,757.1251,176.7673,766.8655,178.2249" style="stroke:#181818;stroke-width:1.0;"/><path d="M536.3888,99.1264 C584.713,109.0245 657.2571,126.4046 717,151.2969 C734.4187,158.5545 747.6466,165.9935 761.8037,175.0035 " fill="none" style="stroke:#181818;stroke-width:1.0;"/><text fill="#000000" font-family="sans-serif" font-size="13" lengthAdjust="spacing" textLength="30" x="694" y="139.3638">uses</text><polygon fill="#181818" points="123.508,178.1477,133.2993,177.084,127.8311,175.6354,129.2797,170.1672,123.508,178.1477" style="stroke:#181818;stroke-width:1.0;"/><path d="M429.851,95.4469 C368.1731,103.6463 264.0537,120.7961 179,151.2969 C159.6565,158.2336 144.4352,165.9862 128.6957,175.133 " fill="none" style="stroke:#181818;stroke-width:1.0;"/><text fill="#000000" font-family="sans-serif" font-size="13" lengthAdjust="spacing" textLength="30" x="262" y="139.3638">uses</text><polygon fill="#181818" points="322.928,178.1327,332.7383,177.2629,327.2998,175.7064,328.8563,170.2679,322.928,178.1327" style="stroke:#181818;stroke-width:1.0;"/><path d="M452.3125,106.3276 C416.7753,126.0498 363.8133,155.4424 328.1742,175.2211 " fill="none" style="stroke:#181818;stroke-width:1.0;"/><text fill="#000000" font-family="sans-serif" font-size="13" lengthAdjust="spacing" textLength="30" x="417" y="139.3638">uses</text><polygon fill="#181818" points="476.3087,177.9563,480.9747,169.2828,476.685,172.9704,472.9974,168.6808,476.3087,177.9563" style="stroke:#181818;stroke-width:1.0;"/><path d="M481.7147,106.3276 C480.2306,125.9913 478.2542,152.1793 476.7603,171.9733 " fill="none" style="stroke:#181818;stroke-width:1.0;"/><text fill="#000000" font-family="sans-serif" font-size="13" lengthAdjust="spacing" textLength="30" x="482" y="139.3638">uses</text><polygon fill="#181818" points="1082.2741,505.7529,1073.9782,500.4445,1077.331,505.0007,1072.7748,508.3535,1082.2741,505.7529" style="stroke:#181818;stroke-width:1.0;"/><path d="M1101.171,214.3321 C1089.0787,217.5686 1076.1931,220.5014 1064,222.2969 C1051.1907,224.1831 607.0565,223.044 598,232.2969 C441.0015,392.7006 911.7711,479.8095 1076.3424,504.8503 " fill="none" style="stroke:#181818;stroke-width:1.0;"/><text fill="#000000" font-family="sans-serif" font-size="13" lengthAdjust="spacing" textLength="30" x="623" y="368.3638">uses</text><polygon fill="#181818" points="1143.8364,407.037,1148.2673,398.2411,1144.0784,402.0429,1140.2767,397.8539,1143.8364,407.037" style="stroke:#181818;stroke-width:1.0;"/><path d="M1153.1732,214.3588 C1151.1347,256.427 1146.1754,358.7688 1144.1268,401.044 " fill="none" style="stroke:#181818;stroke-width:1.0;"/><text fill="#000000" font-family="sans-serif" font-size="13" lengthAdjust="spacing" textLength="30" x="1152" y="315.3638">uses</text><polygon fill="#181818" points="1057.9993,292.7133,1067.7634,291.4243,1062.2633,290.1021,1063.5855,284.6019,1057.9993,292.7133" style="stroke:#181818;stroke-width:1.0;"/><path d="M1474.0581,214.3605 C1461.8275,217.2989 1449.0612,220.1069 1437,222.2969 C1302.7499,246.6731 1262.3973,217.1244 1132,257.2969 C1105.3904,265.4947 1082.6498,277.6177 1063.1161,289.5799 " fill="none" style="stroke:#181818;stroke-width:1.0;"/><text fill="#000000" font-family="sans-serif" font-size="13" lengthAdjust="spacing" textLength="30" x="1350" y="245.3638">uses</text><polygon fill="#181818" points="1093.1606,496.1669,1087.0218,488.4654,1088.7247,493.8598,1083.3303,495.5628,1093.1606,496.1669" style="stroke:#181818;stroke-width:1.0;"/><path d="M1028.4686,329.0887 C1023.7422,356.9391 1018.3608,412.5247 1041,451.2969 C1052.7184,471.3659 1068.4949,483.3379 1087.8376,493.3984 " fill="none" style="stroke:#181818;stroke-width:1.0;"/><text fill="#000000" font-family="sans-serif" font-size="13" lengthAdjust="spacing" textLength="30" x="1042" y="429.8638">uses</text><polygon fill="#181818" points="1189.8478,513.3577,1198.8848,517.2733,1194.8476,513.3109,1198.81,509.2737,1189.8478,513.3577" style="stroke:#181818;stroke-width:1.0;"/><path d="M1689.9883,214.378 C1679.8415,225.8574 1666.9845,241.6893 1658,257.2969 C1634.694,297.7833 1634.1371,310.772 1620,355.2969 C1606.6908,397.2145 1628.7757,421.9715 1596,451.2969 C1537.0719,504.0217 1304.1604,512.2886 1195.8475,513.3015 " fill="none" style="stroke:#181818;stroke-width:1.0;"/><text fill="#000000" font-family="sans-serif" font-size="13" lengthAdjust="spacing" textLength="36" x="1621" y="368.3638">reads</text><polygon fill="#181818" points="881.5346,292.6164,891.1281,290.388,885.5258,289.6046,886.3092,284.0022,881.5346,292.6164" style="stroke:#181818;stroke-width:1.0;"/><path d="M1281.9293,214.3596 C1269.2031,217.509 1255.7283,220.3987 1243,222.2969 C1107.6105,242.4872 1060.0025,197.2272 937,257.2969 C917.0822,267.024 901.2198,277.7615 886.324,289.0022 " fill="none" style="stroke:#181818;stroke-width:1.0;"/><text fill="#000000" font-family="sans-serif" font-size="13" lengthAdjust="spacing" textLength="30" x="1005" y="245.3638">uses</text><polygon fill="#181818" points="840.6778,292.7164,836.2146,283.9368,836.797,289.5636,831.1702,290.146,840.6778,292.7164" style="stroke:#181818;stroke-width:1.0;"/><path d="M145.0956,214.397 C156.1231,217.5866 167.8598,220.4833 179,222.2969 C311.4814,243.8646 655.5499,212.2762 782,257.2969 C803.9902,265.1262 821.0945,276.8068 836.0209,288.9331 " fill="none" style="stroke:#181818;stroke-width:1.0;"/><text fill="#000000" font-family="sans-serif" font-size="13" lengthAdjust="spacing" textLength="83" x="749" y="245.3638">parse/format</text><polygon fill="#181818" points="1082.4748,511.5684,1073.6582,507.1788,1077.4795,511.3498,1073.3085,515.1711,1082.4748,511.5684" style="stroke:#181818;stroke-width:1.0;"/><path d="M128.3745,214.4185 C189.6028,246.6004 326.8305,317.779 445,372.2969 C526.9249,410.0932 544.8337,428.0099 632,451.2969 C792.3372,494.1319 983.4056,507.233 1076.4805,511.3061 " fill="none" style="stroke:#181818;stroke-width:1.0;"/><text fill="#000000" font-family="sans-serif" font-size="13" lengthAdjust="spacing" textLength="150" x="446" y="368.3638">update value/metadata</text><polygon fill="#181818" points="612.3908,293.4727,604.3389,287.8012,607.486,292.5018,602.7854,295.6489,612.3908,293.4727" style="stroke:#181818;stroke-width:1.0;"/><path d="M147.4354,214.3504 C157.8003,217.3436 168.6816,220.1745 179,222.2969 C217.5557,230.2272 228.0591,226.5487 267,232.2969 C387.8454,250.1351 521.0351,275.389 606.505,292.3076 " fill="none" style="stroke:#181818;stroke-width:1.0;"/><text fill="#000000" font-family="sans-serif" font-size="13" lengthAdjust="spacing" textLength="131" x="374" y="245.3638">propagate (optional)</text><polygon fill="#181818" points="1846,292.5497,1850,283.5497,1846,287.5497,1842,283.5497,1846,292.5497" style="stroke:#181818;stroke-width:1.0;"/><path d="M1846,214.3832 C1846,235.5281 1846,265.3308 1846,286.5497 " fill="none" style="stroke:#181818;stroke-width:1.0;"/><text fill="#000000" font-family="sans-serif" font-size="13" lengthAdjust="spacing" textLength="62" x="1847" y="245.3638">start/stop</text><polygon fill="#181818" points="1385.4327,407.2718,1395.2542,408.0049,1390.1402,405.5868,1392.5583,400.4728,1385.4327,407.2718" style="stroke:#181818;stroke-width:1.0;"/><path d="M1765.2388,321.1694 C1706.5714,328.6322 1625.4485,340.3059 1555,355.2969 C1514.3946,363.9374 1504.6177,367.8914 1465,380.2969 C1438.4659,388.6055 1414.771,396.7708 1391.0817,405.2498 " fill="none" style="stroke:#181818;stroke-width:1.0;"/><text fill="#000000" font-family="sans-serif" font-size="13" lengthAdjust="spacing" textLength="37" x="1556" y="368.3638">builds</text><polygon fill="#181818" points="1175.6771,496.2924,1185.525,496.4237,1180.2728,494.3228,1182.3737,489.0706,1175.6771,496.2924" style="stroke:#181818;stroke-width:1.0;"/><path d="M1298.8937,443.4853 C1263.1895,458.7871 1216.7653,478.6832 1181.1919,493.9289 " fill="none" style="stroke:#181818;stroke-width:1.0;"/><text fill="#000000" font-family="sans-serif" font-size="13" lengthAdjust="spacing" textLength="36" x="1257" y="474.3638">maps</text><polygon fill="#181818" points="1846,407.0497,1850,398.0497,1846,402.0497,1842,398.0497,1846,407.0497" style="stroke:#181818;stroke-width:1.0;"/><path d="M1846,328.8832 C1846,350.0281 1846,379.8308 1846,401.0497 " fill="none" style="stroke:#181818;stroke-width:1.0;"/><text fill="#000000" font-family="sans-serif" font-size="13" lengthAdjust="spacing" textLength="30" x="1847" y="368.3638">uses</text><polygon fill="#181818" points="1846,496.1442,1850,487.1442,1846,491.1442,1842,487.1442,1846,496.1442" style="stroke:#181818;stroke-width:1.0;"/><path d="M1846,443.4853 C1846,458.7376 1846,474.9027 1846,490.1442 " fill="none" style="stroke:#181818;stroke-width:1.0;"/><text fill="#000000" font-family="sans-serif" font-size="13" lengthAdjust="spacing" textLength="66" x="1847" y="474.3638">composes</text><polygon fill="#181818" points="2080.5404,407.2929,2075.6193,398.7617,2076.4984,404.3498,2070.9103,405.2289,2080.5404,407.2929" style="stroke:#181818;stroke-width:1.0;"/><path d="M1880.9888,328.8591 C1909.8933,342.3486 1952.3113,360.768 1991,372.2969 C2009.6295,377.8483 2015.9413,373.1023 2034,380.2969 C2050.7205,386.9583 2062.8701,394.4265 2075.69,403.7612 " fill="none" style="stroke:#181818;stroke-width:1.0;"/><text fill="#000000" font-family="sans-serif" font-size="13" lengthAdjust="spacing" textLength="68" x="1992" y="368.3638">emit RX/TX</text><polygon fill="#181818" points="2097.7111,407.2305,2099.2385,397.5008,2096.4136,402.4018,2091.5125,399.5769,2097.7111,407.2305" style="stroke:#181818;stroke-width:1.0;"/><path d="M536.0049,89.0145 C780.7206,88.054 1794.7179,87.9548 1920,151.2969 C1981.7422,182.5134 1994.6948,200.3612 2034,257.2969 C2068.0575,306.631 2087.6557,369.8111 2096.154,401.436 " fill="none" style="stroke:#181818;stroke-width:1.0;"/><text fill="#000000" font-family="sans-serif" font-size="13" lengthAdjust="spacing" textLength="93" x="2029" y="245.3638">subscribe/filter</text><rect fill="none" height="91.4844" id="_legend" rx="7.5" ry="7.5" style="stroke:#000000;stroke-width:1.0;" width="467" x="2349" y="554.2969"/><text fill="#000000" font-family="sans-serif" font-size="14" lengthAdjust="spacing" textLength="41" x="2354" y="572.292">Notes</text><text fill="#000000" font-family="sans-serif" font-size="14" lengthAdjust="spacing" textLength="455" x="2354" y="588.5889">- UI edits via RegisterTableView &#8594; RegisterMap (16-bit normalized)</text><text fill="#000000" font-family="sans-serif" font-size="14" lengthAdjust="spacing" textLength="384" x="2354" y="604.8857">- Server uses DataBlock adapter to access RegisterMap</text><text fill="#000000" font-family="sans-serif" font-size="14" lengthAdjust="spacing" textLength="457" x="2354" y="621.1826">- Only read handlers exist; write functions are not implemented yet</text><text fill="#000000" font-family="sans-serif" font-size="14" lengthAdjust="spacing" textLength="331" x="2354" y="637.4795">- Server normalizes RX/TX; UI filters/formats logs</text><!--SRC=[bLPBR-Cs4BxhLqpTG-E3uTs-3jbj0DjHibx4ZrZE2qrGqDP49aAJ0ad5SOlUYlRUdxY_f4Cz7CcoDgWFWiNvXlF-Hj_4caLh1e9jLMB1hD4ooJpBhK0OgR2Vc5lem42jOoLHMfWyetxckF4yyyHbp3HRmu8jdoAj4XaEb50QDYjkiIIFISuY3EoMBjMu91EHA0EMnVND4BDYeTfm6S4Z4mOzxpluPVU3mMGqdOpzyHnwiy6duTmVpAzcFaok_TdrqByfGRtS6MXT3LlmxGMFLlPS8qhummFuTSIulE6IJ3surnb6t5ZKSxOGU4rXfwTdIg-P1J_abg8zkjn9swbueAIa24uv4ofwyFxqNcsEABaHQbDOxei4CyEv4bSonwHN1PHirEMJKsRP31yrcbL-qWj3UZDKB2m32zVFgJ1nMT1FnDCaHisSCVE9oL3aaWjAUaAu2ffSB-cNWt7EyINkWhb38TGc2wUmViq43ncbgUvJhbuH15kvBCxXuqSLEn-PE3cfPf525SxiY4ixq4ZjKJ4wOd7bLbzQlQqxyB2durBR5shv1BsGnVPGk4ZbPeQSvAfDzczMI7sGskwvKt9iaPWCc7LA8jEQPbPo9uh3FFK6ZcR8mcDuz_BkVPSUtxl73-xnOxlgmeMA8Xe1iXp88jEHK0icVgDMAmfKcGp_TkxFnhqB2Ew2kJyA3ev2N_CmmbPw8RnEOnuLPE87O0RIW-mznKfb4QoAGJsMPN0CbnQ-_FCNvDa2gXH6MS_TInfcZI7WipCYb8ehKVelb7kgEfnYZ394qdTDLdDkkhsqFwLUNTgwBAj5Aix-xaC-1vCnd7616IZzjuyPezqe_PG2ylyff1OxHNiCvrT3E2EoGeUxbm6FA8fk89I5O4jDjgwfPPwHQaQrCDNAggKIzt8-c7PdywjkBnWCXn0aSQoqhLNtedVdp-3Kd_hZKtyy6Fe17CrLt27-akrogKbjIYn1GQKbWCu955pKBUROUoK_w12WHadaPsBgk0f9DM0gjDM0gHDP0t2FfnfG5UPgmDJulG7NQgRyLeDAPGiK62f3aMt8izBDfwcUxRA3H4_57Ly7finMG0_jW3ewz-YWKY5hyALQrZg8k3aqte72bg6x7R7BKhqiJNZwE33OVKohyuPQxdPCgWZFZ3Plrttjq2jxGxEqbPn9hM8MkKkEYltKBWgBEYydX2NkygeJalRw_hgWYurbsdODKODN5wTT-BLbvVfmaN11-Nu3Lq_AciMcmUR-1YjgL3lFnkH_h3RdS4gr-M0SfFq6hofBZ-x1DRSmk-tER_V7S1zfaeLPQhwWfk6237gUm8ZCWNQVC4JGOw9djmSwG6oEDEy6dZaxm1HV_lwtaiQZzpzt5kI6TCqe-EyOjjDhShTTrk2r6Yoh1Yq2O4kY0rE-AzMRIB5D1mXMHJRnXH0VOAFf-neUyrmRe6NgjWhmTInmJHnFktMBjcnzvvJ9qlJ1HPTbmEJZOsWJHyP3PyjbnFiF]--></g></svg>