<?xml version="1.0" encoding="us-ascii" standalone="no"?><svg xmlns="http://www.w3.org/2000/svg" xmlns:xlink="http://www.w3.org/1999/xlink" contentStyleType="text/css" height="974px" preserveAspectRatio="none" style="width:3038px;height:974px;background:#FFFFFF;" version="1.1" viewBox="0 0 3038 974" width="3038px" zoomAndPan="magnify"><defs/><g><text fill="#000000" font-family="sans-serif" font-size="14" font-weight="bold" lengthAdjust="spacing" textLength="264" x="1355" y="22.9951">ModBusX - Deployment (Desktop)</text><!--cluster Desktop--><g id="cluster_Desktop"><polygon fill="#D5E8D4" points="1048.1338,59.2969,1058.1338,49.2969,1723.1338,49.2969,1723.1338,323.2969,1713.1338,333.2969,1048.1338,333.2969,1048.1338,59.2969" style="stroke:#181818;stroke-width:1.0;"/><line style="stroke:#181818;stroke-width:1.0;" x1="1713.1338" x2="1723.1338" y1="59.2969" y2="49.2969"/><line style="stroke:#181818;stroke-width:1.0;" x1="1048.1338" x2="1713.1338" y1="59.2969" y2="59.2969"/><line style="stroke:#181818;stroke-width:1.0;" x1="1713.1338" x2="1713.1338" y1="59.2969" y2="333.2969"/><text fill="#000000" font-family="sans-serif" font-size="14" font-style="italic" lengthAdjust="spacing" textLength="93" x="1335.1338" y="75.292">&#171;production&#187;</text><text fill="#000000" font-family="sans-serif" font-size="14" font-weight="bold" lengthAdjust="spacing" textLength="107" x="1328.1338" y="91.5889">User Desktop</text></g><!--cluster App--><g id="cluster_App"><rect fill="#D5E8D4" height="213" rx="2.5" ry="2.5" style="stroke:#181818;stroke-width:1.0;" width="314" x="1401.1338" y="112.2969"/><polygon fill="#D5E8D4" points="1698.1338,117.2969,1698.1338,131.2969,1710.1338,131.2969,1710.1338,123.2969,1704.1338,117.2969,1698.1338,117.2969" style="stroke:#181818;stroke-width:1.0;"/><line style="stroke:#181818;stroke-width:1.0;" x1="1704.1338" x2="1704.1338" y1="117.2969" y2="123.2969"/><line style="stroke:#181818;stroke-width:1.0;" x1="1710.1338" x2="1704.1338" y1="123.2969" y2="123.2969"/><text fill="#000000" font-family="sans-serif" font-size="14" font-style="italic" lengthAdjust="spacing" textLength="93" x="1511.6338" y="127.292">&#171;production&#187;</text><text fill="#000000" font-family="sans-serif" font-size="14" font-weight="bold" lengthAdjust="spacing" textLength="108" x="1504.1338" y="143.5889">ModBusX App</text></g><!--cluster UserData--><g id="cluster_UserData"><path d="M1082.1338,107.2969 C1082.1338,97.2969 1237.6338,97.2969 1237.6338,97.2969 C1237.6338,97.2969 1393.1338,97.2969 1393.1338,107.2969 L1393.1338,199.2969 C1393.1338,209.2969 1237.6338,209.2969 1237.6338,209.2969 C1237.6338,209.2969 1082.1338,209.2969 1082.1338,199.2969 L1082.1338,107.2969 " fill="#D5E8D4" style="stroke:#181818;stroke-width:1.0;"/><path d="M1082.1338,107.2969 C1082.1338,117.2969 1237.6338,117.2969 1237.6338,117.2969 C1237.6338,117.2969 1393.1338,117.2969 1393.1338,107.2969 " fill="none" style="stroke:#181818;stroke-width:1.0;"/><text fill="#000000" font-family="sans-serif" font-size="14" font-style="italic" lengthAdjust="spacing" textLength="93" x="1191.1338" y="132.292">&#171;production&#187;</text><text fill="#000000" font-family="sans-serif" font-size="14" font-weight="bold" lengthAdjust="spacing" textLength="77" x="1199.1338" y="148.5889">User Data</text></g><!--cluster Net--><g id="cluster_Net"><path d="M1739.6488,252.6449 C1752.0996,237.0767 1766.4121,240.6839 1775.3122,256.6592 C1783.2056,240.0564 1798.2701,241.2065 1807.4644,255.2965 C1813.9726,238.9444 1827.9611,238.1074 1838.715,250.715 C1848.584,236.0932 1861.2865,236.2913 1871.9296,249.8011 C1882.4085,236.7835 1893.219,236.2115 1900.8891,252.57 C1908.8233,234.5029 1924.928,234.0453 1936.0227,249.2308 C1946.6066,236.1343 1959.6793,234.4794 1969.3928,250.2374 C1978.315,238.5141 1988.9502,237.8782 1997.5403,250.6195 C2007.3338,235.3465 2020.7503,234.7322 2030.2696,250.9049 C2043.778,237.0324 2054.5338,238.0961 2065.8589,253.5542 C2075.5083,238.0776 2085.0964,241.8811 2094.6839,253.6198 C2104.7942,235.6015 2120.902,235.6473 2130.7154,253.9146 C2141.5611,240.6128 2153.2405,239.9117 2160.9364,257.0425 C2167.985,240.2452 2183.6604,236.365 2194.6984,253.0156 C2213.5638,263.1674 2213.2192,277.766 2197.3247,290.3622 C2211.7662,300.255 2209.4328,312.0016 2194.4569,318.9426 C2186.1686,331.0762 2171.8247,332.0188 2164.0192,318.3726 C2155.5882,335.4255 2141.5031,338.9885 2129.7526,321.6833 C2117.8817,336.3536 2107.8276,335.6964 2096.9396,320.5998 C2086.7676,336.1748 2075.5134,333.8202 2066.6517,319.2818 C2057.8991,338.5735 2043.7485,339.8344 2030.4394,323.9759 C2020.1033,336.5983 2006.2376,340.0985 1997.6371,322.1156 C1989.0245,335.8129 1979.0472,336.4644 1967.5861,325.6007 C1957.067,338.346 1944.3192,336.7425 1938.1408,321.0985 C1928.7505,336.5797 1918.59,339.5913 1905.5897,325.007 C1894.6405,337.2697 1880.5153,337.4373 1872.6371,321.4275 C1862.9464,336.3441 1848.2792,336.0145 1839.9841,319.9561 C1828.8745,334.2226 1815.0371,335.2145 1805.5168,318.2047 C1797.9537,331.0748 1785.321,330.2913 1777.0267,319.0695 C1769.2773,337.9884 1753.7788,339.2708 1742.1638,322.8868 C1723.1131,317.0185 1714.135,304.0904 1730.2465,286.6562 C1715.4761,270.4515 1722.1649,259.933 1739.6488,252.6449 " fill="none" style="stroke:#181818;stroke-width:1.0;"/><text fill="#000000" font-family="sans-serif" font-size="14" font-weight="bold" lengthAdjust="spacing" textLength="134" x="1898.1338" y="270.292">Modbus Network</text></g><!--cluster Deployment Environments--><g id="cluster_Deployment Environments"><path d="M2209.6338,101.2969 L2417.6338,101.2969 A3.75,3.75 0 0 1 2420.1338,103.7969 L2427.1338,123.5938 L3028.6338,123.5938 A2.5,2.5 0 0 1 3031.1338,126.0938 L3031.1338,647.2969 A2.5,2.5 0 0 1 3028.6338,649.7969 L2209.6338,649.7969 A2.5,2.5 0 0 1 2207.1338,647.2969 L2207.1338,103.7969 A2.5,2.5 0 0 1 2209.6338,101.2969 " fill="none" style="stroke:#000000;stroke-width:1.5;"/><line style="stroke:#000000;stroke-width:1.5;" x1="2207.1338" x2="2427.1338" y1="123.5938" y2="123.5938"/><text fill="#000000" font-family="sans-serif" font-size="14" font-weight="bold" lengthAdjust="spacing" textLength="207" x="2211.1338" y="116.292">Deployment Environments</text></g><!--cluster Development--><g id="cluster_Development"><rect fill="#E8F4FD" height="197" rx="2.5" ry="2.5" style="stroke:#181818;stroke-width:1.0;" width="376" x="2647.1338" y="128.2969"/><text fill="#000000" font-family="sans-serif" font-size="14" font-weight="bold" lengthAdjust="spacing" textLength="104" x="2783.1338" y="143.292">Development</text></g><!--cluster Staging--><g id="cluster_Staging"><rect fill="#FFF2CC" height="197" rx="2.5" ry="2.5" style="stroke:#181818;stroke-width:1.0;" width="424" x="2215.1338" y="128.2969"/><text fill="#000000" font-family="sans-serif" font-size="14" font-weight="bold" lengthAdjust="spacing" textLength="59" x="2397.6338" y="143.292">Staging</text></g><!--cluster Production--><g id="cluster_Production"><rect fill="#D5E8D4" height="250" rx="2.5" ry="2.5" style="stroke:#181818;stroke-width:1.0;" width="417" x="2606.1338" y="391.7969"/><text fill="#000000" font-family="sans-serif" font-size="14" font-weight="bold" lengthAdjust="spacing" textLength="86" x="2771.6338" y="406.792">Production</text></g><!--entity DevApp--><g id="elem_DevApp"><ellipse cx="196.1338" cy="175.2969" fill="#F1F1F1" rx="8" ry="8" style="stroke:#181818;stroke-width:0.5;"/><text fill="#000000" font-family="sans-serif" font-size="14" lengthAdjust="spacing" textLength="54" x="169.1338" y="205.292">DevApp</text></g><!--entity DevConfig--><g id="elem_DevConfig"><ellipse cx="71.1338" cy="291.2969" fill="#F1F1F1" rx="8" ry="8" style="stroke:#181818;stroke-width:0.5;"/><text fill="#000000" font-family="sans-serif" font-size="14" lengthAdjust="spacing" textLength="71" x="35.6338" y="321.292">DevConfig</text></g><!--entity DevTools--><g id="elem_DevTools"><ellipse cx="173.1338" cy="291.2969" fill="#F1F1F1" rx="8" ry="8" style="stroke:#181818;stroke-width:0.5;"/><text fill="#000000" font-family="sans-serif" font-size="14" lengthAdjust="spacing" textLength="65" x="140.6338" y="321.292">DevTools</text></g><!--entity ModbusNet--><g id="elem_ModbusNet"><ellipse cx="452.1338" cy="607.7969" fill="#F1F1F1" rx="8" ry="8" style="stroke:#181818;stroke-width:0.5;"/><text fill="#000000" font-family="sans-serif" font-size="14" lengthAdjust="spacing" textLength="80" x="412.1338" y="637.792">ModbusNet</text></g><!--entity ProdApp--><g id="elem_ProdApp"><ellipse cx="147.1338" cy="438.7969" fill="#F1F1F1" rx="8" ry="8" style="stroke:#181818;stroke-width:0.5;"/><text fill="#000000" font-family="sans-serif" font-size="14" lengthAdjust="spacing" textLength="59" x="117.6338" y="468.792">ProdApp</text></g><!--entity ProdData--><g id="elem_ProdData"><ellipse cx="172.1338" cy="607.7969" fill="#F1F1F1" rx="8" ry="8" style="stroke:#181818;stroke-width:0.5;"/><text fill="#000000" font-family="sans-serif" font-size="14" lengthAdjust="spacing" textLength="64" x="140.1338" y="637.792">ProdData</text></g><!--entity ProdDeps--><g id="elem_ProdDeps"><ellipse cx="247.1338" cy="607.7969" fill="#F1F1F1" rx="8" ry="8" style="stroke:#181818;stroke-width:0.5;"/><text fill="#000000" font-family="sans-serif" font-size="14" lengthAdjust="spacing" textLength="69" x="212.6338" y="637.792">ProdDeps</text></g><!--entity ServerApp--><g id="elem_ServerApp"><ellipse cx="1031.1338" cy="438.7969" fill="#F1F1F1" rx="8" ry="8" style="stroke:#181818;stroke-width:0.5;"/><text fill="#000000" font-family="sans-serif" font-size="14" lengthAdjust="spacing" textLength="71" x="995.6338" y="468.792">ServerApp</text></g><!--entity EntDB--><g id="elem_EntDB"><ellipse cx="1129.1338" cy="607.7969" fill="#F1F1F1" rx="8" ry="8" style="stroke:#181818;stroke-width:0.5;"/><text fill="#000000" font-family="sans-serif" font-size="14" lengthAdjust="spacing" textLength="44" x="1107.1338" y="637.792">EntDB</text></g><!--entity EntClients--><g id="elem_EntClients"><ellipse cx="1031.1338" cy="291.2969" fill="#F1F1F1" rx="8" ry="8" style="stroke:#181818;stroke-width:0.5;"/><text fill="#000000" font-family="sans-serif" font-size="14" lengthAdjust="spacing" textLength="70" x="996.1338" y="321.292">EntClients</text></g><!--entity Container--><g id="elem_Container"><ellipse cx="1031.1338" cy="607.7969" fill="#F1F1F1" rx="8" ry="8" style="stroke:#181818;stroke-width:0.5;"/><text fill="#000000" font-family="sans-serif" font-size="14" lengthAdjust="spacing" textLength="67" x="997.6338" y="637.792">Container</text></g><!--entity ClientApp--><g id="elem_ClientApp"><ellipse cx="696.1338" cy="175.2969" fill="#F1F1F1" rx="8" ry="8" style="stroke:#181818;stroke-width:0.5;"/><text fill="#000000" font-family="sans-serif" font-size="14" lengthAdjust="spacing" textLength="66" x="663.1338" y="205.292">ClientApp</text></g><!--entity Gateway--><g id="elem_Gateway"><ellipse cx="696.1338" cy="291.2969" fill="#F1F1F1" rx="8" ry="8" style="stroke:#181818;stroke-width:0.5;"/><text fill="#000000" font-family="sans-serif" font-size="14" lengthAdjust="spacing" textLength="59" x="666.6338" y="321.292">Gateway</text></g><!--entity Microservices--><g id="elem_Microservices"><ellipse cx="759.1338" cy="438.7969" fill="#F1F1F1" rx="8" ry="8" style="stroke:#181818;stroke-width:0.5;"/><text fill="#000000" font-family="sans-serif" font-size="14" lengthAdjust="spacing" textLength="94" x="712.1338" y="468.792">Microservices</text></g><!--entity CloudDB--><g id="elem_CloudDB"><ellipse cx="758.1338" cy="607.7969" fill="#F1F1F1" rx="8" ry="8" style="stroke:#181818;stroke-width:0.5;"/><text fill="#000000" font-family="sans-serif" font-size="14" lengthAdjust="spacing" textLength="61" x="727.6338" y="637.792">CloudDB</text></g><!--entity Monitoring--><g id="elem_Monitoring"><ellipse cx="822.1338" cy="291.2969" fill="#F1F1F1" rx="8" ry="8" style="stroke:#181818;stroke-width:0.5;"/><text fill="#000000" font-family="sans-serif" font-size="14" lengthAdjust="spacing" textLength="73" x="785.6338" y="321.292">Monitoring</text></g><!--entity EntServer--><g id="elem_EntServer"><ellipse cx="295.1338" cy="707.2969" fill="#F1F1F1" rx="8" ry="8" style="stroke:#181818;stroke-width:0.5;"/><text fill="#000000" font-family="sans-serif" font-size="14" lengthAdjust="spacing" textLength="67" x="261.6338" y="737.292">EntServer</text></g><!--entity CloudInfra--><g id="elem_CloudInfra"><ellipse cx="498.1338" cy="936.2969" fill="#F1F1F1" rx="8" ry="8" style="stroke:#181818;stroke-width:0.5;"/><text fill="#000000" font-family="sans-serif" font-size="14" lengthAdjust="spacing" textLength="69" x="463.6338" y="966.292">CloudInfra</text></g><g id="elem_GMN51"><path d="M174.1338,383.7969 L174.1338,499.7266 A0,0 0 0 0 174.1338,499.7266 L384.1453,499.7266 L449.0109,598.6727 L392.1453,499.7266 L424.1338,499.7266 A0,0 0 0 0 424.1338,499.7266 L424.1338,393.7969 L414.1338,383.7969 L174.1338,383.7969 A0,0 0 0 0 174.1338,383.7969 " fill="#FEFFDD" style="stroke:#181818;stroke-width:0.5;"/><path d="M414.1338,383.7969 L414.1338,393.7969 L424.1338,393.7969 L414.1338,383.7969 " fill="#FEFFDD" style="stroke:#181818;stroke-width:0.5;"/><text fill="#000000" font-family="sans-serif" font-size="13" font-weight="bold" lengthAdjust="spacing" textLength="194" x="180.1338" y="400.8638">ModBus Protocol Support:</text><text fill="#000000" font-family="sans-serif" font-size="13" lengthAdjust="spacing" textLength="165" x="180.1338" y="415.9966">&#8226; TCP/IP Server (Port 502)</text><text fill="#000000" font-family="sans-serif" font-size="13" lengthAdjust="spacing" textLength="204" x="180.1338" y="431.1294">&#8226; RTU Serial Server (COM ports)</text><text fill="#000000" font-family="sans-serif" font-size="13" lengthAdjust="spacing" textLength="212" x="180.1338" y="446.2622">&#8226; ASCII Serial Server (COM ports)</text><text fill="#000000" font-family="sans-serif" font-size="13" lengthAdjust="spacing" textLength="177" x="180.1338" y="461.395">&#8226; PyModbus 3.x Compatible</text><text fill="#000000" font-family="sans-serif" font-size="13" lengthAdjust="spacing" textLength="182" x="180.1338" y="476.5278">&#8226; Exclusive COM port access</text><text fill="#000000" font-family="sans-serif" font-size="13" lengthAdjust="spacing" textLength="229" x="180.1338" y="491.6606">&#8226; PLC &amp; Protocol addressing modes</text></g><g id="elem_GMN54"><path d="M479.1338,560.2969 L479.1338,653.0938 L304.4189,707.346 L479.1338,661.0938 L479.1338,661.0938 A0,0 0 0 0 479.1338,661.0938 L671.1338,661.0938 A0,0 0 0 0 671.1338,661.0938 L671.1338,570.2969 L661.1338,560.2969 L479.1338,560.2969 A0,0 0 0 0 479.1338,560.2969 " fill="#FEFFDD" style="stroke:#181818;stroke-width:0.5;"/><path d="M661.1338,560.2969 L661.1338,570.2969 L671.1338,570.2969 L661.1338,560.2969 " fill="#FEFFDD" style="stroke:#181818;stroke-width:0.5;"/><text fill="#000000" font-family="sans-serif" font-size="13" font-weight="bold" lengthAdjust="spacing" textLength="151" x="485.1338" y="577.3638">Enterprise Features:</text><text fill="#000000" font-family="sans-serif" font-size="13" lengthAdjust="spacing" textLength="123" x="485.1338" y="592.4966">&#8226; Multi-user access</text><text fill="#000000" font-family="sans-serif" font-size="13" lengthAdjust="spacing" textLength="164" x="485.1338" y="607.6294">&#8226; Role-based permissions</text><text fill="#000000" font-family="sans-serif" font-size="13" lengthAdjust="spacing" textLength="171" x="485.1338" y="622.7622">&#8226; Centralized configuration</text><text fill="#000000" font-family="sans-serif" font-size="13" lengthAdjust="spacing" textLength="154" x="485.1338" y="637.895">&#8226; Historical data logging</text><text fill="#000000" font-family="sans-serif" font-size="13" lengthAdjust="spacing" textLength="83" x="485.1338" y="653.0278">&#8226; RESTful API</text></g><g id="elem_GMN57"><path d="M414.6338,774.2969 L414.6338,875.0938 A0,0 0 0 0 414.6338,875.0938 L494.1338,875.0938 L498.1338,927.2665 L502.1338,875.0938 L581.6338,875.0938 A0,0 0 0 0 581.6338,875.0938 L581.6338,784.2969 L571.6338,774.2969 L414.6338,774.2969 A0,0 0 0 0 414.6338,774.2969 " fill="#FEFFDD" style="stroke:#181818;stroke-width:0.5;"/><path d="M571.6338,774.2969 L571.6338,784.2969 L581.6338,784.2969 L571.6338,774.2969 " fill="#FEFFDD" style="stroke:#181818;stroke-width:0.5;"/><text fill="#000000" font-family="sans-serif" font-size="13" font-weight="bold" lengthAdjust="spacing" textLength="113" x="420.6338" y="791.3638">Cloud Benefits:</text><text fill="#000000" font-family="sans-serif" font-size="13" lengthAdjust="spacing" textLength="91" x="420.6338" y="806.4966">&#8226; Auto-scaling</text><text fill="#000000" font-family="sans-serif" font-size="13" lengthAdjust="spacing" textLength="111" x="420.6338" y="821.6294">&#8226; High availability</text><text fill="#000000" font-family="sans-serif" font-size="13" lengthAdjust="spacing" textLength="132" x="420.6338" y="836.7622">&#8226; Global deployment</text><text fill="#000000" font-family="sans-serif" font-size="13" lengthAdjust="spacing" textLength="127" x="420.6338" y="851.895">&#8226; Managed services</text><text fill="#000000" font-family="sans-serif" font-size="13" lengthAdjust="spacing" textLength="146" x="420.6338" y="867.0278">&#8226; Monitoring &amp; alerting</text></g><g id="elem_SecurityNote"><path d="M480.6338,376.2969 L480.6338,507.3594 A0,0 0 0 0 480.6338,507.3594 L513.8784,507.3594 L454.5218,598.4149 L521.8784,507.3594 L731.6338,507.3594 A0,0 0 0 0 731.6338,507.3594 L731.6338,386.2969 L721.6338,376.2969 L480.6338,376.2969 A0,0 0 0 0 480.6338,376.2969 " fill="#FEFFDD" style="stroke:#181818;stroke-width:0.5;"/><path d="M721.6338,376.2969 L721.6338,386.2969 L731.6338,386.2969 L721.6338,376.2969 " fill="#FEFFDD" style="stroke:#181818;stroke-width:0.5;"/><text fill="#000000" font-family="sans-serif" font-size="13" font-weight="bold" lengthAdjust="spacing" textLength="179" x="486.6338" y="393.3638">Security Considerations:</text><text fill="#000000" font-family="sans-serif" font-size="13" lengthAdjust="spacing" textLength="230" x="486.6338" y="408.4966">&#8226; ModBus protocol security (limited)</text><text fill="#000000" font-family="sans-serif" font-size="13" lengthAdjust="spacing" textLength="210" x="486.6338" y="423.6294">&#8226; VPN tunnels for remote access</text><text fill="#000000" font-family="sans-serif" font-size="13" lengthAdjust="spacing" textLength="217" x="486.6338" y="438.7622">&#8226; Certificate-based authentication</text><text fill="#000000" font-family="sans-serif" font-size="13" lengthAdjust="spacing" textLength="157" x="486.6338" y="453.895">&#8226; Network segmentation</text><text fill="#000000" font-family="sans-serif" font-size="13" lengthAdjust="spacing" textLength="95" x="486.6338" y="469.0278">&#8226; Audit logging</text><text fill="#000000" font-family="sans-serif" font-size="13" lengthAdjust="spacing" textLength="179" x="486.6338" y="484.1606">&#8226; Role-based access control</text><text fill="#000000" font-family="sans-serif" font-size="13" lengthAdjust="spacing" textLength="216" x="486.6338" y="499.2935">&#8226; Encrypted configuration storage</text></g><g id="elem_ScalabilityNote"><path d="M600.1338,759.2969 L600.1338,882.3594 L507.1656,933.801 L600.1338,890.3594 L600.1338,890.3594 A0,0 0 0 0 600.1338,890.3594 L848.1338,890.3594 A0,0 0 0 0 848.1338,890.3594 L848.1338,769.2969 L838.1338,759.2969 L600.1338,759.2969 A0,0 0 0 0 600.1338,759.2969 " fill="#FEFFDD" style="stroke:#181818;stroke-width:0.5;"/><path d="M838.1338,759.2969 L838.1338,769.2969 L848.1338,769.2969 L838.1338,759.2969 " fill="#FEFFDD" style="stroke:#181818;stroke-width:0.5;"/><text fill="#000000" font-family="sans-serif" font-size="13" font-weight="bold" lengthAdjust="spacing" textLength="148" x="606.1338" y="776.3638">Scalability Patterns:</text><text fill="#000000" font-family="sans-serif" font-size="13" lengthAdjust="spacing" textLength="227" x="606.1338" y="791.4966">&#8226; Horizontal scaling (microservices)</text><text fill="#000000" font-family="sans-serif" font-size="13" lengthAdjust="spacing" textLength="134" x="606.1338" y="806.6294">&#8226; Connection pooling</text><text fill="#000000" font-family="sans-serif" font-size="13" lengthAdjust="spacing" textLength="131" x="606.1338" y="821.7622">&#8226; Caching strategies</text><text fill="#000000" font-family="sans-serif" font-size="13" lengthAdjust="spacing" textLength="122" x="606.1338" y="836.895">&#8226; Async operations</text><text fill="#000000" font-family="sans-serif" font-size="13" lengthAdjust="spacing" textLength="108" x="606.1338" y="852.0278">&#8226; Load balancing</text><text fill="#000000" font-family="sans-serif" font-size="13" lengthAdjust="spacing" textLength="133" x="606.1338" y="867.1606">&#8226; Database sharding</text><text fill="#000000" font-family="sans-serif" font-size="13" lengthAdjust="spacing" textLength="173" x="606.1338" y="882.2935">&#8226; Event-driven architecture</text></g><!--entity PyQt5 UI--><g id="elem_PyQt5 UI"><rect fill="#F1F1F1" height="46.2969" rx="2.5" ry="2.5" style="stroke:#181818;stroke-width:0.5;" width="98" x="1409.1338" y="155.2969"/><rect fill="#F1F1F1" height="10" style="stroke:#181818;stroke-width:0.5;" width="15" x="1487.1338" y="160.2969"/><rect fill="#F1F1F1" height="2" style="stroke:#181818;stroke-width:0.5;" width="4" x="1485.1338" y="162.2969"/><rect fill="#F1F1F1" height="2" style="stroke:#181818;stroke-width:0.5;" width="4" x="1485.1338" y="166.2969"/><text fill="#000000" font-family="sans-serif" font-size="14" lengthAdjust="spacing" textLength="58" x="1424.1338" y="188.292">PyQt5 UI</text></g><!--entity AsyncModbusServer--><g id="elem_AsyncModbusServer"><rect fill="#F1F1F1" height="46.2969" rx="2.5" ry="2.5" style="stroke:#181818;stroke-width:0.5;" width="181" x="1525.6338" y="155.2969"/><rect fill="#F1F1F1" height="10" style="stroke:#181818;stroke-width:0.5;" width="15" x="1686.6338" y="160.2969"/><rect fill="#F1F1F1" height="2" style="stroke:#181818;stroke-width:0.5;" width="4" x="1684.6338" y="162.2969"/><rect fill="#F1F1F1" height="2" style="stroke:#181818;stroke-width:0.5;" width="4" x="1684.6338" y="166.2969"/><text fill="#000000" font-family="sans-serif" font-size="14" lengthAdjust="spacing" textLength="141" x="1540.6338" y="188.292">AsyncModbusServer</text></g><!--entity PyModbus--><g id="elem_PyModbus"><rect fill="#F1F1F1" height="46.2969" rx="2.5" ry="2.5" style="stroke:#181818;stroke-width:0.5;" width="112" x="1409.1338" y="271.2969"/><rect fill="#F1F1F1" height="10" style="stroke:#181818;stroke-width:0.5;" width="15" x="1501.1338" y="276.2969"/><rect fill="#F1F1F1" height="2" style="stroke:#181818;stroke-width:0.5;" width="4" x="1499.1338" y="278.2969"/><rect fill="#F1F1F1" height="2" style="stroke:#181818;stroke-width:0.5;" width="4" x="1499.1338" y="282.2969"/><text fill="#000000" font-family="sans-serif" font-size="14" lengthAdjust="spacing" textLength="72" x="1424.1338" y="304.292">PyModbus</text></g><!--entity ~/.modbusx/logs--><g id="elem_~/.modbusx/logs"><rect fill="#F1F1F1" height="46.2969" rx="2.5" ry="2.5" style="stroke:#181818;stroke-width:0.5;" width="147" x="1237.6338" y="155.2969"/><rect fill="#F1F1F1" height="10" style="stroke:#181818;stroke-width:0.5;" width="15" x="1364.6338" y="160.2969"/><rect fill="#F1F1F1" height="2" style="stroke:#181818;stroke-width:0.5;" width="4" x="1362.6338" y="162.2969"/><rect fill="#F1F1F1" height="2" style="stroke:#181818;stroke-width:0.5;" width="4" x="1362.6338" y="166.2969"/><text fill="#000000" font-family="sans-serif" font-size="14" lengthAdjust="spacing" textLength="107" x="1252.6338" y="188.292">/.modbusx/logs</text></g><!--entity settings.json--><g id="elem_settings.json"><rect fill="#F1F1F1" height="46.2969" rx="2.5" ry="2.5" style="stroke:#181818;stroke-width:0.5;" width="129" x="1090.6338" y="155.2969"/><rect fill="#F1F1F1" height="10" style="stroke:#181818;stroke-width:0.5;" width="15" x="1199.6338" y="160.2969"/><rect fill="#F1F1F1" height="2" style="stroke:#181818;stroke-width:0.5;" width="4" x="1197.6338" y="162.2969"/><rect fill="#F1F1F1" height="2" style="stroke:#181818;stroke-width:0.5;" width="4" x="1197.6338" y="166.2969"/><text fill="#000000" font-family="sans-serif" font-size="14" lengthAdjust="spacing" textLength="89" x="1105.6338" y="188.292">settings.json</text></g><!--entity MasterTCP--><g id="elem_MasterTCP"><polygon fill="#E8F4FD" points="2001.6338,281.2969,2011.6338,271.2969,2190.6338,271.2969,2190.6338,307.5938,2180.6338,317.5938,2001.6338,317.5938,2001.6338,281.2969" style="stroke:#181818;stroke-width:0.5;"/><line style="stroke:#181818;stroke-width:0.5;" x1="2180.6338" x2="2190.6338" y1="281.2969" y2="271.2969"/><line style="stroke:#181818;stroke-width:0.5;" x1="2001.6338" x2="2180.6338" y1="281.2969" y2="281.2969"/><line style="stroke:#181818;stroke-width:0.5;" x1="2180.6338" x2="2180.6338" y1="281.2969" y2="317.5938"/><text fill="#000000" font-family="sans-serif" font-size="14" lengthAdjust="spacing" textLength="149" x="2016.6338" y="304.292">Modbus Master (TCP)</text></g><!--entity MasterSER--><g id="elem_MasterSER"><polygon fill="#E8F4FD" points="1739.1338,281.2969,1749.1338,271.2969,1949.1338,271.2969,1949.1338,307.5938,1939.1338,317.5938,1739.1338,317.5938,1739.1338,281.2969" style="stroke:#181818;stroke-width:0.5;"/><line style="stroke:#181818;stroke-width:0.5;" x1="1939.1338" x2="1949.1338" y1="281.2969" y2="271.2969"/><line style="stroke:#181818;stroke-width:0.5;" x1="1739.1338" x2="1939.1338" y1="281.2969" y2="281.2969"/><line style="stroke:#181818;stroke-width:0.5;" x1="1939.1338" x2="1939.1338" y1="281.2969" y2="317.5938"/><text fill="#000000" font-family="sans-serif" font-size="14" lengthAdjust="spacing" textLength="170" x="1754.1338" y="304.292">Serial Master (RTU/ASCII)</text></g><!--entity Local development--><g id="elem_Local development"><rect fill="#F1F1F1" height="46.2969" rx="2.5" ry="2.5" style="stroke:#181818;stroke-width:0.5;" width="170" x="2655.1338" y="155.2969"/><rect fill="#F1F1F1" height="10" style="stroke:#181818;stroke-width:0.5;" width="15" x="2805.1338" y="160.2969"/><rect fill="#F1F1F1" height="2" style="stroke:#181818;stroke-width:0.5;" width="4" x="2803.1338" y="162.2969"/><rect fill="#F1F1F1" height="2" style="stroke:#181818;stroke-width:0.5;" width="4" x="2803.1338" y="166.2969"/><text fill="#000000" font-family="sans-serif" font-size="14" lengthAdjust="spacing" textLength="130" x="2670.1338" y="188.292">Local development</text></g><!--entity Unit testing--><g id="elem_Unit testing"><rect fill="#F1F1F1" height="46.2969" rx="2.5" ry="2.5" style="stroke:#181818;stroke-width:0.5;" width="119" x="2843.6338" y="155.2969"/><rect fill="#F1F1F1" height="10" style="stroke:#181818;stroke-width:0.5;" width="15" x="2942.6338" y="160.2969"/><rect fill="#F1F1F1" height="2" style="stroke:#181818;stroke-width:0.5;" width="4" x="2940.6338" y="162.2969"/><rect fill="#F1F1F1" height="2" style="stroke:#181818;stroke-width:0.5;" width="4" x="2940.6338" y="166.2969"/><text fill="#000000" font-family="sans-serif" font-size="14" lengthAdjust="spacing" textLength="79" x="2858.6338" y="188.292">Unit testing</text></g><!--entity Integration testing--><g id="elem_Integration testing"><rect fill="#F1F1F1" height="46.2969" rx="2.5" ry="2.5" style="stroke:#181818;stroke-width:0.5;" width="166" x="2655.1338" y="271.2969"/><rect fill="#F1F1F1" height="10" style="stroke:#181818;stroke-width:0.5;" width="15" x="2801.1338" y="276.2969"/><rect fill="#F1F1F1" height="2" style="stroke:#181818;stroke-width:0.5;" width="4" x="2799.1338" y="278.2969"/><rect fill="#F1F1F1" height="2" style="stroke:#181818;stroke-width:0.5;" width="4" x="2799.1338" y="282.2969"/><text fill="#000000" font-family="sans-serif" font-size="14" lengthAdjust="spacing" textLength="126" x="2670.1338" y="304.292">Integration testing</text></g><!--entity Diagram generation--><g id="elem_Diagram generation"><rect fill="#F1F1F1" height="46.2969" rx="2.5" ry="2.5" style="stroke:#181818;stroke-width:0.5;" width="176" x="2839.1338" y="271.2969"/><rect fill="#F1F1F1" height="10" style="stroke:#181818;stroke-width:0.5;" width="15" x="2995.1338" y="276.2969"/><rect fill="#F1F1F1" height="2" style="stroke:#181818;stroke-width:0.5;" width="4" x="2993.1338" y="278.2969"/><rect fill="#F1F1F1" height="2" style="stroke:#181818;stroke-width:0.5;" width="4" x="2993.1338" y="282.2969"/><text fill="#000000" font-family="sans-serif" font-size="14" lengthAdjust="spacing" textLength="136" x="2854.1338" y="304.292">Diagram generation</text></g><!--entity User acceptance testing--><g id="elem_User acceptance testing"><rect fill="#F1F1F1" height="46.2969" rx="2.5" ry="2.5" style="stroke:#181818;stroke-width:0.5;" width="209" x="2223.6338" y="155.2969"/><rect fill="#F1F1F1" height="10" style="stroke:#181818;stroke-width:0.5;" width="15" x="2412.6338" y="160.2969"/><rect fill="#F1F1F1" height="2" style="stroke:#181818;stroke-width:0.5;" width="4" x="2410.6338" y="162.2969"/><rect fill="#F1F1F1" height="2" style="stroke:#181818;stroke-width:0.5;" width="4" x="2410.6338" y="166.2969"/><text fill="#000000" font-family="sans-serif" font-size="14" lengthAdjust="spacing" textLength="169" x="2238.6338" y="188.292">User acceptance testing</text></g><!--entity Performance testing--><g id="elem_Performance testing"><rect fill="#F1F1F1" height="46.2969" rx="2.5" ry="2.5" style="stroke:#181818;stroke-width:0.5;" width="180" x="2451.1338" y="155.2969"/><rect fill="#F1F1F1" height="10" style="stroke:#181818;stroke-width:0.5;" width="15" x="2611.1338" y="160.2969"/><rect fill="#F1F1F1" height="2" style="stroke:#181818;stroke-width:0.5;" width="4" x="2609.1338" y="162.2969"/><rect fill="#F1F1F1" height="2" style="stroke:#181818;stroke-width:0.5;" width="4" x="2609.1338" y="166.2969"/><text fill="#000000" font-family="sans-serif" font-size="14" lengthAdjust="spacing" textLength="140" x="2466.1338" y="188.292">Performance testing</text></g><!--entity Security testing--><g id="elem_Security testing"><rect fill="#F1F1F1" height="46.2969" rx="2.5" ry="2.5" style="stroke:#181818;stroke-width:0.5;" width="147" x="2254.6338" y="271.2969"/><rect fill="#F1F1F1" height="10" style="stroke:#181818;stroke-width:0.5;" width="15" x="2381.6338" y="276.2969"/><rect fill="#F1F1F1" height="2" style="stroke:#181818;stroke-width:0.5;" width="4" x="2379.6338" y="278.2969"/><rect fill="#F1F1F1" height="2" style="stroke:#181818;stroke-width:0.5;" width="4" x="2379.6338" y="282.2969"/><text fill="#000000" font-family="sans-serif" font-size="14" lengthAdjust="spacing" textLength="107" x="2269.6338" y="304.292">Security testing</text></g><!--entity Documentation review--><g id="elem_Documentation review"><rect fill="#F1F1F1" height="46.2969" rx="2.5" ry="2.5" style="stroke:#181818;stroke-width:0.5;" width="195" x="2419.6338" y="271.2969"/><rect fill="#F1F1F1" height="10" style="stroke:#181818;stroke-width:0.5;" width="15" x="2594.6338" y="276.2969"/><rect fill="#F1F1F1" height="2" style="stroke:#181818;stroke-width:0.5;" width="4" x="2592.6338" y="278.2969"/><rect fill="#F1F1F1" height="2" style="stroke:#181818;stroke-width:0.5;" width="4" x="2592.6338" y="282.2969"/><text fill="#000000" font-family="sans-serif" font-size="14" lengthAdjust="spacing" textLength="155" x="2434.6338" y="304.292">Documentation review</text></g><!--entity Desktop deployment--><g id="elem_Desktop deployment"><rect fill="#F1F1F1" height="46.2969" rx="2.5" ry="2.5" style="stroke:#181818;stroke-width:0.5;" width="185" x="2614.6338" y="418.7969"/><rect fill="#F1F1F1" height="10" style="stroke:#181818;stroke-width:0.5;" width="15" x="2779.6338" y="423.7969"/><rect fill="#F1F1F1" height="2" style="stroke:#181818;stroke-width:0.5;" width="4" x="2777.6338" y="425.7969"/><rect fill="#F1F1F1" height="2" style="stroke:#181818;stroke-width:0.5;" width="4" x="2777.6338" y="429.7969"/><text fill="#000000" font-family="sans-serif" font-size="14" lengthAdjust="spacing" textLength="145" x="2629.6338" y="451.792">Desktop deployment</text></g><!--entity Enterprise deployment--><g id="elem_Enterprise deployment"><rect fill="#F1F1F1" height="46.2969" rx="2.5" ry="2.5" style="stroke:#181818;stroke-width:0.5;" width="197" x="2817.6338" y="418.7969"/><rect fill="#F1F1F1" height="10" style="stroke:#181818;stroke-width:0.5;" width="15" x="2994.6338" y="423.7969"/><rect fill="#F1F1F1" height="2" style="stroke:#181818;stroke-width:0.5;" width="4" x="2992.6338" y="425.7969"/><rect fill="#F1F1F1" height="2" style="stroke:#181818;stroke-width:0.5;" width="4" x="2992.6338" y="429.7969"/><text fill="#000000" font-family="sans-serif" font-size="14" lengthAdjust="spacing" textLength="157" x="2832.6338" y="451.792">Enterprise deployment</text></g><!--entity Cloud deployment--><g id="elem_Cloud deployment"><rect fill="#F1F1F1" height="46.2969" rx="2.5" ry="2.5" style="stroke:#181818;stroke-width:0.5;" width="166" x="2624.1338" y="587.7969"/><rect fill="#F1F1F1" height="10" style="stroke:#181818;stroke-width:0.5;" width="15" x="2770.1338" y="592.7969"/><rect fill="#F1F1F1" height="2" style="stroke:#181818;stroke-width:0.5;" width="4" x="2768.1338" y="594.7969"/><rect fill="#F1F1F1" height="2" style="stroke:#181818;stroke-width:0.5;" width="4" x="2768.1338" y="598.7969"/><text fill="#000000" font-family="sans-serif" font-size="14" lengthAdjust="spacing" textLength="126" x="2639.1338" y="620.792">Cloud deployment</text></g><!--entity Monitoring & support--><g id="elem_Monitoring &amp; support"><rect fill="#F1F1F1" height="46.2969" rx="2.5" ry="2.5" style="stroke:#181818;stroke-width:0.5;" width="187" x="2808.6338" y="587.7969"/><rect fill="#F1F1F1" height="10" style="stroke:#181818;stroke-width:0.5;" width="15" x="2975.6338" y="592.7969"/><rect fill="#F1F1F1" height="2" style="stroke:#181818;stroke-width:0.5;" width="4" x="2973.6338" y="594.7969"/><rect fill="#F1F1F1" height="2" style="stroke:#181818;stroke-width:0.5;" width="4" x="2973.6338" y="598.7969"/><text fill="#000000" font-family="sans-serif" font-size="14" lengthAdjust="spacing" textLength="147" x="2823.6338" y="620.792">Monitoring &amp; support</text></g><polygon fill="#181818" points="1957.6568,243.9401,1952.8119,235.3653,1953.6412,240.9611,1948.0454,241.7903,1957.6568,243.9401" style="stroke:#181818;stroke-width:1.0;"/><path d="M1724.9328,210.6927 C1726.3598,210.6535 1727.7868,210.6158 1729.2135,210.5797 C1732.0668,210.5075 1734.9191,210.4417 1737.7689,210.3829 C1783.3654,209.4421 1828.3257,210.2857 1866.9524,215.182 C1886.2657,217.6302 1903.9956,221.0915 1919.4299,225.8494 C1927.147,228.2284 1934.2903,230.9316 1940.7706,233.9943 C1944.0108,235.5257 1947.0852,237.147 1949.9828,238.8626 C1951.4316,239.7204 1952.8362,240.6018 1954.1951,241.5073 C1954.8746,241.9601 1955.5427,242.4189 1956.1992,242.8838 C1956.5275,243.1162 1956.8528,243.3502 1957.1753,243.5857 C1957.3365,243.7035 1952.6783,240.2467 1952.838,240.3652 " fill="none" style="stroke:#181818;stroke-width:1.0;"/><text fill="#000000" font-family="sans-serif" font-size="13" lengthAdjust="spacing" textLength="52" x="1943.1338" y="232.3638">TCP 502</text><polygon fill="#181818" points="1798.3407,271.2799,1791.6839,264.0214,1793.7559,269.2851,1788.4922,271.3571,1798.3407,271.2799" style="stroke:#181818;stroke-width:1.0;"/><path d="M1723.2761,245.2333 C1723.3826,245.2583 1723.4892,245.2834 1723.5957,245.3085 C1723.8089,245.3587 1724.0221,245.4093 1724.2354,245.4601 C1725.9417,245.8669 1727.6533,246.2921 1729.3683,246.7343 C1732.7983,247.6188 1736.2418,248.5714 1739.6842,249.5803 C1746.5689,251.598 1753.4491,253.841 1760.2067,256.215 C1773.7221,260.9632 1781.2458,263.842 1792.8389,268.8861 " fill="none" style="stroke:#181818;stroke-width:1.0;"/><text fill="#000000" font-family="sans-serif" font-size="13" lengthAdjust="spacing" textLength="101" x="1396.1338" y="232.3638">Serial (COM/tty)</text><polygon fill="#181818" points="70.776,282.0444,74.8367,273.0716,70.8097,277.0445,66.8368,273.0176,70.776,282.0444" style="stroke:#181818;stroke-width:1.0;"/><path d="M187.1032,179.9139 C166.4652,181.8269 115.5927,189.4819 89.1338,219.2969 C73.4247,236.9986 70.924,260.1248 70.8165,276.0445 " fill="none" style="stroke:#181818;stroke-width:1.0;"/><text fill="#000000" font-family="sans-serif" font-size="13" lengthAdjust="spacing" textLength="77" x="90.1338" y="232.3638">reads/writes</text><polygon fill="#181818" points="171.6467,282.2891,174.638,272.9055,171.0997,277.3191,166.6861,273.7807,171.6467,282.2891" style="stroke:#181818;stroke-width:1.0;"/><path d="M187.9778,190.5547 C182.9228,198.2377 176.8858,208.8754 174.1338,219.2969 C168.3931,241.0364 169.3773,261.6701 170.9903,276.3251 " fill="none" style="stroke:#181818;stroke-width:1.0;"/><text fill="#000000" font-family="sans-serif" font-size="13" lengthAdjust="spacing" textLength="30" x="175.1338" y="232.3638">uses</text><polygon fill="#181818" points="453.2269,598.6659,457.9848,590.0426,453.6561,593.6844,450.0143,589.3557,453.2269,598.6659" style="stroke:#181818;stroke-width:1.0;"/><path d="M205.2034,181.5256 C229.4939,187.8535 297.1556,207.8695 341.1338,244.2969 C396.2053,289.9128 408.9534,308.9991 433.1338,376.2969 C462.29,457.4429 456.7014,558.3452 453.742,592.6881 " fill="none" style="stroke:#181818;stroke-width:1.0;stroke-dasharray:7.0,7.0;"/><text fill="#000000" font-family="sans-serif" font-size="13" lengthAdjust="spacing" textLength="125" x="428.1338" y="354.3638">TCP/502, RTU/Serial</text><polygon fill="#181818" points="167.9694,598.7543,168.3538,588.913,166.1186,594.1095,160.922,591.8743,167.9694,598.7543" style="stroke:#181818;stroke-width:1.0;"/><path d="M142.3927,453.9096 C135.0921,472.6928 123.0436,511.6652 134.1338,542.2969 C137.6789,552.0885 143.5595,551.5008 149.1338,560.2969 C157.0469,572.7834 161.6357,582.8594 165.7484,593.1805 " fill="none" style="stroke:#181818;stroke-width:1.0;"/><text fill="#000000" font-family="sans-serif" font-size="13" lengthAdjust="spacing" textLength="89" x="135.1338" y="538.3638">stores configs</text><polygon fill="#181818" points="247.487,598.5624,251.4527,589.5473,247.4679,593.5625,243.4527,589.5777,247.487,598.5624" style="stroke:#181818;stroke-width:1.0;"/><path d="M147.1311,453.9655 C147.7437,468.2479 150.9686,492.8555 165.1338,507.2969 C184.6293,527.1725 205.8125,505.252 225.1338,525.2969 C244.5965,545.4884 247.3958,574.6255 247.4641,592.5625 " fill="none" style="stroke:#181818;stroke-width:1.0;"/><text fill="#000000" font-family="sans-serif" font-size="13" lengthAdjust="spacing" textLength="30" x="237.1338" y="538.3638">uses</text><polygon fill="#181818" points="442.9475,606.2913,435.9942,599.3162,438.2835,604.4891,433.1107,606.7785,442.9475,606.2913" style="stroke:#181818;stroke-width:1.0;"/><path d="M146.8571,453.9955 C147.1514,468.5448 150.0093,493.6891 165.1338,507.2969 C200.9834,539.5512 227.0747,508.1153 272.1338,525.2969 C285.3838,530.3492 286.6133,535.6394 299.1338,542.2969 C351.9401,570.3755 413.2355,594.8102 437.3508,604.1286 " fill="none" style="stroke:#181818;stroke-width:1.0;stroke-dasharray:7.0,7.0;"/><text fill="#000000" font-family="sans-serif" font-size="13" lengthAdjust="spacing" textLength="108" x="300.1338" y="538.3638">ModBus TCP/RTU</text><polygon fill="#181818" points="1127.9948,598.7678,1130.8445,589.3403,1127.373,593.8066,1122.9066,590.3351,1127.9948,598.7678" style="stroke:#181818;stroke-width:1.0;"/><path d="M1040.1494,449.9437 C1056.1305,463.1054 1089.4092,492.8178 1107.1338,525.2969 C1120.3503,549.515 1125.148,576.0536 1127.2486,592.8144 " fill="none" style="stroke:#181818;stroke-width:1.0;"/><text fill="#000000" font-family="sans-serif" font-size="13" lengthAdjust="spacing" textLength="73" x="1115.1338" y="538.3638">stores data</text><polygon fill="#181818" points="452.7545,598.6531,457.7311,590.1541,453.3108,593.6842,449.7808,589.2639,452.7545,598.6531" style="stroke:#181818;stroke-width:1.0;"/><path d="M1021.7404,449.402 C992.3186,469.9483 901.9013,531.9762 868.1338,542.2969 C825.7996,555.236 505.8088,534.088 470.1338,560.2969 C458.0481,569.1758 454.7277,581.0307 453.4221,592.6904 " fill="none" style="stroke:#181818;stroke-width:1.0;stroke-dasharray:7.0,7.0;"/><text fill="#000000" font-family="sans-serif" font-size="13" lengthAdjust="spacing" textLength="116" x="902.1338" y="538.3638">proxy connections</text><polygon fill="#181818" points="1031.1338,429.4328,1035.1338,420.4328,1031.1338,424.4328,1027.1338,420.4328,1031.1338,429.4328" style="stroke:#181818;stroke-width:1.0;"/><path d="M1031.1338,306.714 C1031.1338,333.9131 1031.1338,396.2873 1031.1338,423.4328 " fill="none" style="stroke:#181818;stroke-width:1.0;"/><text fill="#000000" font-family="sans-serif" font-size="13" lengthAdjust="spacing" textLength="101" x="1032.1338" y="354.3638">HTTPS/REST API</text><polygon fill="#181818" points="1031.1338,598.629,1035.1338,589.629,1031.1338,593.629,1027.1338,589.629,1031.1338,598.629" style="stroke:#181818;stroke-width:1.0;"/><path d="M1031.1338,454.0135 C1031.1338,484.4364 1031.1338,562.2634 1031.1338,592.629 " fill="none" style="stroke:#181818;stroke-width:1.0;"/><text fill="#000000" font-family="sans-serif" font-size="13" lengthAdjust="spacing" textLength="73" x="1032.1338" y="538.3638">deployed in</text><polygon fill="#181818" points="696.1338,281.9952,700.1338,272.9952,696.1338,276.9952,692.1338,272.9952,696.1338,281.9952" style="stroke:#181818;stroke-width:1.0;"/><path d="M696.1338,190.6444 C696.1338,212.4959 696.1338,254.18 696.1338,275.9952 " fill="none" style="stroke:#181818;stroke-width:1.0;"/><text fill="#000000" font-family="sans-serif" font-size="13" lengthAdjust="spacing" textLength="97" x="697.1338" y="232.3638">HTTPS/API calls</text><polygon fill="#181818" points="758.6662,429.3518,761.9133,420.0535,758.2554,424.3687,753.9403,420.7108,758.6662,429.3518" style="stroke:#181818;stroke-width:1.0;"/><path d="M692.8671,306.6358 C689.6886,320.1689 686.7088,342.8977 697.1338,358.2969 C708.7484,375.4531 726.3113,360.8641 740.1338,376.2969 C753.5299,391.2535 757.0089,409.2488 758.1733,423.372 " fill="none" style="stroke:#181818;stroke-width:1.0;"/><text fill="#000000" font-family="sans-serif" font-size="13" lengthAdjust="spacing" textLength="101" x="698.1338" y="354.3638">routes requests</text><polygon fill="#181818" points="758.2007,598.629,762.2545,589.6532,758.2307,593.6291,754.2547,589.6053,758.2007,598.629" style="stroke:#181818;stroke-width:1.0;"/><path d="M759.0667,454.0135 C758.8845,484.4364 758.4185,562.2635 758.2366,592.6291 " fill="none" style="stroke:#181818;stroke-width:1.0;"/><text fill="#000000" font-family="sans-serif" font-size="13" lengthAdjust="spacing" textLength="107" x="760.1338" y="538.3638">data persistence</text><polygon fill="#181818" points="453.0802,598.5726,458.2805,590.2085,453.7681,593.6201,450.3566,589.1078,453.0802,598.5726" style="stroke:#181818;stroke-width:1.0;"/><path d="M759.1659,453.9495 C758.5673,468.4478 755.2326,493.5358 740.1338,507.2969 C728.8359,517.5938 481.747,550.3568 470.1338,560.2969 C458.8797,569.9297 455.4865,581.2504 453.9057,592.6296 " fill="none" style="stroke:#181818;stroke-width:1.0;stroke-dasharray:7.0,7.0;"/><text fill="#000000" font-family="sans-serif" font-size="13" lengthAdjust="spacing" textLength="94" x="652.1338" y="538.3638">secure tunnels</text><polygon fill="#181818" points="765.1557,429.7948,772.9475,423.7708,767.5284,425.3936,765.9056,419.9745,765.1557,429.7948" style="stroke:#181818;stroke-width:1.0;"/><path d="M818.656,306.6098 C814.6325,319.3451 807.598,340.573 800.1338,358.2969 C789.0841,384.5347 776.4258,408.8895 768.0029,424.5134 " fill="none" style="stroke:#181818;stroke-width:1.0;"/><text fill="#000000" font-family="sans-serif" font-size="13" lengthAdjust="spacing" textLength="101" x="808.1338" y="354.3638">monitors health</text><polygon fill="#181818" points="149.3053,429.5274,155.0651,421.5383,150.3301,424.6335,147.2349,419.8986,149.3053,429.5274" style="stroke:#181818;stroke-width:1.0;"/><path d="M199.6786,190.366 C202.0335,198.3201 204.9094,209.3505 206.1338,219.2969 C207.057,226.7958 206.7129,228.7635 206.1338,236.2969 C202.7907,279.7921 206.036,292.2976 191.1338,333.2969 C183.5047,354.2864 173.9948,355.7969 165.1338,376.2969 C157.3845,394.2251 153.284,410.5277 150.5351,423.6548 " fill="none" style="stroke:#181818;stroke-width:1.0;stroke-dasharray:7.0,7.0;"/><text fill="#000000" font-family="sans-serif" font-size="13" lengthAdjust="spacing" textLength="129" x="207.1338" y="298.8638">deployment pipeline</text><polygon fill="#181818" points="285.9843,709.1732,277.0592,705.0086,280.9851,709.0814,276.9123,713.0073,285.9843,709.1732" style="stroke:#181818;stroke-width:1.0;"/><path d="M137.9821,447.8857 C113.7562,461.956 48.1718,504.0903 24.1338,560.2969 C6.4826,601.5697 -4.7069,626.8989 24.1338,661.2969 C58.7468,702.5793 236.655,708.2674 279.9853,709.063 " fill="none" style="stroke:#181818;stroke-width:1.0;stroke-dasharray:7.0,7.0;"/><text fill="#000000" font-family="sans-serif" font-size="13" lengthAdjust="spacing" textLength="128" x="25.1338" y="615.3638">configuration export</text><polygon fill="#181818" points="488.6618,937.4161,480.099,932.5501,483.6861,936.9242,479.312,940.5113,488.6618,937.4161" style="stroke:#181818;stroke-width:1.0;"/><path d="M291.6234,722.5481 C282.7578,753.3989 262.9747,840.3502 304.1338,890.2969 C328.2951,919.6166 447.1215,933.3095 482.691,936.8258 " fill="none" style="stroke:#181818;stroke-width:1.0;stroke-dasharray:7.0,7.0;"/><text fill="#000000" font-family="sans-serif" font-size="13" lengthAdjust="spacing" textLength="99" x="305.1338" y="829.3638">cloud migration</text><!--SRC=[nLTjRzis4FwkNy5vG9S6irrqoL04NG17bXjZVfljT2k6Vc0askP2Ynf9sN673Fij-sdx9RiZHKbsrEtJi08fRDwHzznppntfBp95rrjA13t8t12zPOQcD33S24R6Chd9zK-aJVei4_AmPQaXPtsc7upCNWQ1Vk1fHXNTadiQFwoLpDCab48gijzmmshsL2RiviJdo-ZDu6BGhtbHPVYAnkQPvs0mU1s6DS-46dfFzVCp-vVHc_x5IMJoMq38vy8_ixnzcocPvB7XChs-Beziy0CwcCeKrmpz1eFeukQooIyMCa_G9Ner-7Om29uQScx6M2J-FsFqR3TZ_2zY1xPihJlD52dqrY8dILFjJHPNIMJBoxQNDMw2PRk1a9zdXn_C9RaRVdHVU_gGnh3xFjSBfdPCVVHkRX6_Fi5VoKS14Bus1K8ZsdoqtxkThJtdiIlaMXU7QsOCJzUwyukMgOi0-LjAR2hWJoRCxALwQE6fyDaUw1Wg7CPK0zNaR1dENbeljm1VIq_8Y5DHUiwNTztU8XmEw_wBQ8x1FQtjHExJzhKDUKNWC7BvwlKpQxaLV8eWP-5qt3Nc03FYAoZIZWcPsU4HfJkkP8gVuPmTbg8DHy37KAOhleOZ5AE9xkuL311zuhEKKcXmoNLbwdIkYIEXHDa5b5yJJD31GH2piZPUD04k-SFniotL5T56AgP9RF7evruiAo5usoa69q0B1L1W-AZiX2CAdChyyU3KlwaGeCfg7gT1G6sF1uIPCfkN3c1_A3YSg-rnrTOhShjSpXRTURHOajviU18Ng3UKfw2AAvBOGSyImbF47LePrY6x27xhEshOdXxA270uYQaGEl0Mz1hpM4beXXsF6P87lG_5XKh_cZDjT71ijv0mhYK3MI0PKvg3ojAOdJYVig9Pd2j6J0wq08gnJ3cm2VtL26Jhp9fi61LcOpC61zrcLSOEmKh8VQd6Jg45nsrItOqPpvW09YlLT5nT7U7Wx6ILAsgbo1upgKnGELX_c_mmNIcKeni4MxvsMn3YT-K_CecMFqxdtvFPVBgSXjFHecQ46Mg02UXKkQeu2ixF2ta2HYDZASWYpn36rVbvyDSVVrhP3cU5VCZP34pOzo-j4VJiczmxGAyJtA-TXnqg_-BZ1ohvflC8yjjcaDkzODOMFSOYrtp7YDz4Q0pbqcxdA2GlAkWqIQ1LDDONHYkq94iJWda7HzcN14FsjLOSC6f0BTfdFiw5uUqSPtejv5mAriPndw0Ejnp2ORUXAOIYAohu9x0TLTPQRpbsCeT-S1g2eRy6fEvGQCLLBcmtDcEkL02WNH_Ui9Ijk2dnzd8ZsnhEzwVUylM6q1tbWjvpmSt1hhuJyXunb3froS8xRmsuVJkunQfVNX0gcCAhgGRmI7pzQ3QQVXX7aoM99k-7y-a4Fnz9CCZWheSmf5LxGTR6YMuLbwE28KRJjR2UvNtHyg-qmijUc2Df6QsyFbQsEu1FOBOWxDho46fUD523jS_f6fyvQw3NEJdZa_t_5Dx2KAnYop_Ewj3kl7Goy8vPGwmPKokfjf-nBd1wGTcQGCeunsHT4ehjEDl_4ypgmclv9reTgR_4Ar7KOjLQfD7krDXeEXAGTeF5mtmwqSyY2k_cm-K7QFJ9OjYFvhtb43uz6s7mFF74J525v-SbJt1rQPuKLQlws0sup4y9xTtF1D_2ko9nK-ZzRE8l2W950VQsDbpL-Y4sm0ewsFW9G7EpWOnnoRTvyJY3AEkoG4Lx9g36ewwlHecBWbF3A2dSv4jZTSZCwIonxm7eeLeRrkc0Ax0stKyO3dkZtirmX2HFfikecLjefs9SU7gh5JAZ1iHGSNiBnVs43mQWrKqUShQjNwkEsx1yby08b-M02ccymIqQnYQq92_6Zdru4vdvGjh5aQG9_B0Kq2j-Uzy_lFM6giIlHZkWlPqek3DI-1aGus_F60TxdR7Z996qse3z6m00]--></g></svg>