<svg xmlns="http://www.w3.org/2000/svg" xmlns:xlink="http://www.w3.org/1999/xlink" version="1.1" width="256" height="256" viewBox="0 0 256 256" xml:space="preserve">
<g style="stroke: none; stroke-width: 0; stroke-dasharray: none; stroke-linecap: butt; stroke-linejoin: miter; stroke-miterlimit: 10; fill: none; fill-rule: nonzero; opacity: 1;" transform="translate(1.4065934065934016 1.4065934065934016) scale(2.81 2.81)">
	<ellipse cx="34.623" cy="9.156" rx="34.623" ry="8.316" style="stroke: none; stroke-width: 1; stroke-dasharray: none; stroke-linecap: butt; stroke-linejoin: miter; stroke-miterlimit: 10; fill: rgb(162,217,240); fill-rule: nonzero; opacity: 1;" transform=" matrix(1 0 0 1 0 0) "/>
	<path d="M 69.246 9.157 c 0 4.593 -15.501 8.316 -34.623 8.316 S 0 13.75 0 9.157 v 23.895 c 0 4.593 15.501 8.316 34.623 8.316 s 34.623 -3.723 34.623 -8.316 V 9.157 z" style="stroke: none; stroke-width: 1; stroke-dasharray: none; stroke-linecap: butt; stroke-linejoin: miter; stroke-miterlimit: 10; fill: rgb(50,167,228); fill-rule: nonzero; opacity: 1;" transform=" matrix(1 0 0 1 0 0) " stroke-linecap="round"/>
	<path d="M 69.246 33.052 c 0 4.593 -15.501 8.316 -34.623 8.316 S 0 37.645 0 33.052 v 23.895 c 0 4.593 15.501 8.316 34.623 8.316 s 34.623 -3.723 34.623 -8.316 V 33.052 z" style="stroke: none; stroke-width: 1; stroke-dasharray: none; stroke-linecap: butt; stroke-linejoin: miter; stroke-miterlimit: 10; fill: rgb(162,217,240); fill-rule: nonzero; opacity: 1;" transform=" matrix(1 0 0 1 0 0) " stroke-linecap="round"/>
	<path d="M 69.246 56.948 c 0 4.593 -15.501 8.316 -34.623 8.316 S 0 61.541 0 56.948 v 23.895 c 0 4.593 15.501 8.316 34.623 8.316 s 34.623 -3.723 34.623 -8.316 V 56.948 z" style="stroke: none; stroke-width: 1; stroke-dasharray: none; stroke-linecap: butt; stroke-linejoin: miter; stroke-miterlimit: 10; fill: rgb(50,167,228); fill-rule: nonzero; opacity: 1;" transform=" matrix(1 0 0 1 0 0) " stroke-linecap="round"/>
	<path d="M 35.542 30.42 h -1.838 c -0.552 0 -1 -0.448 -1 -1 s 0.448 -1 1 -1 h 1.838 c 0.552 0 1 0.448 1 1 S 36.094 30.42 35.542 30.42 z" style="stroke: none; stroke-width: 1; stroke-dasharray: none; stroke-linecap: butt; stroke-linejoin: miter; stroke-miterlimit: 10; fill: rgb(46,140,204); fill-rule: nonzero; opacity: 1;" transform=" matrix(1 0 0 1 0 0) " stroke-linecap="round"/>
	<path d="M 35.542 54.316 h -1.838 c -0.552 0 -1 -0.447 -1 -1 s 0.448 -1 1 -1 h 1.838 c 0.552 0 1 0.447 1 1 S 36.094 54.316 35.542 54.316 z" style="stroke: none; stroke-width: 1; stroke-dasharray: none; stroke-linecap: butt; stroke-linejoin: miter; stroke-miterlimit: 10; fill: rgb(46,140,204); fill-rule: nonzero; opacity: 1;" transform=" matrix(1 0 0 1 0 0) " stroke-linecap="round"/>
	<path d="M 35.542 78.212 h -1.838 c -0.552 0 -1 -0.447 -1 -1 s 0.448 -1 1 -1 h 1.838 c 0.552 0 1 0.447 1 1 S 36.094 78.212 35.542 78.212 z" style="stroke: none; stroke-width: 1; stroke-dasharray: none; stroke-linecap: butt; stroke-linejoin: miter; stroke-miterlimit: 10; fill: rgb(46,140,204); fill-rule: nonzero; opacity: 1;" transform=" matrix(1 0 0 1 0 0) " stroke-linecap="round"/>
	<circle cx="69.055" cy="68.215" r="20.945" style="stroke: none; stroke-width: 1; stroke-dasharray: none; stroke-linecap: butt; stroke-linejoin: miter; stroke-miterlimit: 10; fill: rgb(91,221,106); fill-rule: nonzero; opacity: 1;" transform="  matrix(1 0 0 1 0 0) "/>
	<polygon points="79.98,65.15 72.31,65.15 72.31,57.48 66.18,57.48 66.18,65.15 58.51,65.15 58.51,71.28 66.18,71.28 66.18,78.95 72.31,78.95 72.31,71.28 79.98,71.28 " style="stroke: none; stroke-width: 1; stroke-dasharray: none; stroke-linecap: butt; stroke-linejoin: miter; stroke-miterlimit: 10; fill: rgb(249,249,249); fill-rule: nonzero; opacity: 1;" transform="  matrix(1 0 0 1 0 0) "/>
</g>
</svg>