<svg xmlns="http://www.w3.org/2000/svg" xmlns:xlink="http://www.w3.org/1999/xlink" version="1.1" width="256" height="256" viewBox="0 0 256 256" xml:space="preserve">
<g style="stroke: none; stroke-width: 0; stroke-dasharray: none; stroke-linecap: butt; stroke-linejoin: miter; stroke-miterlimit: 10; fill: none; fill-rule: nonzero; opacity: 1;" transform="translate(1.4065934065934016 1.4065934065934016) scale(2.81 2.81)">
	<path d="M 83.789 46 H 67.593 c -0.553 0 -1 -0.448 -1 -1 s 0.447 -1 1 -1 h 16.196 c 0.553 0 1 0.448 1 1 S 84.342 46 83.789 46 z" style="stroke: none; stroke-width: 1; stroke-dasharray: none; stroke-linecap: butt; stroke-linejoin: miter; stroke-miterlimit: 10; fill: rgb(0,139,255); fill-rule: nonzero; opacity: 1;" transform=" matrix(1 0 0 1 0 0) " stroke-linecap="round"/>
	<path d="M 74.826 29.277 H 52.273 c -0.553 0 -1 -0.448 -1 -1 s 0.447 -1 1 -1 h 22.068 l 3.692 -4.675 c 0.19 -0.24 0.479 -0.38 0.785 -0.38 h 4.97 c 0.553 0 1 0.448 1 1 s -0.447 1 -1 1 h -4.485 l -3.692 4.675 C 75.421 29.137 75.132 29.277 74.826 29.277 z" style="stroke: none; stroke-width: 1; stroke-dasharray: none; stroke-linecap: butt; stroke-linejoin: miter; stroke-miterlimit: 10; fill: rgb(0,139,255); fill-rule: nonzero; opacity: 1;" transform=" matrix(1 0 0 1 0 0) " stroke-linecap="round"/>
	<path d="M 83.789 67.742 h -4.97 c -0.306 0 -0.595 -0.14 -0.785 -0.38 l -3.692 -4.676 H 52.273 c -0.553 0 -1 -0.447 -1 -1 s 0.447 -1 1 -1 h 22.553 c 0.306 0 0.595 0.14 0.785 0.38 l 3.692 4.676 h 4.485 c 0.553 0 1 0.447 1 1 S 84.342 67.742 83.789 67.742 z" style="stroke: none; stroke-width: 1; stroke-dasharray: none; stroke-linecap: butt; stroke-linejoin: miter; stroke-miterlimit: 10; fill: rgb(0,139,255); fill-rule: nonzero; opacity: 1;" transform=" matrix(1 0 0 1 0 0) " stroke-linecap="round"/>
	<path d="M 22.408 46 H 6.211 c -0.552 0 -1 -0.448 -1 -1 s 0.448 -1 1 -1 h 16.197 c 0.552 0 1 0.448 1 1 S 22.96 46 22.408 46 z" style="stroke: none; stroke-width: 1; stroke-dasharray: none; stroke-linecap: butt; stroke-linejoin: miter; stroke-miterlimit: 10; fill: rgb(0,139,255); fill-rule: nonzero; opacity: 1;" transform=" matrix(1 0 0 1 0 0) " stroke-linecap="round"/>
	<path d="M 11.18 67.778 H 6.211 c -0.552 0 -1 -0.447 -1 -1 s 0.448 -1 1 -1 h 4.485 l 3.693 -4.676 c 0.189 -0.24 0.479 -0.38 0.785 -0.38 h 22.553 c 0.552 0 1 0.447 1 1 s -0.448 1 -1 1 H 15.658 l -3.693 4.676 C 11.775 67.639 11.486 67.778 11.18 67.778 z" style="stroke: none; stroke-width: 1; stroke-dasharray: none; stroke-linecap: butt; stroke-linejoin: miter; stroke-miterlimit: 10; fill: rgb(0,139,255); fill-rule: nonzero; opacity: 1;" transform=" matrix(1 0 0 1 0 0) " stroke-linecap="round"/>
	<path d="M 37.727 29.313 H 15.174 c -0.306 0 -0.595 -0.14 -0.785 -0.38 l -3.693 -4.675 H 6.211 c -0.552 0 -1 -0.448 -1 -1 s 0.448 -1 1 -1 h 4.969 c 0.306 0 0.595 0.14 0.785 0.38 l 3.693 4.675 h 22.068 c 0.552 0 1 0.448 1 1 S 38.279 29.313 37.727 29.313 z" style="stroke: none; stroke-width: 1; stroke-dasharray: none; stroke-linecap: butt; stroke-linejoin: miter; stroke-miterlimit: 10; fill: rgb(0,139,255); fill-rule: nonzero; opacity: 1;" transform=" matrix(1 0 0 1 0 0) " stroke-linecap="round"/>
	<polygon points="69.04,35.73 53.72,35.73 53.72,20.41 36.28,20.41 36.28,35.73 20.96,35.73 20.96,53.17 36.28,53.17 36.28,68.49 53.72,68.49 53.72,53.17 69.04,53.17 " style="stroke: none; stroke-width: 1; stroke-dasharray: none; stroke-linecap: butt; stroke-linejoin: miter; stroke-miterlimit: 10; fill: rgb(17,206,80); fill-rule: nonzero; opacity: 1;" transform="  matrix(1 0 0 1 0 0) "/>
	<circle cx="86.184" cy="45.004" r="3.814" style="stroke: none; stroke-width: 1; stroke-dasharray: none; stroke-linecap: butt; stroke-linejoin: miter; stroke-miterlimit: 10; fill: rgb(255,239,1); fill-rule: nonzero; opacity: 1;" transform="  matrix(1 0 0 1 0 0) "/>
	<circle cx="86.184" cy="23.254" r="3.814" style="stroke: none; stroke-width: 1; stroke-dasharray: none; stroke-linecap: butt; stroke-linejoin: miter; stroke-miterlimit: 10; fill: rgb(247,120,80); fill-rule: nonzero; opacity: 1;" transform="  matrix(1 0 0 1 0 0) "/>
	<circle cx="86.184" cy="66.744" r="3.814" style="stroke: none; stroke-width: 1; stroke-dasharray: none; stroke-linecap: butt; stroke-linejoin: miter; stroke-miterlimit: 10; fill: rgb(17,206,80); fill-rule: nonzero; opacity: 1;" transform="  matrix(1 0 0 1 0 0) "/>
	<circle cx="3.814" cy="45.004" r="3.814" style="stroke: none; stroke-width: 1; stroke-dasharray: none; stroke-linecap: butt; stroke-linejoin: miter; stroke-miterlimit: 10; fill: rgb(255,239,1); fill-rule: nonzero; opacity: 1;" transform="  matrix(1 0 0 1 0 0) "/>
	<circle cx="3.814" cy="66.744" r="3.814" style="stroke: none; stroke-width: 1; stroke-dasharray: none; stroke-linecap: butt; stroke-linejoin: miter; stroke-miterlimit: 10; fill: rgb(247,120,80); fill-rule: nonzero; opacity: 1;" transform="  matrix(1 0 0 1 0 0) "/>
	<circle cx="3.814" cy="23.254" r="3.814" style="stroke: none; stroke-width: 1; stroke-dasharray: none; stroke-linecap: butt; stroke-linejoin: miter; stroke-miterlimit: 10; fill: rgb(17,206,80); fill-rule: nonzero; opacity: 1;" transform="  matrix(1 0 0 1 0 0) "/>
</g>
</svg>