<svg xmlns="http://www.w3.org/2000/svg" xmlns:xlink="http://www.w3.org/1999/xlink" version="1.1" width="256" height="256" viewBox="0 0 256 256" xml:space="preserve">
<g style="stroke: none; stroke-width: 0; stroke-dasharray: none; stroke-linecap: butt; stroke-linejoin: miter; stroke-miterlimit: 10; fill: none; fill-rule: nonzero; opacity: 1;" transform="translate(1.4065934065934016 1.4065934065934016) scale(2.81 2.81)">
	<path d="M 44.967 74.303 c -0.552 0 -1 -0.447 -1 -1 s 0.448 -1 1 -1 C 60.021 72.303 72.27 60.055 72.27 45 c 0 -0.552 0.447 -1 1 -1 s 1 0.448 1 1 C 74.27 61.157 61.124 74.303 44.967 74.303 z" style="stroke: none; stroke-width: 1; stroke-dasharray: none; stroke-linecap: butt; stroke-linejoin: miter; stroke-miterlimit: 10; fill: rgb(255,0,0); fill-rule: nonzero; opacity: 1;" transform=" matrix(1 0 0 1 0 0) " stroke-linecap="round"/>
	<path d="M 16.664 46 c -0.552 0 -1 -0.448 -1 -1 c 0 -16.158 13.146 -29.303 29.303 -29.303 c 0.552 0 1 0.448 1 1 s -0.448 1 -1 1 c -15.055 0 -27.303 12.248 -27.303 27.303 C 17.664 45.552 17.216 46 16.664 46 z" style="stroke: none; stroke-width: 1; stroke-dasharray: none; stroke-linecap: butt; stroke-linejoin: miter; stroke-miterlimit: 10; fill: rgb(255,0,0); fill-rule: nonzero; opacity: 1;" transform=" matrix(1 0 0 1 0 0) " stroke-linecap="round"/>
	<path d="M 45.033 8.888 c -0.552 0 -1 -0.448 -1 -1 V 1 c 0 -0.552 0.448 -1 1 -1 s 1 0.448 1 1 v 6.888 C 46.033 8.44 45.585 8.888 45.033 8.888 z" style="stroke: none; stroke-width: 1; stroke-dasharray: none; stroke-linecap: butt; stroke-linejoin: miter; stroke-miterlimit: 10; fill: rgb(255,0,0); fill-rule: nonzero; opacity: 1;" transform=" matrix(1 0 0 1 0 0) " stroke-linecap="round"/>
	<path d="M 45.033 90 c -0.552 0 -1 -0.447 -1 -1 v -6.889 c 0 -0.553 0.448 -1 1 -1 s 1 0.447 1 1 V 89 C 46.033 89.553 45.585 90 45.033 90 z" style="stroke: none; stroke-width: 1; stroke-dasharray: none; stroke-linecap: butt; stroke-linejoin: miter; stroke-miterlimit: 10; fill: rgb(255,0,0); fill-rule: nonzero; opacity: 1;" transform=" matrix(1 0 0 1 0 0) " stroke-linecap="round"/>
	<path d="M 7.921 46 H 1.033 c -0.552 0 -1 -0.448 -1 -1 s 0.448 -1 1 -1 h 6.888 c 0.552 0 1 0.448 1 1 S 8.474 46 7.921 46 z" style="stroke: none; stroke-width: 1; stroke-dasharray: none; stroke-linecap: butt; stroke-linejoin: miter; stroke-miterlimit: 10; fill: rgb(255,0,0); fill-rule: nonzero; opacity: 1;" transform=" matrix(1 0 0 1 0 0) " stroke-linecap="round"/>
	<path d="M 89.033 46 h -6.888 c -0.553 0 -1 -0.448 -1 -1 s 0.447 -1 1 -1 h 6.888 c 0.553 0 1 0.448 1 1 S 89.586 46 89.033 46 z" style="stroke: none; stroke-width: 1; stroke-dasharray: none; stroke-linecap: butt; stroke-linejoin: miter; stroke-miterlimit: 10; fill: rgb(255,0,0); fill-rule: nonzero; opacity: 1;" transform=" matrix(1 0 0 1 0 0) " stroke-linecap="round"/>
	<path d="M 18.792 19.758 c -0.256 0 -0.512 -0.098 -0.707 -0.293 l -4.871 -4.871 c -0.391 -0.391 -0.391 -1.023 0 -1.414 s 1.023 -0.391 1.414 0 l 4.871 4.871 c 0.391 0.391 0.391 1.023 0 1.414 C 19.303 19.66 19.047 19.758 18.792 19.758 z" style="stroke: none; stroke-width: 1; stroke-dasharray: none; stroke-linecap: butt; stroke-linejoin: miter; stroke-miterlimit: 10; fill: rgb(255,0,0); fill-rule: nonzero; opacity: 1;" transform=" matrix(1 0 0 1 0 0) " stroke-linecap="round"/>
	<path d="M 76.146 77.112 c -0.256 0 -0.512 -0.098 -0.707 -0.293 l -4.87 -4.87 c -0.391 -0.391 -0.391 -1.023 0 -1.414 s 1.023 -0.391 1.414 0 l 4.87 4.87 c 0.391 0.391 0.391 1.023 0 1.414 C 76.657 77.015 76.401 77.112 76.146 77.112 z" style="stroke: none; stroke-width: 1; stroke-dasharray: none; stroke-linecap: butt; stroke-linejoin: miter; stroke-miterlimit: 10; fill: rgb(255,0,0); fill-rule: nonzero; opacity: 1;" transform=" matrix(1 0 0 1 0 0) " stroke-linecap="round"/>
	<path d="M 42.921 52.714 l -5.669 -5.669 c -5.795 -3.292 -13.335 -2.478 -18.262 2.449 L 5.397 63.088 c -5.907 5.907 -5.907 15.574 0 21.482 h 0 c 5.907 5.907 15.574 5.907 21.482 0 l 13.593 -13.593 C 45.399 66.049 46.213 58.509 42.921 52.714 z M 35.052 67.482 L 23.385 79.15 c -3.456 3.456 -9.112 3.456 -12.568 0 c -3.456 -3.456 -3.456 -9.112 0 -12.568 l 11.667 -11.667 c 2.439 -2.439 5.972 -3.149 9.056 -2.145 l 5.656 5.656 C 38.201 61.51 37.492 65.043 35.052 67.482 z" style="stroke: none; stroke-width: 1; stroke-dasharray: none; stroke-linecap: butt; stroke-linejoin: miter; stroke-miterlimit: 10; fill: rgb(255,0,35); fill-rule: nonzero; opacity: 1;" transform=" matrix(1 0 0 1 0 0) " stroke-linecap="round"/>
	<path d="M 84.536 5.431 L 84.536 5.431 c -5.907 -5.907 -15.574 -5.907 -21.482 0 L 49.461 19.024 c -4.927 4.927 -5.741 12.467 -2.45 18.262 l 5.669 5.669 c 5.795 3.292 13.335 2.477 18.262 -2.45 l 13.593 -13.593 C 90.444 21.005 90.444 11.338 84.536 5.431 z M 79.116 23.418 L 67.449 35.086 c -2.439 2.439 -5.972 3.149 -9.056 2.144 l -5.656 -5.656 c -1.004 -3.084 -0.295 -6.617 2.145 -9.056 L 66.549 10.85 c 3.456 -3.456 9.112 -3.456 12.568 0 S 82.573 19.962 79.116 23.418 z" style="stroke: none; stroke-width: 1; stroke-dasharray: none; stroke-linecap: butt; stroke-linejoin: miter; stroke-miterlimit: 10; fill: rgb(255,0,35); fill-rule: nonzero; opacity: 1;" transform=" matrix(1 0 0 1 0 0) " stroke-linecap="round"/>
	<path d="M 58.274 37.362 L 37.328 58.307 c -1.382 1.382 -3.644 1.382 -5.026 0 l -0.642 -0.642 c -1.382 -1.382 -1.382 -3.644 0 -5.026 l 20.946 -20.946 c 1.382 -1.382 3.644 -1.382 5.026 0 l 0.642 0.642 C 59.656 33.717 59.656 35.979 58.274 37.362 z" style="stroke: none; stroke-width: 1; stroke-dasharray: none; stroke-linecap: butt; stroke-linejoin: miter; stroke-miterlimit: 10; fill: rgb(112,116,135); fill-rule: nonzero; opacity: 1;" transform=" matrix(1 0 0 1 0 0) " stroke-linecap="round"/>
</g>
</svg>